<svg width="28" height="29" viewBox="0 0 28 29" fill="none" xmlns="http://www.w3.org/2000/svg">
<path d="M25.912 20.0495C25.1301 21.1107 23.698 21.4551 22.5191 20.8657L22.1813 20.6968C21.9612 20.5868 21.7306 20.5075 21.4876 20.4688C19.9934 20.2305 14.2687 19.5041 11.8059 21.8857C10.817 22.842 9.90775 24.7312 9.70118 25.1767C9.67151 25.2407 9.64532 25.3077 9.62031 25.3736C7.69887 30.4387 -1.20554 28.4126 0.13727 25.2724L11.3238 3.44089C11.6339 2.83588 12.16 2.36952 12.7978 2.13434L17.4526 0.41807C18.7997 -0.0786506 20.3005 0.561844 20.8739 1.87822L27.0963 16.164C27.4823 17.0502 27.3669 18.0749 26.7935 18.8531L25.912 20.0495ZM12.3412 11.9059C11.7227 13.6679 13.0303 15.5126 14.8976 15.5126H16.062C17.9203 15.5126 19.227 13.6844 18.6255 11.9262L17.5356 8.74031C17.0673 7.43951 16.7244 7.06219 16.6265 4.53372C16.6005 3.86244 16.0583 3.32033 15.3865 3.32033V3.32033C14.723 3.32033 14.182 3.8506 14.162 4.51375C14.1358 5.37815 14.1284 5.09832 14.0604 5.71061C13.9713 6.72051 13.7634 7.74526 13.4366 8.78486L12.3412 11.9059Z" fill="#171D42"/>
</svg>
