<svg width="179" height="42" viewBox="0 0 179 42" fill="none" xmlns="http://www.w3.org/2000/svg">
<path d="M162.775 32.5371C162.367 33.2673 161.596 33.7198 160.759 33.7198H157.944C156.169 33.7198 155.057 31.8004 155.941 30.2605L158.38 26.008C158.989 24.9528 159.273 24.2628 159.273 23.6134C159.273 23.0045 159.03 22.3957 158.502 21.5028L155.875 16.8762C155 15.3363 156.113 13.4258 157.883 13.4258H160.775C161.625 13.4258 162.406 13.8923 162.809 14.6405L164.996 18.7022C165.182 19.0202 165.332 19.3554 165.471 19.6966C165.605 20.025 165.92 20.2446 166.275 20.2446C166.629 20.2446 166.944 20.025 167.078 19.6966C167.217 19.3554 167.368 19.0202 167.553 18.7022L169.74 14.6405C170.143 13.8923 170.924 13.4258 171.774 13.4258H174.666C176.436 13.4258 177.549 15.3363 176.674 16.8762L174.047 21.5028C173.52 22.3957 173.276 23.0045 173.276 23.6134C173.276 24.2628 173.56 24.9528 174.169 26.008L176.608 30.2605C177.492 31.8004 176.38 33.7198 174.605 33.7198H171.79C170.953 33.7198 170.182 33.2673 169.774 32.5371L167.553 28.5651C167.31 28.1394 167.112 27.6909 166.943 27.2197C166.841 26.9356 166.576 26.7386 166.275 26.7386C165.973 26.7386 165.708 26.9356 165.606 27.2197C165.437 27.6909 165.239 28.1394 164.996 28.5651L162.775 32.5371Z" fill="white"/>
<path d="M137.147 41.31C136.206 41.31 135.304 41.1575 134.439 40.8523C133.906 40.6583 133.418 40.4025 132.977 40.0851C132.532 39.7649 132.47 39.15 132.76 38.6848C133.154 38.0513 134.029 37.9539 134.678 38.3215C134.837 38.4114 134.999 38.4921 135.164 38.5638C135.774 38.8435 136.448 38.9834 137.185 38.9834C138.075 38.9834 138.838 38.7291 139.474 38.2206C140.135 37.7374 140.758 36.8729 141.343 35.6269L142.535 32.9282C142.604 32.7698 142.691 32.6194 142.793 32.4794C142.894 32.3405 142.98 32.1913 143.05 32.0342L150.862 14.4191C151.058 13.979 151.494 13.6953 151.975 13.6953C152.858 13.6953 153.447 14.6044 153.087 15.4098L143.822 36.1228C143.263 37.4196 142.64 38.4494 141.953 39.2122C141.292 39.9751 140.567 40.5091 139.779 40.8142C138.991 41.1448 138.114 41.31 137.147 41.31ZM143.77 32.6744C143.185 33.4115 142.028 33.2664 141.643 32.4079L134.069 15.5078C133.688 14.6567 134.31 13.6953 135.243 13.6953C135.752 13.6953 136.212 13.9949 136.419 14.4597L143.934 31.386C144.123 31.8125 144.06 32.3088 143.77 32.6744Z" fill="white"/>
<path d="M122.318 13.5044C123.946 13.5044 125.357 13.8222 126.552 14.4579C127.773 15.0682 128.714 16.009 129.375 17.2804C130.061 18.5518 130.405 20.1538 130.405 22.0863V32.3656C130.405 33.1134 129.798 33.7196 129.051 33.7196C128.303 33.7196 127.696 33.1134 127.696 32.3656V22.3533C127.696 20.2428 127.188 18.6536 126.171 17.5856C125.179 16.4922 123.768 15.9455 121.937 15.9455C120.564 15.9455 119.369 16.2379 118.352 16.8227C117.36 17.3822 116.584 18.2086 116.025 19.302C115.491 20.3699 115.224 21.6668 115.224 23.1924V32.3656C115.224 33.1134 114.618 33.7196 113.87 33.7196C113.122 33.7196 112.516 33.1134 112.516 32.3656V22.3533C112.516 20.2428 112.007 18.6536 110.99 17.5856C109.973 16.4922 108.549 15.9455 106.718 15.9455C105.371 15.9455 104.188 16.2379 103.171 16.8227C102.154 17.3822 101.366 18.2086 100.806 19.302C100.272 20.3699 100.005 21.6668 100.005 23.1924V32.3656C100.005 33.1134 99.3992 33.7196 98.6514 33.7196C97.9036 33.7196 97.2974 33.1134 97.2974 32.3656V14.9919C97.2974 14.2757 97.878 13.6951 98.5942 13.6951H98.95C99.4697 13.6951 99.891 14.1164 99.891 14.6361V18.156C99.891 18.3733 99.5938 18.4358 99.5063 18.2369C99.484 18.1863 99.4835 18.1287 99.5055 18.0781C100.118 16.6668 101.085 15.5618 102.408 14.7631C103.781 13.924 105.396 13.5044 107.252 13.5044C109.21 13.5044 110.876 14.0002 112.249 14.9919C113.446 15.834 114.275 17.0527 114.738 18.6481C114.828 18.9586 114.52 19.2214 114.219 19.1032C114.014 19.0227 113.909 18.7934 113.993 18.59C114.596 17.1324 115.579 15.9457 116.94 15.0301C118.441 14.013 120.233 13.5044 122.318 13.5044Z" fill="white"/>
<path d="M92.8879 23.4215C92.8879 24.4326 91.9878 25.2142 90.9767 25.2142H84.2972C81.0204 25.2142 79.5417 28.5325 82.8184 28.5325C83.7376 28.5325 84.5148 28.4142 85.2218 28.1705C86.6957 27.6623 88.4331 27.6206 89.5137 28.7444C90.5775 29.8508 90.6259 31.6429 89.3134 32.4387C87.5417 33.5132 85.3131 34.0631 82.5896 34.0631C75.2282 34.0631 70.4604 29.5242 70.4604 23.3452C70.4604 17.1281 75.3045 12.7036 81.8267 12.7036C87.9294 12.7036 92.8879 16.5941 92.8879 23.4215ZM81.8649 17.8528C81.2293 17.8528 80.6486 17.9623 80.1329 18.1684C78.0764 18.9905 79.6867 21.4 81.9014 21.4C84.0918 21.4 85.6947 19.0435 83.6743 18.1973C83.1376 17.9725 82.5295 17.8528 81.8649 17.8528Z" fill="white"/>
<path d="M59.9456 34.0631C53.0038 34.0631 48.0835 29.6386 48.0835 23.3452C48.0835 17.1281 53.0038 12.7036 59.9456 12.7036C63.3898 12.7036 66.2378 13.8342 68.0671 15.854C69.2073 17.1129 68.4795 18.9756 66.9665 19.7476C65.3431 20.5758 63.4391 19.6908 61.8038 18.8863C61.2185 18.5984 60.5814 18.463 59.9075 18.463C57.3901 18.463 55.4067 20.2176 55.4067 23.3452C55.4067 26.5491 57.3901 28.3037 59.9075 28.3037C60.5814 28.3037 61.2185 28.1683 61.8038 27.8804C63.4391 27.0759 65.3431 26.1909 66.9665 27.0191C68.4795 27.7911 69.2073 29.6538 68.0671 30.9127C66.2378 32.9325 63.3898 34.0631 59.9456 34.0631Z" fill="white"/>
<path d="M35.58 29.6761C36.2154 28.0703 37.6198 26.8628 39.3077 26.4979C41.1074 26.1087 42.9784 26.7053 44.2207 28.0643L45.3303 29.2781C47.3067 31.4403 46.8226 34.8681 44.3247 36.3983C43.5918 36.8473 42.749 37.0849 41.8895 37.0849H40.5408C36.7538 37.0849 34.1865 33.1974 35.58 29.6761Z" fill="white"/>
<path d="M38.4074 24.8918C37.2416 26.663 34.9703 27.3382 33.0262 26.4916L32.0571 26.0695C31.9673 26.0304 31.8764 25.9942 31.7826 25.9659C30.8967 25.6984 25.974 24.4649 22.0429 28.6912C20.4886 30.3621 19.9003 32.1603 19.8031 32.4846C19.7928 32.5189 19.7828 32.5545 19.7724 32.5888C17.2013 41.0214 -0.0979281 37.7183 1.80066 32.5361L14.2037 5.54369C16.5961 -0.0584686 24.7436 -0.280928 28.2164 3.67275L39.2571 18.3433C40.3642 19.8144 40.4275 21.8226 39.4153 23.3605L38.4074 24.8918Z" fill="white"/>
</svg>
