<svg width="161" height="39" viewBox="0 0 161 39" fill="none" xmlns="http://www.w3.org/2000/svg">
<path d="M48.4023 7.74106C49.6177 7.74106 50.7513 7.97479 51.8032 8.44227C52.8783 8.88637 53.8133 9.50577 54.608 10.3005C55.4027 11.0952 56.0221 12.0301 56.4662 13.1053C56.9337 14.1571 57.1674 15.2907 57.1674 16.5062V29.8291H52.6797V25.4115H44.1249V29.8291H39.6372V16.5062C39.6372 15.2907 39.8593 14.1571 40.3034 13.1053C40.7708 12.0301 41.4019 11.0952 42.1966 10.3005C42.9913 9.50577 43.9146 8.88637 44.9664 8.44227C46.0416 7.97479 47.1869 7.74106 48.4023 7.74106ZM52.6797 16.5062C52.6797 15.9218 52.5628 15.3725 52.3291 14.8583C52.1187 14.3207 51.8148 13.8649 51.4175 13.491C51.0435 13.0936 50.5877 12.7898 50.0501 12.5794C49.5359 12.3457 48.9866 12.2288 48.4023 12.2288C47.818 12.2288 47.257 12.3457 46.7194 12.5794C46.2052 12.7898 45.7494 13.0936 45.352 13.491C44.9781 13.8649 44.6742 14.3207 44.4405 14.8583C44.2301 15.3725 44.1249 15.9218 44.1249 16.5062V20.9238H52.6797V16.5062ZM76.0932 21.5899C76.023 22.7352 75.7426 23.8104 75.2517 24.8155C74.7842 25.8205 74.1532 26.697 73.3584 27.445C72.5637 28.1696 71.6522 28.7539 70.6237 29.198C69.5953 29.6187 68.4967 29.8291 67.3281 29.8291C66.1126 29.8291 64.9673 29.6071 63.8921 29.163C62.8403 28.6955 61.9171 28.0644 61.1224 27.2697C60.3277 26.475 59.6966 25.5517 59.2291 24.4999C58.785 23.4247 58.563 22.2794 58.563 21.064C58.563 19.8486 58.785 18.715 59.2291 17.6631C59.6966 16.588 60.3277 15.653 61.1224 14.8583C61.9171 14.0636 62.8403 13.4442 63.8921 13.0001C64.9673 12.5326 66.1126 12.2989 67.3281 12.2989C68.4967 12.2989 69.5953 12.521 70.6237 12.9651C71.6522 13.3858 72.5637 13.9701 73.3584 14.7181C74.1532 15.4427 74.7842 16.3075 75.2517 17.3125C75.7426 18.3176 76.023 19.3928 76.0932 20.5381H71.5704C71.5002 20.0239 71.3366 19.533 71.0795 19.0656C70.8458 18.5981 70.5419 18.2007 70.168 17.8735C69.794 17.5463 69.3616 17.2892 68.8707 17.1022C68.3799 16.8918 67.8657 16.7866 67.3281 16.7866C66.7437 16.7866 66.1828 16.9035 65.6452 17.1372C65.1309 17.3476 64.6752 17.6515 64.2778 18.0488C63.9038 18.4228 63.6 18.8786 63.3662 19.4162C63.1559 19.9304 63.0507 20.4797 63.0507 21.064C63.0507 21.6483 63.1559 22.2093 63.3662 22.7469C63.6 23.2611 63.9038 23.7169 64.2778 24.1143C64.6752 24.4882 65.1309 24.7921 65.6452 25.0258C66.1828 25.2362 66.7437 25.3414 67.3281 25.3414C67.8657 25.3414 68.3799 25.2479 68.8707 25.0609C69.3616 24.8505 69.794 24.5817 70.168 24.2545C70.5419 23.9273 70.8458 23.5416 71.0795 23.0975C71.3366 22.63 71.5002 22.1275 71.5704 21.5899H76.0932ZM91.6181 28.006C90.8701 28.5903 90.0403 29.0461 89.1288 29.3733C88.2172 29.6772 87.2589 29.8291 86.2538 29.8291C85.0384 29.8291 83.8931 29.6071 82.8179 29.163C81.7661 28.6955 80.8428 28.0644 80.0481 27.2697C79.2534 26.475 78.6223 25.5517 78.1549 24.4999C77.7108 23.4247 77.4887 22.2794 77.4887 21.064C77.4887 19.8486 77.7108 18.715 78.1549 17.6631C78.6223 16.588 79.2534 15.653 80.0481 14.8583C80.8428 14.0636 81.7661 13.4442 82.8179 13.0001C83.8931 12.5326 85.0384 12.2989 86.2538 12.2989C87.4693 12.2989 88.6029 12.5326 89.6547 13.0001C90.7299 13.4442 91.6648 14.0636 92.4595 14.8583C93.2542 15.653 93.8736 16.588 94.3177 17.6631C94.7852 18.715 95.0189 19.8486 95.0189 21.064C95.0189 21.438 94.9955 21.8003 94.9488 22.1509C94.9021 22.5015 94.8436 22.8404 94.7735 23.1676H82.5374C82.9114 23.8221 83.4256 24.348 84.0801 24.7453C84.7345 25.1427 85.4591 25.3414 86.2538 25.3414C86.7213 25.3414 87.1654 25.2713 87.5861 25.131C88.0068 24.9908 88.3925 24.7921 88.7431 24.535L91.6181 28.006ZM86.2538 16.7866C85.5059 16.7866 84.828 16.9619 84.2203 17.3125C83.6126 17.6631 83.1101 18.1189 82.7127 18.6799H89.7949C89.3976 18.1189 88.895 17.6631 88.2873 17.3125C87.6796 16.9619 87.0018 16.7866 86.2538 16.7866ZM115.347 18.8552C115.23 18.2475 114.938 17.745 114.471 17.3476C114.026 16.9503 113.489 16.7516 112.858 16.7516C112.203 16.7516 111.631 16.9736 111.14 17.4177C110.672 17.8618 110.415 18.4111 110.369 19.0656V29.8291H105.881V19.2058C105.857 18.528 105.6 17.9553 105.109 17.4878C104.642 16.997 104.069 16.7516 103.392 16.7516C102.76 16.7516 102.211 16.9503 101.744 17.3476C101.276 17.745 100.996 18.2475 100.902 18.8552V29.8291H96.4145V19.2058C96.4145 18.2475 96.6015 17.3476 96.9755 16.5062C97.3494 15.6647 97.852 14.9401 98.483 14.3324C99.1141 13.7013 99.8504 13.2105 100.692 12.8599C101.533 12.4859 102.433 12.2989 103.392 12.2989C104.303 12.2989 105.156 12.4742 105.951 12.8248C106.769 13.152 107.494 13.6078 108.125 14.1922C108.732 13.6078 109.445 13.152 110.263 12.8248C111.081 12.4742 111.946 12.2989 112.858 12.2989C113.816 12.2989 114.716 12.4859 115.557 12.8599C116.399 13.2105 117.135 13.7013 117.766 14.3324C118.397 14.9401 118.9 15.6647 119.274 16.5062C119.648 17.3476 119.835 18.2475 119.835 19.2058V29.8291H115.347V18.8552ZM121.229 12.2989H125.717V21.064C125.717 21.6483 125.822 22.2093 126.033 22.7469C126.266 23.2611 126.57 23.7169 126.944 24.1143C127.341 24.4882 127.797 24.7921 128.311 25.0258C128.849 25.2362 129.41 25.3414 129.994 25.3414C130.579 25.3414 131.128 25.2362 131.642 25.0258C132.18 24.7921 132.636 24.4882 133.01 24.1143C133.407 23.7169 133.711 23.2611 133.921 22.7469C134.155 22.2093 134.272 21.6483 134.272 21.064V12.2989H138.759V29.8291C138.759 31.0445 138.526 32.1781 138.058 33.23C137.614 34.3051 136.995 35.2401 136.2 36.0348C135.405 36.8295 134.47 37.4489 133.395 37.893C132.343 38.3605 131.21 38.5942 129.994 38.5942C128.779 38.5942 127.634 38.3605 126.558 37.893C125.507 37.4489 124.583 36.8295 123.789 36.0348C122.994 35.2401 122.363 34.3051 121.895 33.23C121.451 32.1781 121.229 31.0445 121.229 29.8291H125.717C125.717 30.4134 125.822 30.9627 126.033 31.4769C126.266 32.0145 126.57 32.4703 126.944 32.8443C127.341 33.2416 127.797 33.5455 128.311 33.7559C128.849 33.9896 129.41 34.1065 129.994 34.1065C130.579 34.1065 131.128 33.9896 131.642 33.7559C132.18 33.5455 132.636 33.2416 133.01 32.8443C133.407 32.4703 133.711 32.0145 133.921 31.4769C134.155 30.9627 134.272 30.4134 134.272 29.8291V28.7422C132.963 29.4668 131.537 29.8291 129.994 29.8291C128.779 29.8291 127.634 29.6071 126.558 29.163C125.507 28.6955 124.583 28.0644 123.789 27.2697C122.994 26.475 122.363 25.5517 121.895 24.4999C121.451 23.4247 121.229 22.2794 121.229 21.064V12.2989Z" fill="#030712"/>
<path d="M154.179 18.9253C155.465 19.907 156.493 21.1224 157.265 22.5716C158.036 24.0208 158.457 25.6102 158.527 27.3398V29.8291H153.934V27.7255C153.934 27.0476 153.829 26.4049 153.618 25.7972C153.431 25.1661 153.151 24.5934 152.777 24.0792C152.426 23.5416 151.994 23.0741 151.48 22.6768C150.989 22.2794 150.451 21.9639 149.867 21.7302C148.675 22.1976 147.693 22.969 146.922 24.0441C146.15 25.1193 145.765 26.3464 145.765 27.7255V29.8291H141.207V27.7255C141.207 25.9491 141.593 24.3012 142.364 22.782C143.135 21.2627 144.175 20.0005 145.484 18.9954C144.152 17.967 143.1 16.7048 142.329 15.2089C141.557 13.6896 141.16 12.0301 141.137 10.2303V7.74106H145.73V10.1953C145.73 10.8731 145.823 11.5276 146.01 12.1587C146.22 12.7664 146.501 13.339 146.852 13.8766C147.226 14.3908 147.658 14.8466 148.149 15.244C148.64 15.6413 149.189 15.9569 149.797 16.1906C150.989 15.7231 151.97 14.9518 152.742 13.8766C153.513 12.8014 153.899 11.5743 153.899 10.1953V7.74106H158.457V10.1953H158.492C158.492 11.9717 158.106 13.6195 157.335 15.1388C156.563 16.6581 155.512 17.9203 154.179 18.9253Z" fill="#FF895D"/>
<path d="M4.14095 24.098C3.65779 15.4532 3.94773 5.65572 12.836 4.88729C21.7243 4.11886 24.4293 11.1307 23.9464 15.9335C23.4635 20.7362 13.8021 26.9795 13.8021 24.098C13.8021 21.2165 13.8021 13.5322 13.8021 13.5322" stroke="black" stroke-width="7" stroke-linecap="round"/>
<path d="M22.5005 26.8291C24.5001 25.3291 26.0005 22.6624 27.0005 21.8291C28.8931 34.3803 23.1655 35.5671 22.0005 33.3291C20.8355 31.0912 20.5009 28.3291 22.5005 26.8291Z" fill="black" stroke="black"/>
<path d="M2.06226 33.8291C1.01023 33.1268 0.895753 29.6624 1.06242 27.8291C3.52279 28.9031 4.43212 28.9881 7.06229 27.8291C8.05665 31.9486 5.60241 36.1924 2.06226 33.8291Z" fill="#FF895D" stroke="#FF895D" stroke-linejoin="round"/>
</svg>
