<svg width="117" height="37" viewBox="0 0 117 37" fill="none" xmlns="http://www.w3.org/2000/svg">
<path d="M25.912 25.0495C25.1301 26.1107 23.698 26.4551 22.5191 25.8657L22.1813 25.6968C21.9612 25.5868 21.7306 25.5075 21.4876 25.4688C19.9934 25.2305 14.2687 24.5041 11.8059 26.8857C10.817 27.842 9.90775 29.7312 9.70118 30.1767C9.67151 30.2407 9.64532 30.3077 9.62031 30.3736C7.69887 35.4387 -1.20554 33.4126 0.13727 30.2724L11.3238 8.44089C11.6339 7.83588 12.16 7.36952 12.7978 7.13434L17.4526 5.41807C18.7997 4.92135 20.3005 5.56184 20.8739 6.87822L27.0963 21.164C27.4823 22.0502 27.3669 23.0749 26.7935 23.8531L25.912 25.0495ZM12.3412 16.9059C11.7227 18.6679 13.0303 20.5126 14.8976 20.5126H16.062C17.9203 20.5126 19.227 18.6844 18.6255 16.9262L17.5356 13.7403C17.0673 12.4395 16.7244 12.0622 16.6265 9.53372C16.6005 8.86244 16.0583 8.32033 15.3865 8.32033C14.723 8.32033 14.182 8.8506 14.162 9.51375C14.1358 10.3781 14.1284 10.0983 14.0604 10.7106C13.9713 11.7205 13.7634 12.7453 13.4366 13.7849L12.3412 16.9059Z" fill="#171D42"/>
<path d="M22.8132 28.6024C23.3076 27.353 24.4002 26.4135 25.7135 26.1296C27.1138 25.8268 28.5694 26.2909 29.536 27.3483L30.3993 28.2927C31.9371 29.975 31.5604 32.6419 29.6169 33.8325C29.0467 34.1819 28.391 34.3667 27.7223 34.3667H26.6729C23.7265 34.3667 21.729 31.3421 22.8132 28.6024Z" fill="#171D42"/>
<path d="M40.5079 27.1601C36.2744 27.1601 33.2506 24.3781 33.2506 20.4592C33.2506 16.5402 36.2744 13.7583 40.5079 13.7583C43.2414 13.7583 45.3944 14.9436 46.3379 17.0724L43.4108 18.6449C42.7092 17.4111 41.669 16.8547 40.4837 16.8547C38.5726 16.8547 37.0727 18.1852 37.0727 20.4592C37.0727 22.7331 38.5726 24.0636 40.4837 24.0636C41.669 24.0636 42.7092 23.5314 43.4108 22.2735L46.3379 23.8701C45.3944 25.9505 43.2414 27.1601 40.5079 27.1601ZM60.8521 20.5076C60.8521 20.7978 60.8037 21.2091 60.7795 21.5236H50.9338C51.2967 23.1444 52.6755 24.1362 54.6592 24.1362C56.0381 24.1362 57.0299 23.725 57.925 22.8783L59.9328 25.0555C58.7233 26.4344 56.909 27.1601 54.5624 27.1601C50.0629 27.1601 47.1358 24.3297 47.1358 20.4592C47.1358 16.5644 50.1113 13.7583 54.0786 13.7583C57.9008 13.7583 60.8521 16.3225 60.8521 20.5076ZM54.1028 16.6128C52.3852 16.6128 51.1515 17.653 50.8854 19.3222H57.296C57.0299 17.6772 55.7962 16.6128 54.1028 16.6128ZM104.37 26.9666H100.277L103.263 22.127C103.65 21.5092 103.83 21.0458 103.83 20.6082C103.83 20.1963 103.675 19.7844 103.341 19.2438L100.277 14.2241H104.396L106.558 17.8023C106.764 18.1369 106.945 18.5231 107.048 18.9092H108.103C108.206 18.5231 108.386 18.1369 108.592 17.8023L110.754 14.2241H114.873L111.81 19.2438C111.475 19.7844 111.321 20.1963 111.321 20.6082C111.321 21.0458 111.501 21.5092 111.887 22.127L114.873 26.9666H110.78L108.592 23.4398C108.36 23.0537 108.155 22.6161 108.026 22.1785H107.125C106.996 22.6161 106.79 23.0537 106.558 23.4398L104.37 26.9666Z" fill="#171D42"/>
<path d="M79.6451 14.1453C82.7415 14.1453 84.7736 15.9355 84.7736 19.5883V26.9666H83.056V19.7576C83.056 17.0724 81.7013 15.6935 79.4032 15.6935C76.7906 15.6935 75.1456 17.3869 75.1456 20.2898V26.9666H73.428V19.7576C73.428 17.0724 72.0733 15.6935 69.751 15.6935C67.1625 15.6935 65.4934 17.3869 65.4934 20.2898V26.9666H63.7758V14.2421H65.4208V16.5644C66.3159 15.0404 67.9608 14.1453 70.0897 14.1453C72.1943 14.1453 73.8393 15.0404 74.6134 16.8305C75.5326 15.1855 77.347 14.1453 79.6451 14.1453ZM93.1626 25.0555L97.9524 14.2421H99.6458L93.2835 28.4906C92.2191 30.9823 90.8644 31.7806 89.0501 31.7806C87.8647 31.7806 86.7278 31.3935 85.9537 30.6194L86.752 29.3373C87.3809 29.9662 88.155 30.3049 89.0743 30.3049C90.2113 30.3049 90.9854 29.7727 91.7111 28.1761L92.2675 26.9424L86.5826 14.2421H88.3728L93.1626 25.0555Z" fill="#FF7440"/>
</svg>
