<svg width="167" height="46" viewBox="0 0 167 46" fill="none" xmlns="http://www.w3.org/2000/svg">
<g filter="url(#filter0_d_278_94)">
<path d="M52.4021 6.91196C53.6175 6.91196 54.7511 7.14569 55.8029 7.61317C56.8781 8.05726 57.813 8.67666 58.6077 9.47137C59.4024 10.2661 60.0218 11.201 60.4659 12.2762C60.9334 13.328 61.1672 14.4616 61.1672 15.6771V29H56.6794V24.5824H48.1247V29H43.637V15.6771C43.637 14.4616 43.859 13.328 44.3031 12.2762C44.7706 11.201 45.4017 10.2661 46.1964 9.47137C46.9911 8.67666 47.9143 8.05726 48.9661 7.61317C50.0413 7.14569 51.1866 6.91196 52.4021 6.91196ZM56.6794 15.6771C56.6794 15.0927 56.5626 14.5434 56.3288 14.0292C56.1185 13.4916 55.8146 13.0358 55.4173 12.6619C55.0433 12.2645 54.5875 11.9607 54.0499 11.7503C53.5357 11.5166 52.9864 11.3997 52.4021 11.3997C51.8177 11.3997 51.2568 11.5166 50.7192 11.7503C50.2049 11.9607 49.7492 12.2645 49.3518 12.6619C48.9778 13.0358 48.674 13.4916 48.4402 14.0292C48.2299 14.5434 48.1247 15.0927 48.1247 15.6771V20.0947H56.6794V15.6771ZM80.0929 20.7608C80.0228 21.9061 79.7423 22.9813 79.2515 23.9864C78.784 24.9914 78.1529 25.8679 77.3582 26.6159C76.5635 27.3405 75.6519 27.9248 74.6235 28.3689C73.5951 28.7896 72.4965 29 71.3278 29C70.1124 29 68.9671 28.778 67.8919 28.3339C66.8401 27.8664 65.9168 27.2353 65.1221 26.4406C64.3274 25.6459 63.6963 24.7226 63.2289 23.6708C62.7848 22.5956 62.5627 21.4503 62.5627 20.2349C62.5627 19.0195 62.7848 17.8859 63.2289 16.834C63.6963 15.7589 64.3274 14.8239 65.1221 14.0292C65.9168 13.2345 66.8401 12.6151 67.8919 12.171C68.9671 11.7035 70.1124 11.4698 71.3278 11.4698C72.4965 11.4698 73.5951 11.6919 74.6235 12.136C75.6519 12.5567 76.5635 13.141 77.3582 13.889C78.1529 14.6136 78.784 15.4784 79.2515 16.4834C79.7423 17.4885 80.0228 18.5637 80.0929 19.709H75.5701C75.5 19.1948 75.3364 18.7039 75.0793 18.2365C74.8455 17.769 74.5417 17.3716 74.1677 17.0444C73.7937 16.7172 73.3613 16.4601 72.8705 16.2731C72.3796 16.0627 71.8654 15.9575 71.3278 15.9575C70.7435 15.9575 70.1825 16.0744 69.6449 16.3081C69.1307 16.5185 68.6749 16.8224 68.2776 17.2197C67.9036 17.5937 67.5997 18.0495 67.366 18.5871C67.1556 19.1013 67.0505 19.6506 67.0505 20.2349C67.0505 20.8192 67.1556 21.3802 67.366 21.9178C67.5997 22.432 67.9036 22.8878 68.2776 23.2852C68.6749 23.6591 69.1307 23.963 69.6449 24.1967C70.1825 24.4071 70.7435 24.5123 71.3278 24.5123C71.8654 24.5123 72.3796 24.4188 72.8705 24.2318C73.3613 24.0214 73.7937 23.7526 74.1677 23.4254C74.5417 23.0982 74.8455 22.7125 75.0793 22.2684C75.3364 21.8009 75.5 21.2984 75.5701 20.7608H80.0929ZM95.6178 27.1769C94.8699 27.7612 94.0401 28.217 93.1285 28.5442C92.217 28.8481 91.2586 29 90.2536 29C89.0382 29 87.8928 28.778 86.8177 28.3339C85.7659 27.8664 84.8426 27.2353 84.0479 26.4406C83.2532 25.6459 82.6221 24.7226 82.1546 23.6708C81.7105 22.5956 81.4885 21.4503 81.4885 20.2349C81.4885 19.0195 81.7105 17.8859 82.1546 16.834C82.6221 15.7589 83.2532 14.8239 84.0479 14.0292C84.8426 13.2345 85.7659 12.6151 86.8177 12.171C87.8928 11.7035 89.0382 11.4698 90.2536 11.4698C91.469 11.4698 92.6026 11.7035 93.6544 12.171C94.7296 12.6151 95.6646 13.2345 96.4593 14.0292C97.254 14.8239 97.8734 15.7589 98.3175 16.834C98.7849 17.8859 99.0187 19.0195 99.0187 20.2349C99.0187 20.6089 98.9953 20.9712 98.9486 21.3218C98.9018 21.6724 98.8434 22.0113 98.7733 22.3385H86.5372C86.9112 22.993 87.4254 23.5189 88.0798 23.9162C88.7343 24.3136 89.4589 24.5123 90.2536 24.5123C90.7211 24.5123 91.1651 24.4422 91.5859 24.3019C92.0066 24.1617 92.3923 23.963 92.7429 23.7059L95.6178 27.1769ZM90.2536 15.9575C89.5056 15.9575 88.8278 16.1328 88.2201 16.4834C87.6124 16.834 87.1098 17.2898 86.7125 17.8508H93.7947C93.3973 17.2898 92.8948 16.834 92.2871 16.4834C91.6794 16.1328 91.0015 15.9575 90.2536 15.9575ZM119.347 18.0261C119.23 17.4184 118.938 16.9159 118.47 16.5185C118.026 16.1212 117.489 15.9225 116.858 15.9225C116.203 15.9225 115.63 16.1445 115.14 16.5886C114.672 17.0327 114.415 17.582 114.368 18.2365V29H109.881V18.3767C109.857 17.6989 109.6 17.1262 109.109 16.6587C108.642 16.1679 108.069 15.9225 107.391 15.9225C106.76 15.9225 106.211 16.1212 105.743 16.5185C105.276 16.9159 104.995 17.4184 104.902 18.0261V29H100.414V18.3767C100.414 17.4184 100.601 16.5185 100.975 15.6771C101.349 14.8356 101.852 14.111 102.483 13.5033C103.114 12.8722 103.85 12.3814 104.692 12.0308C105.533 11.6568 106.433 11.4698 107.391 11.4698C108.303 11.4698 109.156 11.6451 109.951 11.9957C110.769 12.3229 111.493 12.7787 112.124 13.3631C112.732 12.7787 113.445 12.3229 114.263 11.9957C115.081 11.6451 115.946 11.4698 116.858 11.4698C117.816 11.4698 118.716 11.6568 119.557 12.0308C120.399 12.3814 121.135 12.8722 121.766 13.5033C122.397 14.111 122.9 14.8356 123.274 15.6771C123.648 16.5185 123.835 17.4184 123.835 18.3767V29H119.347V18.0261ZM125.229 11.4698H129.717V20.2349C129.717 20.8192 129.822 21.3802 130.032 21.9178C130.266 22.432 130.57 22.8878 130.944 23.2852C131.341 23.6591 131.797 23.963 132.311 24.1967C132.849 24.4071 133.41 24.5123 133.994 24.5123C134.578 24.5123 135.128 24.4071 135.642 24.1967C136.18 23.963 136.635 23.6591 137.009 23.2852C137.407 22.8878 137.711 22.432 137.921 21.9178C138.155 21.3802 138.272 20.8192 138.272 20.2349V11.4698H142.759V29C142.759 30.2154 142.526 31.349 142.058 32.4009C141.614 33.476 140.995 34.411 140.2 35.2057C139.405 36.0004 138.47 36.6198 137.395 37.0639C136.343 37.5314 135.21 37.7651 133.994 37.7651C132.779 37.7651 131.633 37.5314 130.558 37.0639C129.506 36.6198 128.583 36.0004 127.788 35.2057C126.994 34.411 126.363 33.476 125.895 32.4009C125.451 31.349 125.229 30.2154 125.229 29H129.717C129.717 29.5843 129.822 30.1336 130.032 30.6478C130.266 31.1854 130.57 31.6412 130.944 32.0152C131.341 32.4125 131.797 32.7164 132.311 32.9268C132.849 33.1605 133.41 33.2774 133.994 33.2774C134.578 33.2774 135.128 33.1605 135.642 32.9268C136.18 32.7164 136.635 32.4125 137.009 32.0152C137.407 31.6412 137.711 31.1854 137.921 30.6478C138.155 30.1336 138.272 29.5843 138.272 29V27.9131C136.963 28.6377 135.537 29 133.994 29C132.779 29 131.633 28.778 130.558 28.3339C129.506 27.8664 128.583 27.2353 127.788 26.4406C126.994 25.6459 126.363 24.7226 125.895 23.6708C125.451 22.5956 125.229 21.4503 125.229 20.2349V11.4698ZM158.179 18.0962C159.465 19.0779 160.493 20.2933 161.264 21.7425C162.036 23.1917 162.456 24.7811 162.526 26.5107V29H157.934V26.8964C157.934 26.2185 157.828 25.5758 157.618 24.9681C157.431 24.337 157.151 23.7643 156.777 23.2501C156.426 22.7125 155.994 22.245 155.479 21.8477C154.988 21.4503 154.451 21.1348 153.867 20.9011C152.674 21.3685 151.693 22.1399 150.921 23.215C150.15 24.2902 149.764 25.5173 149.764 26.8964V29H145.207V26.8964C145.207 25.12 145.592 23.4721 146.364 21.9529C147.135 20.4336 148.175 19.1714 149.484 18.1663C148.152 17.1379 147.1 15.8757 146.329 14.3798C145.557 12.8605 145.16 11.201 145.136 9.40125V6.91196H149.729V9.36619C149.729 10.044 149.823 10.6985 150.01 11.3296C150.22 11.9373 150.501 12.5099 150.851 13.0475C151.225 13.5617 151.658 14.0175 152.149 14.4149C152.639 14.8122 153.189 15.1278 153.796 15.3615C154.988 14.894 155.97 14.1227 156.741 13.0475C157.513 11.9723 157.898 10.7452 157.898 9.36619V6.91196H162.456V9.36619H162.491C162.491 11.1426 162.106 12.7904 161.334 14.3097C160.563 15.829 159.511 17.0912 158.179 18.0962Z" fill="white"/>
<path d="M8.14095 23.2689C7.65779 14.6241 7.94773 4.82661 16.836 4.05819C25.7243 3.28976 28.4293 10.3016 27.9464 15.1044C27.4635 19.9071 17.8021 26.1504 17.8021 23.2689C17.8021 20.3874 17.8021 12.7031 17.8021 12.7031" stroke="white" stroke-width="7" stroke-linecap="round"/>
<path d="M26.5004 26C27.3338 25.3748 28.0805 24.547 28.7403 23.7337C29.7225 22.5233 31.2946 22.9812 31.3982 24.5365C31.9912 33.436 28.2377 32.9475 26.0004 32.5C23.5005 32 24.5008 27.5 26.5004 26Z" fill="white" stroke="white"/>
<path d="M6.06226 33C5.52721 32.6428 5.23467 31.5712 5.09829 30.3631C4.91235 28.716 6.53329 27.8936 8.18983 27.8352C9.70316 27.7818 11.4221 28.3865 11.216 29.8867C10.8198 32.7723 8.75519 34.7977 6.06226 33Z" fill="white" stroke="white" stroke-linejoin="round"/>
</g>
<defs>
<filter id="filter0_d_278_94" x="0" y="0" width="168.637" height="46" filterUnits="userSpaceOnUse" color-interpolation-filters="sRGB">
<feFlood flood-opacity="0" result="BackgroundImageFix"/>
<feColorMatrix in="SourceAlpha" type="matrix" values="0 0 0 0 0 0 0 0 0 0 0 0 0 0 0 0 0 0 127 0" result="hardAlpha"/>
<feOffset dy="4"/>
<feGaussianBlur stdDeviation="2"/>
<feComposite in2="hardAlpha" operator="out"/>
<feColorMatrix type="matrix" values="0 0 0 0 0 0 0 0 0 0 0 0 0 0 0 0 0 0 0.25 0"/>
<feBlend mode="normal" in2="BackgroundImageFix" result="effect1_dropShadow_278_94"/>
<feBlend mode="normal" in="SourceGraphic" in2="effect1_dropShadow_278_94" result="shape"/>
</filter>
</defs>
</svg>
