<svg width="158" height="37" viewBox="0 0 158 37" fill="none" xmlns="http://www.w3.org/2000/svg">
<path d="M45.4021 5.91196C46.6175 5.91196 47.7511 6.14569 48.8029 6.61317C49.8781 7.05726 50.813 7.67666 51.6077 8.47137C52.4024 9.26607 53.0218 10.201 53.4659 11.2762C53.9334 12.328 54.1672 13.4616 54.1672 14.6771V28H49.6794V23.5824H41.1247V28H36.637V14.6771C36.637 13.4616 36.859 12.328 37.3031 11.2762C37.7706 10.201 38.4017 9.26607 39.1964 8.47137C39.9911 7.67666 40.9143 7.05726 41.9661 6.61317C43.0413 6.14569 44.1866 5.91196 45.4021 5.91196ZM49.6794 14.6771C49.6794 14.0927 49.5626 13.5434 49.3288 13.0292C49.1185 12.4916 48.8146 12.0358 48.4173 11.6619C48.0433 11.2645 47.5875 10.9607 47.0499 10.7503C46.5357 10.5166 45.9864 10.3997 45.4021 10.3997C44.8177 10.3997 44.2568 10.5166 43.7192 10.7503C43.2049 10.9607 42.7492 11.2645 42.3518 11.6619C41.9778 12.0358 41.674 12.4916 41.4402 13.0292C41.2299 13.5434 41.1247 14.0927 41.1247 14.6771V19.0947H49.6794V14.6771ZM73.0929 19.7608C73.0228 20.9061 72.7423 21.9813 72.2515 22.9864C71.784 23.9914 71.1529 24.8679 70.3582 25.6159C69.5635 26.3405 68.6519 26.9248 67.6235 27.3689C66.5951 27.7896 65.4965 28 64.3278 28C63.1124 28 61.9671 27.778 60.8919 27.3339C59.8401 26.8664 58.9168 26.2353 58.1221 25.4406C57.3274 24.6459 56.6963 23.7226 56.2289 22.6708C55.7848 21.5956 55.5627 20.4503 55.5627 19.2349C55.5627 18.0195 55.7848 16.8859 56.2289 15.834C56.6963 14.7589 57.3274 13.8239 58.1221 13.0292C58.9168 12.2345 59.8401 11.6151 60.8919 11.171C61.9671 10.7035 63.1124 10.4698 64.3278 10.4698C65.4965 10.4698 66.5951 10.6919 67.6235 11.136C68.6519 11.5567 69.5635 12.141 70.3582 12.889C71.1529 13.6136 71.784 14.4784 72.2515 15.4834C72.7423 16.4885 73.0228 17.5637 73.0929 18.709H68.5701C68.5 18.1948 68.3364 17.7039 68.0793 17.2365C67.8455 16.769 67.5417 16.3716 67.1677 16.0444C66.7937 15.7172 66.3613 15.4601 65.8705 15.2731C65.3796 15.0627 64.8654 14.9575 64.3278 14.9575C63.7435 14.9575 63.1825 15.0744 62.6449 15.3081C62.1307 15.5185 61.6749 15.8224 61.2776 16.2197C60.9036 16.5937 60.5997 17.0495 60.366 17.5871C60.1556 18.1013 60.0505 18.6506 60.0505 19.2349C60.0505 19.8192 60.1556 20.3802 60.366 20.9178C60.5997 21.432 60.9036 21.8878 61.2776 22.2852C61.6749 22.6591 62.1307 22.963 62.6449 23.1967C63.1825 23.4071 63.7435 23.5123 64.3278 23.5123C64.8654 23.5123 65.3796 23.4188 65.8705 23.2318C66.3613 23.0214 66.7937 22.7526 67.1677 22.4254C67.5417 22.0982 67.8455 21.7125 68.0793 21.2684C68.3364 20.8009 68.5 20.2984 68.5701 19.7608H73.0929ZM88.6178 26.1769C87.8699 26.7612 87.0401 27.217 86.1285 27.5442C85.217 27.8481 84.2586 28 83.2536 28C82.0382 28 80.8928 27.778 79.8177 27.3339C78.7659 26.8664 77.8426 26.2353 77.0479 25.4406C76.2532 24.6459 75.6221 23.7226 75.1546 22.6708C74.7105 21.5956 74.4885 20.4503 74.4885 19.2349C74.4885 18.0195 74.7105 16.8859 75.1546 15.834C75.6221 14.7589 76.2532 13.8239 77.0479 13.0292C77.8426 12.2345 78.7659 11.6151 79.8177 11.171C80.8928 10.7035 82.0382 10.4698 83.2536 10.4698C84.469 10.4698 85.6026 10.7035 86.6544 11.171C87.7296 11.6151 88.6646 12.2345 89.4593 13.0292C90.254 13.8239 90.8734 14.7589 91.3175 15.834C91.7849 16.8859 92.0187 18.0195 92.0187 19.2349C92.0187 19.6089 91.9953 19.9712 91.9486 20.3218C91.9018 20.6724 91.8434 21.0113 91.7733 21.3385H79.5372C79.9112 21.993 80.4254 22.5189 81.0798 22.9162C81.7343 23.3136 82.4589 23.5123 83.2536 23.5123C83.7211 23.5123 84.1651 23.4422 84.5859 23.3019C85.0066 23.1617 85.3923 22.963 85.7429 22.7059L88.6178 26.1769ZM83.2536 14.9575C82.5056 14.9575 81.8278 15.1328 81.2201 15.4834C80.6124 15.834 80.1098 16.2898 79.7125 16.8508H86.7947C86.3973 16.2898 85.8948 15.834 85.2871 15.4834C84.6794 15.1328 84.0015 14.9575 83.2536 14.9575ZM112.347 17.0261C112.23 16.4184 111.938 15.9159 111.47 15.5185C111.026 15.1212 110.489 14.9225 109.858 14.9225C109.203 14.9225 108.63 15.1445 108.14 15.5886C107.672 16.0327 107.415 16.582 107.368 17.2365V28H102.881V17.3767C102.857 16.6989 102.6 16.1262 102.109 15.6587C101.642 15.1679 101.069 14.9225 100.391 14.9225C99.7602 14.9225 99.2109 15.1212 98.7434 15.5185C98.2759 15.9159 97.9955 16.4184 97.902 17.0261V28H93.4142V17.3767C93.4142 16.4184 93.6012 15.5185 93.9752 14.6771C94.3492 13.8356 94.8517 13.111 95.4828 12.5033C96.1139 11.8722 96.8502 11.3814 97.6916 11.0308C98.5331 10.6568 99.4329 10.4698 100.391 10.4698C101.303 10.4698 102.156 10.6451 102.951 10.9957C103.769 11.3229 104.493 11.7787 105.124 12.3631C105.732 11.7787 106.445 11.3229 107.263 10.9957C108.081 10.6451 108.946 10.4698 109.858 10.4698C110.816 10.4698 111.716 10.6568 112.557 11.0308C113.399 11.3814 114.135 11.8722 114.766 12.5033C115.397 13.111 115.9 13.8356 116.274 14.6771C116.648 15.5185 116.835 16.4184 116.835 17.3767V28H112.347V17.0261ZM118.229 10.4698H122.717V19.2349C122.717 19.8192 122.822 20.3802 123.032 20.9178C123.266 21.432 123.57 21.8878 123.944 22.2852C124.341 22.6591 124.797 22.963 125.311 23.1967C125.849 23.4071 126.41 23.5123 126.994 23.5123C127.578 23.5123 128.128 23.4071 128.642 23.1967C129.18 22.963 129.635 22.6591 130.009 22.2852C130.407 21.8878 130.711 21.432 130.921 20.9178C131.155 20.3802 131.272 19.8192 131.272 19.2349V10.4698H135.759V28C135.759 29.2154 135.526 30.349 135.058 31.4009C134.614 32.476 133.995 33.411 133.2 34.2057C132.405 35.0004 131.47 35.6198 130.395 36.0639C129.343 36.5314 128.21 36.7651 126.994 36.7651C125.779 36.7651 124.633 36.5314 123.558 36.0639C122.506 35.6198 121.583 35.0004 120.788 34.2057C119.994 33.411 119.363 32.476 118.895 31.4009C118.451 30.349 118.229 29.2154 118.229 28H122.717C122.717 28.5843 122.822 29.1336 123.032 29.6478C123.266 30.1854 123.57 30.6412 123.944 31.0152C124.341 31.4125 124.797 31.7164 125.311 31.9268C125.849 32.1605 126.41 32.2774 126.994 32.2774C127.578 32.2774 128.128 32.1605 128.642 31.9268C129.18 31.7164 129.635 31.4125 130.009 31.0152C130.407 30.6412 130.711 30.1854 130.921 29.6478C131.155 29.1336 131.272 28.5843 131.272 28V26.9131C129.963 27.6377 128.537 28 126.994 28C125.779 28 124.633 27.778 123.558 27.3339C122.506 26.8664 121.583 26.2353 120.788 25.4406C119.994 24.6459 119.363 23.7226 118.895 22.6708C118.451 21.5956 118.229 20.4503 118.229 19.2349V10.4698ZM151.179 17.0962C152.465 18.0779 153.493 19.2933 154.264 20.7425C155.036 22.1917 155.456 23.7811 155.526 25.5107V28H150.934V25.8964C150.934 25.2185 150.828 24.5758 150.618 23.9681C150.431 23.337 150.151 22.7643 149.777 22.2501C149.426 21.7125 148.994 21.245 148.479 20.8477C147.988 20.4503 147.451 20.1348 146.867 19.9011C145.674 20.3685 144.693 21.1399 143.921 22.215C143.15 23.2902 142.764 24.5173 142.764 25.8964V28H138.207V25.8964C138.207 24.12 138.592 22.4721 139.364 20.9529C140.135 19.4336 141.175 18.1714 142.484 17.1663C141.152 16.1379 140.1 14.8757 139.329 13.3798C138.557 11.8605 138.16 10.201 138.136 8.40125V5.91196H142.729V8.36619C142.729 9.04402 142.823 9.69848 143.01 10.3296C143.22 10.9373 143.501 11.5099 143.851 12.0475C144.225 12.5617 144.658 13.0175 145.149 13.4149C145.639 13.8122 146.189 14.1278 146.796 14.3615C147.988 13.894 148.97 13.1227 149.741 12.0475C150.513 10.9723 150.898 9.74523 150.898 8.36619V5.91196H155.456V8.36619H155.491C155.491 10.1426 155.106 11.7904 154.334 13.3097C153.563 14.829 152.511 16.0912 151.179 17.0962Z" fill="#030712"/>
<path d="M13.7584 24.7887C12.3045 24.817 11.0846 23.7271 11.0608 22.3207L11.1929 9.85642C11.1691 8.45007 12.3513 7.31334 13.8052 7.28505C15.3222 7.25552 16.5421 8.3455 16.5659 9.75185L16.3843 19.2863C16.6361 19.2227 16.887 19.1006 17.1379 18.9785C18.7695 18.2433 20.1383 16.9271 20.871 15.3888C20.9935 15.152 21.1159 14.9151 21.1752 14.6795C21.4774 13.853 21.6531 13.0289 21.6382 12.15C21.6233 11.271 21.725 11.6664 21.4472 10.4775C21.379 10.1857 21.2486 9.95379 21.1182 9.72186C20.3339 8.21309 18.9224 7.0096 17.266 6.27982C17.0111 6.16754 16.7563 6.05527 16.5024 6.00159C15.6125 5.72583 14.7256 5.62585 13.7774 5.64431C12.8292 5.66276 11.9462 5.79718 11.1294 6.10616C10.8143 6.17091 10.5635 6.29303 10.3126 6.41515C8.68197 7.2089 8.18942 8.17003 7.39346 9.70956C7.271 9.94641 7.21176 10.182 7.0903 10.4775C6.78713 11.2454 6.6746 12.0682 6.68948 12.9472L6.38878 21.8163C6.4116 23.1641 4.41535 24.5961 2.96146 24.6243C1.44437 24.6539 0.224481 23.5639 0.20166 22.2161L0.502361 13.347C0.48847 12.5267 0.5368 11.6465 0.713539 10.881C0.770798 10.5282 0.89127 10.1741 0.949521 9.87993C1.3672 8.40637 2.10293 7.04386 3.03127 5.85345C3.77394 4.90112 4.70725 4.00371 5.70674 3.28085C6.9561 2.37728 8.39807 1.64581 9.97143 1.20487C10.2865 1.14012 10.6638 1.01554 11.0421 0.949564C11.8609 0.757778 12.8081 0.680726 13.693 0.663503C14.6412 0.645049 15.5272 0.686423 16.4151 0.844993C16.7322 0.897439 17.1134 1.00725 17.4937 1.05847C19.0178 1.43913 20.4835 2.114 21.8259 2.96713C22.8492 3.65062 23.749 4.51236 24.5235 5.43517C25.4915 6.58867 26.2728 7.92165 26.7401 9.37798C26.8715 9.66851 26.9407 10.0189 27.0099 10.3692C27.0113 11.4965 27.0114 11.2809 27.0113 12.0454C27.0262 12.9244 26.9159 14.884 26.7401 15.7081C26.6819 16.0023 26.6246 16.3551 26.5042 16.7091C26.0865 18.1827 25.3475 18.3498 24.4201 19.5988C23.6775 20.5511 22.8064 21.3887 21.8069 22.1116C20.4943 23.0164 19.0524 23.7478 17.5422 24.1875C17.1649 24.3121 16.7866 24.3781 16.4716 24.4429C15.5896 24.6359 14.7066 24.7703 13.7584 24.7887Z" fill="#030712"/>
<path d="M6.5 28.2908C6.50001 31.0919 4.71851 31.492 3.03532 31.492C0.72093 31.492 0.211555 30.2916 0.211628 28.2908C0.211827 22.8824 -0.120456 25.4896 3.03535 25.4896C5.77074 25.4896 6.49999 22.6884 6.5 28.2908Z" fill="#030712"/>
<path d="M20.9801 24.7892C23.3608 21.2182 26.2619 19.8003 26.2619 18.464C26.2619 17.9916 26.2619 24.9643 26.2619 29.0482C26.2619 30.6264 24.9825 31.9025 23.4043 31.9025C22.1755 31.9025 21.077 31.1169 20.8185 29.9157C20.4617 28.2579 20.1857 25.9808 20.9801 24.7892Z" fill="#030712"/>
</svg>
