<svg width="38" height="38" viewBox="0 0 38 38" fill="none" xmlns="http://www.w3.org/2000/svg">
<rect x="0.341797" width="37.6582" height="37.6582" rx="18.8291" fill="#FF7340"/>
<path fill-rule="evenodd" clip-rule="evenodd" d="M15.3519 12.7281C15.3613 12.6234 15.3913 12.5217 15.4401 12.4286C15.4889 12.3355 15.5555 12.253 15.6362 12.1857C15.7168 12.1184 15.81 12.0676 15.9103 12.0363C16.0106 12.005 16.116 11.9938 16.2207 12.0033L24.5183 12.7585C24.7296 12.7775 24.9247 12.8798 25.0606 13.0427C25.1965 13.2057 25.2622 13.4159 25.2431 13.6273C25.224 13.8386 25.1217 14.0337 24.9588 14.1696C24.7959 14.3055 24.5856 14.3711 24.3743 14.3521L16.0767 13.5969C15.972 13.5874 15.8703 13.5574 15.7772 13.5087C15.6842 13.4599 15.6016 13.3933 15.5343 13.3126C15.467 13.2319 15.4163 13.1388 15.385 13.0385C15.3537 12.9382 15.3424 12.8327 15.3519 12.7281Z" fill="white"/>
<path fill-rule="evenodd" clip-rule="evenodd" d="M25.2718 22.648C25.1671 22.6574 25.0617 22.6462 24.9614 22.6149C24.8611 22.5836 24.7679 22.5328 24.6873 22.4655C24.6066 22.3982 24.54 22.3157 24.4912 22.2226C24.4424 22.1296 24.4124 22.0278 24.403 21.9232L23.6478 13.6272C23.6287 13.4159 23.6943 13.2056 23.8302 13.0427C23.9662 12.8797 24.1613 12.7775 24.3726 12.7584C24.5839 12.7393 24.7942 12.8049 24.9571 12.9408C25.12 13.0768 25.2223 13.2719 25.2414 13.4832L25.9966 21.7792C26.006 21.8838 25.9948 21.9893 25.9635 22.0896C25.9322 22.1899 25.8814 22.283 25.8141 22.3637C25.7468 22.4444 25.6643 22.511 25.5712 22.5598C25.4782 22.6086 25.3764 22.6385 25.2718 22.648Z" fill="white"/>
<path fill-rule="evenodd" clip-rule="evenodd" d="M24.1552 13.8448C24.2297 13.9191 24.2888 14.0074 24.3291 14.1046C24.3694 14.2018 24.3902 14.306 24.3902 14.4112C24.3902 14.5165 24.3694 14.6206 24.3291 14.7178C24.2888 14.815 24.2297 14.9033 24.1552 14.9776L13.6976 25.4336C13.5467 25.5794 13.3446 25.66 13.1348 25.6582C12.9251 25.6563 12.7244 25.5722 12.5761 25.4239C12.4278 25.2756 12.3436 25.0749 12.3418 24.8651C12.34 24.6554 12.4206 24.4533 12.5664 24.3024L23.0224 13.8448C23.1724 13.6948 23.3758 13.6106 23.588 13.6106C23.8001 13.6106 24.0035 13.6948 24.1536 13.8448" fill="white"/>
</svg>
