<svg width="215" height="69" viewBox="0 0 215 69" fill="none" xmlns="http://www.w3.org/2000/svg">
<path d="M37.0244 15.1621L36.0244 10.6621L3.52444 11.6621L31.5244 15.1621L13.0244 34.6621C13.0244 34.6621 21.0244 33.2927 29.0244 38.1621C37.0244 43.0315 35.5244 60.1621 21.0244 61.6621C6.52444 63.1621 1.02444 49.1621 1.02444 49.1621C1.02444 49.1621 -0.475525 64.1621 20.0244 64.1621C40.5244 64.1621 45.2304 35.5635 22.0244 30.6621L37.0244 15.1621Z" fill="#616161" stroke="#616161"/>
<path d="M54.0244 10.6621C63.5244 23.1621 60.0244 35.6621 51.0244 43.6621" stroke="#616161"/>
<path d="M76.5241 19.0063C65.5245 24.1616 58.5244 24.1619 48.0244 21.6618" stroke="#616161"/>
<path d="M76.5241 25.4033C65.5245 30.5587 58.5244 30.559 48.0244 28.0589" stroke="#616161"/>
<path d="M76.5241 32.4033C65.5245 37.5587 58.5244 37.559 48.0244 35.0589" stroke="#616161"/>
<path d="M62.5244 12.6621C69.0244 26.1621 68.0244 35.6621 59.0244 43.6621" stroke="#616161"/>
<path d="M68.5244 12.6621C75.0244 26.1621 74.0244 35.6621 65.0244 43.6621" stroke="#616161" stroke-width="0.5"/>
<path d="M62.025 4.6648C37.025 7.1648 42.5253 40.1648 42.5253 40.1648C35.0249 32.6652 38.5244 -8.83789 70.5251 3.16337C71.0251 3.66337 80.0244 6.16211 83.0244 16.6621C83.6652 18.9047 85.0244 24.1621 84.5244 31.6621C84.0244 35.6621 84.0238 48.8289 67.0244 51.6621C63.0244 52.3288 57.8583 50.6648 55.525 49.6648C58.6917 49.8315 60.5244 51.4468 66.525 50.1648C67.9919 49.8514 74.0244 47.6621 77.525 42.1648C79.9271 38.3925 83.025 32.1648 80.025 18.6648C77.625 7.8648 67.025 4.83147 62.025 4.6648Z" fill="#616161" stroke="#616161"/>
<path d="M98.8946 18.1415V27.5029H97.359V21.0914L94.5034 27.5029H93.4393L90.5703 21.0914V27.5029H89.0347V18.1415H90.6915L93.9781 25.4825L97.2513 18.1415H98.8946ZM107.715 23.6102C107.715 23.8886 107.697 24.14 107.661 24.3645H101.99C102.035 24.9572 102.255 25.4331 102.65 25.7923C103.045 26.1515 103.53 26.3311 104.105 26.3311C104.931 26.3311 105.515 25.9853 105.856 25.2939H107.513C107.288 25.9764 106.88 26.5376 106.287 26.9776C105.703 27.4086 104.976 27.6242 104.105 27.6242C103.396 27.6242 102.758 27.467 102.192 27.1527C101.636 26.8294 101.196 26.3805 100.872 25.8057C100.558 25.2221 100.401 24.5486 100.401 23.7853C100.401 23.022 100.554 22.353 100.859 21.7783C101.173 21.1946 101.609 20.7456 102.165 20.4313C102.731 20.117 103.378 19.9599 104.105 19.9599C104.805 19.9599 105.43 20.1126 105.977 20.4179C106.525 20.7232 106.952 21.1542 107.257 21.711C107.562 22.2587 107.715 22.8918 107.715 23.6102ZM106.112 23.1253C106.103 22.5596 105.901 22.1061 105.506 21.7648C105.111 21.4236 104.621 21.253 104.038 21.253C103.508 21.253 103.054 21.4236 102.677 21.7648C102.3 22.0971 102.076 22.5506 102.004 23.1253H106.112ZM110.762 17.5354V27.5029H109.226V17.5354H110.762ZM114.569 21.3338V25.4421C114.569 25.7204 114.632 25.9225 114.758 26.0482C114.892 26.1649 115.117 26.2233 115.431 26.2233H116.374V27.5029H115.162C114.47 27.5029 113.94 27.3413 113.572 27.018C113.204 26.6947 113.02 26.1694 113.02 25.4421V21.3338H112.145V20.0811H113.02V18.2358H114.569V20.0811H116.374V21.3338H114.569ZM121.009 27.6242C120.308 27.6242 119.675 27.467 119.109 27.1527C118.544 26.8294 118.099 26.3805 117.776 25.8057C117.453 25.2221 117.291 24.5486 117.291 23.7853C117.291 23.031 117.457 22.362 117.789 21.7783C118.122 21.1946 118.575 20.7456 119.15 20.4313C119.724 20.117 120.366 19.9599 121.076 19.9599C121.785 19.9599 122.427 20.117 123.002 20.4313C123.577 20.7456 124.03 21.1946 124.363 21.7783C124.695 22.362 124.861 23.031 124.861 23.7853C124.861 24.5396 124.69 25.2086 124.349 25.7923C124.008 26.376 123.541 26.8294 122.948 27.1527C122.364 27.467 121.718 27.6242 121.009 27.6242ZM121.009 26.2907C121.404 26.2907 121.772 26.1964 122.113 26.0078C122.463 25.8192 122.746 25.5364 122.962 25.1592C123.177 24.7821 123.285 24.3241 123.285 23.7853C123.285 23.2465 123.182 22.793 122.975 22.4249C122.769 22.0477 122.495 21.7648 122.153 21.5763C121.812 21.3877 121.444 21.2934 121.049 21.2934C120.654 21.2934 120.286 21.3877 119.944 21.5763C119.612 21.7648 119.347 22.0477 119.15 22.4249C118.952 22.793 118.853 23.2465 118.853 23.7853C118.853 24.5845 119.055 25.2041 119.46 25.6441C119.873 26.0751 120.389 26.2907 121.009 26.2907ZM130.123 19.9599C130.707 19.9599 131.228 20.0811 131.686 20.3236C132.153 20.566 132.517 20.9252 132.777 21.4012C133.037 21.8771 133.168 22.4518 133.168 23.1253V27.5029H131.646V23.3543C131.646 22.6898 131.479 22.1824 131.147 21.8322C130.815 21.473 130.361 21.2934 129.787 21.2934C129.212 21.2934 128.754 21.473 128.413 21.8322C128.081 22.1824 127.914 22.6898 127.914 23.3543V27.5029H126.379V20.0811H127.914V20.9297C128.166 20.6244 128.485 20.3864 128.871 20.2158C129.266 20.0452 129.683 19.9599 130.123 19.9599ZM144.134 18.1415V19.3942H140.161V22.1555H143.259V23.4081H140.161V27.5029H138.625V18.1415H144.134ZM148.777 27.6242C148.076 27.6242 147.443 27.467 146.877 27.1527C146.312 26.8294 145.867 26.3805 145.544 25.8057C145.221 25.2221 145.059 24.5486 145.059 23.7853C145.059 23.031 145.225 22.362 145.557 21.7783C145.89 21.1946 146.343 20.7456 146.918 20.4313C147.493 20.117 148.135 19.9599 148.844 19.9599C149.553 19.9599 150.195 20.117 150.77 20.4313C151.345 20.7456 151.798 21.1946 152.131 21.7783C152.463 22.362 152.629 23.031 152.629 23.7853C152.629 24.5396 152.458 25.2086 152.117 25.7923C151.776 26.376 151.309 26.8294 150.716 27.1527C150.133 27.467 149.486 27.6242 148.777 27.6242ZM148.777 26.2907C149.172 26.2907 149.54 26.1964 149.881 26.0078C150.231 25.8192 150.514 25.5364 150.73 25.1592C150.945 24.7821 151.053 24.3241 151.053 23.7853C151.053 23.2465 150.95 22.793 150.743 22.4249C150.537 22.0477 150.263 21.7648 149.922 21.5763C149.58 21.3877 149.212 21.2934 148.817 21.2934C148.422 21.2934 148.054 21.3877 147.713 21.5763C147.38 21.7648 147.115 22.0477 146.918 22.4249C146.72 22.793 146.621 23.2465 146.621 23.7853C146.621 24.5845 146.824 25.2041 147.228 25.6441C147.641 26.0751 148.157 26.2907 148.777 26.2907ZM160.868 20.0811V27.5029H159.333V26.6274C159.09 26.9327 158.772 27.1752 158.376 27.3548C157.99 27.5254 157.577 27.6107 157.137 27.6107C156.554 27.6107 156.028 27.4895 155.561 27.247C155.103 27.0046 154.74 26.6454 154.47 26.1694C154.21 25.6935 154.08 25.1188 154.08 24.4453V20.0811H155.602V24.2163C155.602 24.8808 155.768 25.3927 156.1 25.7519C156.432 26.1021 156.886 26.2772 157.46 26.2772C158.035 26.2772 158.489 26.1021 158.821 25.7519C159.162 25.3927 159.333 24.8808 159.333 24.2163V20.0811H160.868ZM166.639 19.9599C167.223 19.9599 167.743 20.0811 168.201 20.3236C168.668 20.566 169.032 20.9252 169.292 21.4012C169.553 21.8771 169.683 22.4518 169.683 23.1253V27.5029H168.161V23.3543C168.161 22.6898 167.995 22.1824 167.663 21.8322C167.33 21.473 166.877 21.2934 166.302 21.2934C165.727 21.2934 165.27 21.473 164.928 21.8322C164.596 22.1824 164.43 22.6898 164.43 23.3543V27.5029H162.894V20.0811H164.43V20.9297C164.681 20.6244 165 20.3864 165.386 20.2158C165.781 20.0452 166.199 19.9599 166.639 19.9599ZM171.13 23.7584C171.13 23.013 171.283 22.353 171.588 21.7783C171.902 21.2036 172.324 20.7591 172.854 20.4448C173.393 20.1215 173.99 19.9599 174.646 19.9599C175.13 19.9599 175.606 20.0677 176.073 20.2832C176.549 20.4897 176.926 20.7681 177.205 21.1183V17.5354H178.754V27.5029H177.205V26.3849C176.953 26.7441 176.603 27.0405 176.154 27.2739C175.714 27.5074 175.207 27.6242 174.632 27.6242C173.986 27.6242 173.393 27.4625 172.854 27.1392C172.324 26.807 171.902 26.349 171.588 25.7653C171.283 25.1727 171.13 24.5037 171.13 23.7584ZM177.205 23.7853C177.205 23.2734 177.097 22.8289 176.881 22.4518C176.675 22.0746 176.401 21.7873 176.06 21.5897C175.719 21.3922 175.35 21.2934 174.955 21.2934C174.56 21.2934 174.192 21.3922 173.851 21.5897C173.51 21.7783 173.231 22.0612 173.016 22.4383C172.809 22.8065 172.706 23.2465 172.706 23.7584C172.706 24.2702 172.809 24.7192 173.016 25.1053C173.231 25.4915 173.51 25.7878 173.851 25.9943C174.201 26.1919 174.569 26.2907 174.955 26.2907C175.35 26.2907 175.719 26.1919 176.06 25.9943C176.401 25.7968 176.675 25.5094 176.881 25.1323C177.097 24.7461 177.205 24.2971 177.205 23.7853ZM180.259 23.7584C180.259 23.013 180.411 22.353 180.717 21.7783C181.031 21.2036 181.453 20.7591 181.983 20.4448C182.522 20.1215 183.114 19.9599 183.761 19.9599C184.345 19.9599 184.852 20.0766 185.283 20.3101C185.723 20.5346 186.073 20.8175 186.334 21.1587V20.0811H187.883V27.5029H186.334V26.3984C186.073 26.7486 185.719 27.0405 185.27 27.2739C184.821 27.5074 184.309 27.6242 183.734 27.6242C183.096 27.6242 182.513 27.4625 181.983 27.1392C181.453 26.807 181.031 26.349 180.717 25.7653C180.411 25.1727 180.259 24.5037 180.259 23.7584ZM186.334 23.7853C186.334 23.2734 186.226 22.8289 186.01 22.4518C185.804 22.0746 185.53 21.7873 185.189 21.5897C184.847 21.3922 184.479 21.2934 184.084 21.2934C183.689 21.2934 183.321 21.3922 182.98 21.5897C182.638 21.7783 182.36 22.0612 182.145 22.4383C181.938 22.8065 181.835 23.2465 181.835 23.7584C181.835 24.2702 181.938 24.7192 182.145 25.1053C182.36 25.4915 182.638 25.7878 182.98 25.9943C183.33 26.1919 183.698 26.2907 184.084 26.2907C184.479 26.2907 184.847 26.1919 185.189 25.9943C185.53 25.7968 185.804 25.5094 186.01 25.1323C186.226 24.7461 186.334 24.2971 186.334 23.7853ZM191.691 21.3338V25.4421C191.691 25.7204 191.754 25.9225 191.88 26.0482C192.014 26.1649 192.239 26.2233 192.553 26.2233H193.496V27.5029H192.284C191.592 27.5029 191.062 27.3413 190.694 27.018C190.326 26.6947 190.142 26.1694 190.142 25.4421V21.3338H189.266V20.0811H190.142V18.2358H191.691V20.0811H193.496V21.3338H191.691ZM195.692 19.0978C195.414 19.0978 195.181 19.0035 194.992 18.815C194.803 18.6264 194.709 18.3929 194.709 18.1145C194.709 17.8362 194.803 17.6027 194.992 17.4141C195.181 17.2255 195.414 17.1313 195.692 17.1313C195.962 17.1313 196.191 17.2255 196.379 17.4141C196.568 17.6027 196.662 17.8362 196.662 18.1145C196.662 18.3929 196.568 18.6264 196.379 18.815C196.191 19.0035 195.962 19.0978 195.692 19.0978ZM196.447 20.0811V27.5029H194.911V20.0811H196.447ZM201.682 27.6242C200.982 27.6242 200.349 27.467 199.783 27.1527C199.217 26.8294 198.773 26.3805 198.449 25.8057C198.126 25.2221 197.964 24.5486 197.964 23.7853C197.964 23.031 198.131 22.362 198.463 21.7783C198.795 21.1946 199.249 20.7456 199.823 20.4313C200.398 20.117 201.04 19.9599 201.749 19.9599C202.459 19.9599 203.101 20.117 203.676 20.4313C204.25 20.7456 204.704 21.1946 205.036 21.7783C205.368 22.362 205.534 23.031 205.534 23.7853C205.534 24.5396 205.364 25.2086 205.023 25.7923C204.681 26.376 204.214 26.8294 203.622 27.1527C203.038 27.467 202.391 27.6242 201.682 27.6242ZM201.682 26.2907C202.077 26.2907 202.445 26.1964 202.787 26.0078C203.137 25.8192 203.42 25.5364 203.635 25.1592C203.851 24.7821 203.958 24.3241 203.958 23.7853C203.958 23.2465 203.855 22.793 203.649 22.4249C203.442 22.0477 203.168 21.7648 202.827 21.5763C202.486 21.3877 202.118 21.2934 201.722 21.2934C201.327 21.2934 200.959 21.3877 200.618 21.5763C200.286 21.7648 200.021 22.0477 199.823 22.4249C199.626 22.793 199.527 23.2465 199.527 23.7853C199.527 24.5845 199.729 25.2041 200.133 25.6441C200.546 26.0751 201.062 26.2907 201.682 26.2907ZM210.797 19.9599C211.381 19.9599 211.901 20.0811 212.359 20.3236C212.826 20.566 213.19 20.9252 213.45 21.4012C213.711 21.8771 213.841 22.4518 213.841 23.1253V27.5029H212.319V23.3543C212.319 22.6898 212.153 22.1824 211.821 21.8322C211.488 21.473 211.035 21.2934 210.46 21.2934C209.885 21.2934 209.428 21.473 209.086 21.8322C208.754 22.1824 208.588 22.6898 208.588 23.3543V27.5029H207.052V20.0811H208.588V20.9297C208.839 20.6244 209.158 20.3864 209.544 20.2158C209.939 20.0452 210.357 19.9599 210.797 19.9599Z" fill="#616161"/>
<path d="M39.818 56.7535L39.9837 55.6762C40.039 55.3079 40.1372 55.0071 40.2784 54.7738C40.4196 54.5405 40.6682 54.2858 41.0242 54.0096C41.3741 53.7272 41.9204 53.3282 42.6632 52.8125C44.4495 51.5664 45.8399 50.9434 46.8343 50.9434C47.1351 50.9434 47.3469 51.0047 47.4697 51.1275C47.5986 51.2503 47.663 51.4651 47.663 51.7721C47.663 51.9869 47.5802 52.2816 47.4144 52.656C47.2548 53.0305 46.9571 53.6228 46.5213 54.4331C46.0916 55.2434 45.711 55.9708 45.3795 56.6154C45.1094 57.1433 44.8025 57.705 44.4587 58.3004C44.115 58.8897 43.8848 59.2948 43.7681 59.5158C43.6515 59.7368 43.5932 59.9025 43.5932 60.013C43.5932 60.1358 43.6331 60.2432 43.7129 60.3353C43.7927 60.4213 43.8909 60.4642 44.0075 60.4642C44.1671 60.4642 44.3452 60.3783 44.5416 60.2064C44.7442 60.0345 45.137 59.6631 45.7202 59.0923C46.0026 58.8099 46.3034 58.4753 46.6226 58.0886C46.9479 57.7019 47.35 57.2047 47.8288 56.5969C48.3076 55.9892 48.7496 55.4245 49.1547 54.9027C49.4064 54.5774 49.6335 54.2858 49.8361 54.028C50.0387 53.7702 50.2105 53.5737 50.3517 53.4387C50.499 53.2975 50.6157 53.2269 50.7016 53.2269C50.7753 53.2269 50.895 53.319 51.0607 53.5031L51.2817 53.7886C51.4474 54.0218 51.5303 54.1906 51.5303 54.295C51.5303 54.4178 51.3001 54.8689 50.8397 55.6485C50.3855 56.422 49.9988 57.0942 49.6795 57.6651C49.3603 58.2298 48.946 59.0493 48.4365 60.1235C47.9331 61.1916 47.4482 62.3794 46.9817 63.687C48.2278 62.7478 49.081 62.1216 49.5414 61.8086C50.0018 61.4894 50.3364 61.3298 50.5451 61.3298C50.6863 61.3298 50.7569 61.3881 50.7569 61.5047C50.7569 61.6336 50.6893 61.8024 50.5543 62.0111C50.4192 62.2137 50.2382 62.4408 50.011 62.6925C49.7839 62.9381 49.4401 63.2941 48.9798 63.7606C48.5255 64.2333 48.0283 64.7428 47.4881 65.2891C47.1566 65.6267 46.8343 66.0196 46.5213 66.4677C46.2082 66.9158 45.9657 67.2627 45.7939 67.5082C45.622 67.7537 45.4654 67.8949 45.3243 67.9318C45.1155 67.9931 44.9253 67.9471 44.7534 67.7936C44.5815 67.6402 44.4956 67.3977 44.4956 67.0662C44.4956 66.833 44.6122 66.3511 44.8455 65.6206C45.0849 64.8901 45.444 63.9816 45.9228 62.8951C46.2051 62.2444 46.4936 61.6305 46.7883 61.0535C47.0829 60.4704 47.4206 59.832 47.8012 59.1383C48.1879 58.4385 48.5654 57.7755 48.9337 57.1494C49.302 56.5233 49.6151 55.9892 49.8729 55.5473C49.2591 56.3514 48.6483 57.1341 48.0406 57.8952C47.439 58.6503 46.7637 59.4483 46.0148 60.2893C45.2721 61.1241 44.5201 61.9068 43.7589 62.6373C43.4275 62.9503 43.188 63.1621 43.0407 63.2726C42.8995 63.3892 42.7123 63.4476 42.479 63.4476C42.3317 63.4476 42.1875 63.3954 42.0463 63.291C41.9112 63.1928 41.7977 63.0639 41.7056 62.9043C41.6135 62.7386 41.5675 62.5789 41.5675 62.4255C41.5675 62.1677 41.6043 61.9405 41.678 61.7441C41.7578 61.5477 41.8928 61.253 42.0831 60.8602C42.918 59.1721 43.5257 58.0149 43.9063 57.3888C45.269 55.2035 45.9504 53.9789 45.9504 53.7149C45.9504 53.629 45.9197 53.5614 45.8583 53.5123C45.7969 53.4571 45.7202 53.4295 45.6281 53.4295C45.4562 53.4295 45.2506 53.5062 45.0112 53.6597C44.7718 53.807 44.471 54.028 44.1088 54.3226C43.7467 54.6173 43.3047 54.9702 42.7829 55.3815C42.2673 55.7928 41.724 56.1857 41.1531 56.5601C40.926 56.7074 40.6712 56.8824 40.3889 57.085C40.1004 57.2875 39.9346 57.3888 39.8917 57.3888C39.8057 57.3888 39.7627 57.3458 39.7627 57.2599C39.7627 57.1801 39.7812 57.0113 39.818 56.7535ZM52.1104 60.5931V60.8233C52.1104 61.1855 52.1994 61.4679 52.3774 61.6704C52.5554 61.873 52.7887 61.9743 53.0772 61.9743C53.378 61.9743 53.688 61.9037 54.0072 61.7625C54.3326 61.6213 54.6548 61.4341 54.974 61.2008C55.2932 60.9676 55.683 60.6545 56.1434 60.2617V60.8233C55.4498 61.6582 54.7991 62.2996 54.1914 62.7478C53.5837 63.1897 52.9667 63.4107 52.3406 63.4107C51.7943 63.4107 51.3615 63.1989 51.0423 62.7754C50.7231 62.3518 50.5635 61.7717 50.5635 61.0351C50.5635 60.3906 50.7139 59.8074 51.0147 59.2856C51.3155 58.7577 51.8065 58.2022 52.4879 57.619C52.9545 57.22 53.4179 56.9192 53.8783 56.7166C54.3387 56.5141 54.75 56.4128 55.1121 56.4128C55.4007 56.4128 55.6278 56.4803 55.7935 56.6154C55.9654 56.7443 56.0513 56.9407 56.0513 57.2047C56.0513 57.5914 55.9071 57.9781 55.6186 58.3648C55.3301 58.7454 54.8881 59.126 54.2927 59.5066C53.7034 59.8811 52.9759 60.2432 52.1104 60.5931ZM52.2025 59.9946C52.755 59.7798 53.2276 59.5128 53.6205 59.1935C54.0134 58.8743 54.3019 58.5705 54.486 58.282C54.6763 57.9873 54.7715 57.7725 54.7715 57.6374C54.7715 57.4962 54.707 57.4256 54.5781 57.4256C54.4676 57.4256 54.2865 57.4962 54.0348 57.6374C53.7893 57.7786 53.5376 57.9628 53.2798 58.1899C53.0281 58.417 52.801 58.684 52.5984 58.991C52.3958 59.2979 52.2639 59.6325 52.2025 59.9946ZM57.2207 58.6135C58.1538 57.7663 59.0592 57.1371 59.937 56.7259C60.8148 56.3146 61.4932 56.1089 61.972 56.1089C62.1009 56.1089 62.2206 56.1642 62.3311 56.2747C62.4416 56.379 62.5275 56.5018 62.5889 56.643C62.6564 56.7842 62.6902 56.8885 62.6902 56.9561C62.6902 57.0665 62.6472 57.1494 62.5613 57.2047C62.4753 57.2538 62.3249 57.3152 62.1101 57.3888C62.153 57.487 62.2083 57.6129 62.2758 57.7663C62.3433 57.9198 62.3955 58.0456 62.4324 58.1439C62.4692 58.2359 62.4876 58.3188 62.4876 58.3925C62.4876 58.5398 62.3372 58.816 62.0364 59.2212C61.7418 59.6202 61.5331 59.9148 61.4103 60.1051C61.2937 60.2954 61.2353 60.5287 61.2353 60.8049C61.2353 61.2592 61.444 61.4863 61.8615 61.4863C62.2912 61.4863 62.9633 61.0842 63.878 60.2801V60.8417C62.3249 62.5667 61.2139 63.4291 60.5448 63.4291C60.3053 63.4291 60.1335 63.3493 60.0291 63.1897C59.9309 63.0363 59.8818 62.8061 59.8818 62.4991C59.8818 62.0142 60.0567 61.3113 60.4066 60.3906C59.5104 61.385 58.8444 62.094 58.4085 62.5176C57.9727 62.935 57.6136 63.1437 57.3312 63.1437C57.1962 63.1437 57.0274 63.0271 56.8248 62.7938C56.6222 62.5605 56.4411 62.2597 56.2815 61.8914C56.1281 61.517 56.0513 61.1303 56.0513 60.7312C56.0513 60.4427 56.079 60.2033 56.1342 60.013C56.1895 59.8166 56.2969 59.6171 56.4565 59.4145C56.6161 59.212 56.8708 58.9449 57.2207 58.6135ZM61.6313 57.6006C60.0353 58.3311 58.8966 58.9511 58.2152 59.4606C57.5399 59.9701 57.2023 60.4949 57.2023 61.0351C57.2023 61.2315 57.2361 61.3942 57.3036 61.5231C57.3711 61.6459 57.4632 61.7073 57.5798 61.7073C57.6474 61.7073 57.7671 61.6643 57.9389 61.5784C58.5835 61.1978 59.1728 60.7036 59.7068 60.0959C60.2409 59.4821 60.8824 58.6503 61.6313 57.6006ZM63.7122 60.9707V60.3721C64.0437 59.9793 64.2954 59.6447 64.4673 59.3685C64.2708 59.301 64.1266 59.2181 64.0345 59.1199C63.9486 59.0217 63.9056 58.8743 63.9056 58.6779C63.9056 58.4569 63.9977 58.1776 64.1818 57.84C64.366 57.5024 64.5931 57.1862 64.8632 56.8916C65.1333 56.5969 65.3788 56.4067 65.5998 56.3207C65.6858 56.2777 65.7686 56.2563 65.8484 56.2563C65.9712 56.2563 66.0326 56.3146 66.0326 56.4312C66.0326 56.5356 65.9375 56.7473 65.7472 57.0665C67.0117 56.8701 67.8097 56.7719 68.1412 56.7719C68.2701 56.7719 68.3591 56.7842 68.4082 56.8087C68.5126 56.864 68.5985 56.9929 68.666 57.1955C68.7336 57.398 68.7673 57.6006 68.7673 57.8032C68.7673 57.9321 68.709 58.0733 68.5924 58.2267C68.4819 58.3741 68.2885 58.592 68.0123 58.8805C67.6869 59.2304 67.4138 59.611 67.1928 60.0222C66.9718 60.4335 66.8613 60.7435 66.8613 60.9522C66.8613 61.2407 67.0393 61.385 67.3954 61.385C67.7698 61.385 68.4205 61.0044 69.3474 60.2432V60.8602C68.8379 61.3942 68.4174 61.8147 68.0859 62.1216C67.7545 62.4286 67.4475 62.6741 67.1652 62.8583C66.8828 63.0363 66.6311 63.1253 66.4101 63.1253C66.1523 63.1253 65.9375 63.0086 65.7656 62.7754C65.5937 62.536 65.5078 62.1922 65.5078 61.7441C65.5078 61.4802 65.5753 61.1794 65.7103 60.8417C65.8454 60.5041 66.0418 60.1389 66.2996 59.746C66.5636 59.347 66.8582 58.9511 67.1836 58.5582C67.0117 58.595 66.8183 58.6349 66.6035 58.6779C66.3886 58.7147 66.1615 58.7546 65.9221 58.7976C65.6827 58.8406 65.4985 58.8743 65.3696 58.8989C64.9891 59.6601 64.4366 60.3507 63.7122 60.9707ZM69.2737 60.5195V60.2985C70.8575 58.6288 71.9471 57.4594 72.5425 56.7903C72.6776 56.0353 73.0029 55.6578 73.5185 55.6578C73.6475 55.6578 73.7856 55.6946 73.9329 55.7682L73.9881 55.9432C73.9636 56.0169 73.9513 56.1212 73.9513 56.2563C73.9513 56.3729 73.9943 56.5908 74.0802 56.91C74.1723 57.2231 74.2429 57.487 74.292 57.7019C74.3411 57.9167 74.3657 58.1592 74.3657 58.4293C74.3657 58.8344 74.2736 59.2242 74.0894 59.5987C73.9053 59.967 73.6382 60.323 73.2883 60.6668C72.9385 61.0044 72.4873 61.3512 71.9348 61.7073C72.1558 61.7441 72.3307 61.7625 72.4596 61.7625C72.7113 61.7625 72.9814 61.7011 73.2699 61.5784C73.5646 61.4495 73.8623 61.2806 74.1631 61.0719C74.47 60.8571 74.8261 60.5809 75.2312 60.2432V60.8602C74.4455 61.6275 73.7426 62.2106 73.1226 62.6096C72.5026 63.0025 71.9686 63.1989 71.5205 63.1989C70.9434 63.1989 70.4094 62.9534 69.9183 62.4623C69.6298 62.1677 69.4487 61.8853 69.375 61.6152C69.3075 61.3451 69.2737 60.9799 69.2737 60.5195ZM72.7083 59.1107L72.5425 57.7663C72.1619 58.196 71.3486 59.0217 70.1024 60.2432C70.4708 60.323 70.7224 60.4305 70.8575 60.5655C70.9925 60.7006 71.1828 60.9614 71.4284 61.3482C71.8458 61.1763 72.165 60.943 72.386 60.6484C72.6131 60.3476 72.7267 59.9394 72.7267 59.4237C72.7267 59.3624 72.7236 59.3071 72.7175 59.258C72.7175 59.2089 72.7144 59.1598 72.7083 59.1107Z" fill="#616161"/>
<path d="M89.9584 38.847C90.4584 38.847 90.8904 38.9414 91.2545 39.13C91.6229 39.3142 91.9036 39.5794 92.0966 39.9259C92.294 40.2724 92.3926 40.6804 92.3926 41.1497C92.3926 41.619 92.294 42.0269 92.0966 42.3734C91.9036 42.7155 91.6229 42.9786 91.2545 43.1628C90.8904 43.3426 90.4584 43.4325 89.9584 43.4325H88.5308V38.847H89.9584ZM89.9584 42.9392C90.5505 42.9392 91.0023 42.7834 91.3137 42.472C91.6251 42.1562 91.7808 41.7155 91.7808 41.1497C91.7808 40.5795 91.6229 40.1344 91.3071 39.8142C90.9957 39.494 90.5461 39.3339 89.9584 39.3339H89.1295V42.9392H89.9584ZM96.4718 41.4917C96.4718 41.6058 96.4652 41.7264 96.4521 41.8536H93.5705C93.5924 42.2088 93.713 42.4874 93.9323 42.6892C94.156 42.8866 94.4257 42.9851 94.7415 42.9851C95.0003 42.9851 95.2152 42.9259 95.3863 42.8075C95.5617 42.6847 95.6845 42.5225 95.7547 42.3208H96.3994C96.3029 42.6673 96.1099 42.9501 95.8205 43.1694C95.531 43.3843 95.1713 43.4917 94.7415 43.4917C94.3994 43.4917 94.0924 43.4151 93.8205 43.2616C93.5529 43.1081 93.3424 42.8909 93.1889 42.6101C93.0354 42.3251 92.9586 41.9962 92.9586 41.6234C92.9586 41.2506 93.0332 40.9238 93.1823 40.6431C93.3314 40.3624 93.5398 40.1475 93.8073 39.9984C94.0792 39.8449 94.3906 39.7681 94.7415 39.7681C95.0836 39.7681 95.3863 39.8426 95.6494 39.9917C95.9126 40.1409 96.1143 40.347 96.2547 40.6101C96.3994 40.8689 96.4718 41.1628 96.4718 41.4917ZM95.8534 41.3667C95.8534 41.1387 95.8029 40.9436 95.7021 40.7812C95.6012 40.6146 95.463 40.4896 95.2876 40.4062C95.1165 40.3185 94.9257 40.2747 94.7152 40.2747C94.4126 40.2747 94.1538 40.3712 93.9389 40.5642C93.7284 40.7572 93.6078 41.0246 93.5771 41.3667H95.8534ZM100.552 41.4917C100.552 41.6058 100.545 41.7264 100.532 41.8536H97.6502C97.6721 42.2088 97.7927 42.4874 98.012 42.6892C98.2357 42.8866 98.5055 42.9851 98.8212 42.9851C99.08 42.9851 99.2949 42.9259 99.466 42.8075C99.6414 42.6847 99.7642 42.5225 99.8344 42.3208H100.479C100.383 42.6673 100.19 42.9501 99.9002 43.1694C99.6107 43.3843 99.2511 43.4917 98.8212 43.4917C98.4791 43.4917 98.1721 43.4151 97.9002 43.2616C97.6326 43.1081 97.4221 42.8909 97.2686 42.6101C97.1151 42.3251 97.0383 41.9962 97.0383 41.6234C97.0383 41.2506 97.1129 40.9238 97.262 40.6431C97.4112 40.3624 97.6195 40.1475 97.887 39.9984C98.159 39.8449 98.4704 39.7681 98.8212 39.7681C99.1633 39.7681 99.466 39.8426 99.7291 39.9917C99.9923 40.1409 100.194 40.347 100.335 40.6101C100.479 40.8689 100.552 41.1628 100.552 41.4917ZM99.9331 41.3667C99.9331 41.1387 99.8826 40.9436 99.7818 40.7812C99.6809 40.6146 99.5427 40.4896 99.3673 40.4062C99.1962 40.3185 99.0055 40.2747 98.7949 40.2747C98.4923 40.2747 98.2335 40.3712 98.0186 40.5642C97.8081 40.7572 97.6875 41.0246 97.6568 41.3667H99.9331ZM101.941 40.4917C102.059 40.2856 102.234 40.1145 102.467 39.9786C102.704 39.8382 102.978 39.7681 103.289 39.7681C103.609 39.7681 103.899 39.8449 104.158 39.9984C104.421 40.1519 104.627 40.369 104.776 40.6497C104.925 40.926 105 41.2483 105 41.6167C105 41.9808 104.925 42.3054 104.776 42.5905C104.627 42.8756 104.421 43.0971 104.158 43.255C103.899 43.4129 103.609 43.4917 103.289 43.4917C102.982 43.4917 102.71 43.4237 102.474 43.2878C102.241 43.1474 102.063 42.9743 101.941 42.7681V45.1431H101.342V39.8274H101.941V40.4917ZM104.388 41.6167C104.388 41.3448 104.333 41.1081 104.224 40.9062C104.114 40.7044 103.965 40.551 103.776 40.4458C103.592 40.3405 103.388 40.2878 103.164 40.2878C102.945 40.2878 102.741 40.3427 102.552 40.4524C102.368 40.5576 102.219 40.7132 102.105 40.9194C101.995 41.1211 101.941 41.3559 101.941 41.6234C101.941 41.8953 101.995 42.1344 102.105 42.3405C102.219 42.5423 102.368 42.6979 102.552 42.8075C102.741 42.9128 102.945 42.9655 103.164 42.9655C103.388 42.9655 103.592 42.9128 103.776 42.8075C103.965 42.6979 104.114 42.5423 104.224 42.3405C104.333 42.1344 104.388 41.893 104.388 41.6167ZM107.318 41.6234C107.318 41.2506 107.393 40.926 107.542 40.6497C107.691 40.369 107.897 40.1519 108.16 39.9984C108.428 39.8449 108.733 39.7681 109.075 39.7681C109.518 39.7681 109.882 39.8756 110.167 40.0905C110.456 40.3054 110.647 40.6036 110.739 40.9851H110.094C110.033 40.7659 109.912 40.5927 109.733 40.4655C109.557 40.3383 109.338 40.2747 109.075 40.2747C108.733 40.2747 108.456 40.3931 108.246 40.63C108.035 40.8624 107.93 41.1936 107.93 41.6234C107.93 42.0576 108.035 42.3931 108.246 42.63C108.456 42.8668 108.733 42.9851 109.075 42.9851C109.338 42.9851 109.557 42.9237 109.733 42.8009C109.908 42.6781 110.029 42.5028 110.094 42.2747H110.739C110.643 42.6431 110.45 42.9391 110.16 43.1628C109.871 43.3821 109.509 43.4917 109.075 43.4917C108.733 43.4917 108.428 43.4151 108.16 43.2616C107.897 43.1081 107.691 42.8909 107.542 42.6101C107.393 42.3294 107.318 42.0006 107.318 41.6234ZM113.11 43.4917C112.773 43.4917 112.466 43.4151 112.189 43.2616C111.917 43.1081 111.703 42.8909 111.545 42.6101C111.391 42.3251 111.314 41.9962 111.314 41.6234C111.314 41.255 111.393 40.9304 111.551 40.6497C111.713 40.3646 111.933 40.1475 112.209 39.9984C112.485 39.8449 112.795 39.7681 113.137 39.7681C113.479 39.7681 113.788 39.8449 114.064 39.9984C114.341 40.1475 114.558 40.3624 114.716 40.6431C114.878 40.9238 114.959 41.2506 114.959 41.6234C114.959 41.9962 114.876 42.3251 114.709 42.6101C114.547 42.8909 114.325 43.1081 114.045 43.2616C113.764 43.4151 113.453 43.4917 113.11 43.4917ZM113.11 42.9655C113.325 42.9655 113.527 42.9151 113.716 42.8142C113.904 42.7133 114.056 42.5619 114.17 42.3601C114.288 42.1584 114.347 41.9129 114.347 41.6234C114.347 41.3339 114.29 41.0883 114.176 40.8866C114.062 40.6848 113.913 40.5357 113.729 40.4392C113.545 40.3383 113.345 40.2878 113.13 40.2878C112.911 40.2878 112.709 40.3383 112.525 40.4392C112.345 40.5357 112.2 40.6848 112.091 40.8866C111.981 41.0883 111.926 41.3339 111.926 41.6234C111.926 41.9173 111.979 42.165 112.084 42.3667C112.194 42.5685 112.338 42.7199 112.518 42.8208C112.698 42.9173 112.895 42.9655 113.11 42.9655ZM116.345 38.5642V43.4325H115.746V38.5642H116.345ZM117.964 38.5642V43.4325H117.365V38.5642H117.964ZM118.761 41.6167C118.761 41.2483 118.835 40.926 118.984 40.6497C119.133 40.369 119.337 40.1519 119.596 39.9984C119.859 39.8449 120.151 39.7681 120.471 39.7681C120.787 39.7681 121.061 39.836 121.294 39.972C121.526 40.108 121.699 40.279 121.813 40.4851V39.8274H122.419V43.4325H121.813V42.7616C121.695 42.9721 121.517 43.1474 121.28 43.2878C121.048 43.4237 120.776 43.4917 120.465 43.4917C120.144 43.4917 119.855 43.4129 119.596 43.255C119.337 43.0971 119.133 42.8756 118.984 42.5905C118.835 42.3054 118.761 41.9808 118.761 41.6167ZM121.813 41.6234C121.813 41.3515 121.758 41.1145 121.649 40.9128C121.539 40.711 121.39 40.5576 121.201 40.4524C121.017 40.3427 120.813 40.2878 120.59 40.2878C120.366 40.2878 120.162 40.3405 119.978 40.4458C119.794 40.551 119.647 40.7044 119.537 40.9062C119.427 41.1081 119.372 41.3448 119.372 41.6167C119.372 41.893 119.427 42.1344 119.537 42.3405C119.647 42.5423 119.794 42.6979 119.978 42.8075C120.162 42.9128 120.366 42.9655 120.59 42.9655C120.813 42.9655 121.017 42.9128 121.201 42.8075C121.39 42.6979 121.539 42.5423 121.649 42.3405C121.758 42.1344 121.813 41.8953 121.813 41.6234ZM124.029 40.4984C124.152 40.2835 124.332 40.108 124.568 39.972C124.805 39.836 125.075 39.7681 125.378 39.7681C125.702 39.7681 125.994 39.8449 126.253 39.9984C126.511 40.1519 126.715 40.369 126.864 40.6497C127.014 40.926 127.088 41.2483 127.088 41.6167C127.088 41.9808 127.014 42.3054 126.864 42.5905C126.715 42.8756 126.509 43.0971 126.246 43.255C125.987 43.4129 125.698 43.4917 125.378 43.4917C125.066 43.4917 124.792 43.4237 124.555 43.2878C124.323 43.1518 124.147 42.9787 124.029 42.7681V43.4325H123.43V38.5642H124.029V40.4984ZM126.476 41.6167C126.476 41.3448 126.421 41.1081 126.312 40.9062C126.202 40.7044 126.053 40.551 125.864 40.4458C125.68 40.3405 125.476 40.2878 125.253 40.2878C125.033 40.2878 124.829 40.3427 124.641 40.4524C124.457 40.5576 124.307 40.7132 124.193 40.9194C124.084 41.1211 124.029 41.3559 124.029 41.6234C124.029 41.8953 124.084 42.1344 124.193 42.3405C124.307 42.5423 124.457 42.6979 124.641 42.8075C124.829 42.9128 125.033 42.9655 125.253 42.9655C125.476 42.9655 125.68 42.9128 125.864 42.8075C126.053 42.6979 126.202 42.5423 126.312 42.3405C126.421 42.1344 126.476 41.893 126.476 41.6167ZM129.449 43.4917C129.111 43.4917 128.804 43.4151 128.527 43.2616C128.256 43.1081 128.041 42.8909 127.883 42.6101C127.729 42.3251 127.652 41.9962 127.652 41.6234C127.652 41.255 127.731 40.9304 127.889 40.6497C128.052 40.3646 128.271 40.1475 128.547 39.9984C128.824 39.8449 129.133 39.7681 129.475 39.7681C129.817 39.7681 130.126 39.8449 130.402 39.9984C130.679 40.1475 130.896 40.3624 131.054 40.6431C131.216 40.9238 131.297 41.2506 131.297 41.6234C131.297 41.9962 131.214 42.3251 131.047 42.6101C130.885 42.8909 130.663 43.1081 130.383 43.2616C130.102 43.4151 129.791 43.4917 129.449 43.4917ZM129.449 42.9655C129.663 42.9655 129.865 42.9151 130.054 42.8142C130.242 42.7133 130.394 42.5619 130.508 42.3601C130.626 42.1584 130.685 41.9129 130.685 41.6234C130.685 41.3339 130.628 41.0883 130.514 40.8866C130.4 40.6848 130.251 40.5357 130.067 40.4392C129.883 40.3383 129.683 40.2878 129.468 40.2878C129.249 40.2878 129.047 40.3383 128.863 40.4392C128.683 40.5357 128.538 40.6848 128.429 40.8866C128.319 41.0883 128.264 41.3339 128.264 41.6234C128.264 41.9173 128.317 42.165 128.422 42.3667C128.532 42.5685 128.677 42.7199 128.856 42.8208C129.036 42.9173 129.234 42.9655 129.449 42.9655ZM132.683 40.4128C132.788 40.2066 132.937 40.0466 133.13 39.9325C133.328 39.8185 133.567 39.7616 133.848 39.7616V40.38H133.69C133.019 40.38 132.683 40.7439 132.683 41.472V43.4325H132.084V39.8274H132.683V40.4128ZM134.315 41.6167C134.315 41.2483 134.39 40.926 134.539 40.6497C134.688 40.369 134.892 40.1519 135.15 39.9984C135.414 39.8449 135.705 39.7681 136.025 39.7681C136.341 39.7681 136.615 39.836 136.848 39.972C137.08 40.108 137.254 40.279 137.368 40.4851V39.8274H137.973V43.4325H137.368V42.7616C137.249 42.9721 137.072 43.1474 136.835 43.2878C136.602 43.4237 136.33 43.4917 136.019 43.4917C135.699 43.4917 135.409 43.4129 135.15 43.255C134.892 43.0971 134.688 42.8756 134.539 42.5905C134.39 42.3054 134.315 41.9808 134.315 41.6167ZM137.368 41.6234C137.368 41.3515 137.313 41.1145 137.203 40.9128C137.093 40.711 136.944 40.5576 136.756 40.4524C136.572 40.3427 136.368 40.2878 136.144 40.2878C135.92 40.2878 135.716 40.3405 135.532 40.4458C135.348 40.551 135.201 40.7044 135.091 40.9062C134.982 41.1081 134.927 41.3448 134.927 41.6167C134.927 41.893 134.982 42.1344 135.091 42.3405C135.201 42.5423 135.348 42.6979 135.532 42.8075C135.716 42.9128 135.92 42.9655 136.144 42.9655C136.368 42.9655 136.572 42.9128 136.756 42.8075C136.944 42.6979 137.093 42.5423 137.203 42.3405C137.313 42.1344 137.368 41.8953 137.368 41.6234ZM139.715 40.3208V42.4458C139.715 42.6212 139.752 42.7462 139.827 42.8208C139.901 42.891 140.031 42.9259 140.215 42.9259H140.656V43.4325H140.116C139.783 43.4325 139.533 43.3559 139.366 43.2024C139.199 43.0488 139.116 42.7967 139.116 42.4458V40.3208H138.649V39.8274H139.116V38.9194H139.715V39.8274H140.656V40.3208H139.715ZM141.69 39.2417C141.576 39.2417 141.48 39.2024 141.401 39.1234C141.322 39.0445 141.282 38.948 141.282 38.8339C141.282 38.7199 141.322 38.6233 141.401 38.5444C141.48 38.4654 141.576 38.4259 141.69 38.4259C141.8 38.4259 141.892 38.4654 141.967 38.5444C142.045 38.6233 142.085 38.7199 142.085 38.8339C142.085 38.948 142.045 39.0445 141.967 39.1234C141.892 39.2024 141.8 39.2417 141.69 39.2417ZM141.98 39.8274V43.4325H141.381V39.8274H141.98ZM144.572 43.4917C144.235 43.4917 143.928 43.4151 143.651 43.2616C143.379 43.1081 143.165 42.8909 143.007 42.6101C142.853 42.3251 142.776 41.9962 142.776 41.6234C142.776 41.255 142.855 40.9304 143.013 40.6497C143.175 40.3646 143.395 40.1475 143.671 39.9984C143.947 39.8449 144.257 39.7681 144.599 39.7681C144.941 39.7681 145.25 39.8449 145.526 39.9984C145.803 40.1475 146.02 40.3624 146.178 40.6431C146.34 40.9238 146.421 41.2506 146.421 41.6234C146.421 41.9962 146.338 42.3251 146.171 42.6101C146.009 42.8909 145.787 43.1081 145.507 43.2616C145.226 43.4151 144.915 43.4917 144.572 43.4917ZM144.572 42.9655C144.787 42.9655 144.989 42.9151 145.178 42.8142C145.366 42.7133 145.518 42.5619 145.632 42.3601C145.75 42.1584 145.809 41.9129 145.809 41.6234C145.809 41.3339 145.752 41.0883 145.638 40.8866C145.524 40.6848 145.375 40.5357 145.191 40.4392C145.007 40.3383 144.807 40.2878 144.592 40.2878C144.373 40.2878 144.171 40.3383 143.987 40.4392C143.807 40.5357 143.662 40.6848 143.553 40.8866C143.443 41.0883 143.388 41.3339 143.388 41.6234C143.388 41.9173 143.441 42.165 143.546 42.3667C143.656 42.5685 143.8 42.7199 143.98 42.8208C144.16 42.9173 144.358 42.9655 144.572 42.9655ZM148.965 39.7616C149.403 39.7616 149.759 39.8952 150.031 40.1628C150.303 40.4259 150.439 40.8075 150.439 41.3075V43.4325H149.846V41.3931C149.846 41.0335 149.757 40.7594 149.577 40.5708C149.397 40.3778 149.151 40.2812 148.84 40.2812C148.524 40.2812 148.272 40.38 148.083 40.5774C147.899 40.7747 147.807 41.062 147.807 41.4392V43.4325H147.208V39.8274H147.807V40.3405C147.925 40.1563 148.085 40.0137 148.287 39.9128C148.493 39.8119 148.719 39.7616 148.965 39.7616ZM152.693 43.4917C152.416 43.4917 152.169 43.4457 151.949 43.3536C151.73 43.2571 151.557 43.1256 151.43 42.9589C151.302 42.7879 151.232 42.5927 151.219 42.3734H151.838C151.855 42.5532 151.938 42.7002 152.088 42.8142C152.241 42.9282 152.441 42.9851 152.686 42.9851C152.914 42.9851 153.094 42.9348 153.226 42.8339C153.357 42.7331 153.423 42.6059 153.423 42.4524C153.423 42.2945 153.353 42.1781 153.213 42.1036C153.072 42.0246 152.855 41.948 152.561 41.8734C152.294 41.8032 152.074 41.733 151.903 41.6628C151.737 41.5882 151.592 41.4809 151.469 41.3405C151.351 41.1958 151.291 41.0072 151.291 40.7747C151.291 40.5905 151.346 40.4217 151.456 40.2681C151.566 40.1146 151.721 39.994 151.923 39.9062C152.125 39.8141 152.355 39.7681 152.614 39.7681C153.013 39.7681 153.335 39.869 153.581 40.0708C153.827 40.2725 153.958 40.5488 153.976 40.8997H153.377C153.364 40.7111 153.287 40.5598 153.147 40.4458C153.011 40.3317 152.827 40.2747 152.594 40.2747C152.379 40.2747 152.208 40.3207 152.081 40.4128C151.954 40.5049 151.89 40.6256 151.89 40.7747C151.89 40.8931 151.927 40.9918 152.002 41.0708C152.081 41.1453 152.177 41.2067 152.291 41.255C152.41 41.2988 152.572 41.3493 152.778 41.4062C153.037 41.4764 153.248 41.5466 153.41 41.6167C153.572 41.6825 153.71 41.7834 153.824 41.9194C153.943 42.0553 154.004 42.2331 154.009 42.4524C154.009 42.6497 153.954 42.8273 153.844 42.9851C153.734 43.143 153.579 43.268 153.377 43.3601C153.18 43.4479 152.952 43.4917 152.693 43.4917ZM155.045 43.472C154.93 43.472 154.834 43.4325 154.755 43.3536C154.676 43.2746 154.637 43.1782 154.637 43.0642C154.637 42.9502 154.676 42.8537 154.755 42.7747C154.834 42.6958 154.93 42.6562 155.045 42.6562C155.154 42.6562 155.246 42.6958 155.321 42.7747C155.4 42.8537 155.439 42.9502 155.439 43.0642C155.439 43.1782 155.4 43.2746 155.321 43.3536C155.246 43.4325 155.154 43.472 155.045 43.472ZM161.055 40.1892C161.055 40.5708 160.923 40.8888 160.66 41.1431C160.401 41.3931 160.004 41.5181 159.469 41.5181H158.588V43.4325H157.989V38.847H159.469C159.987 38.847 160.379 38.972 160.647 39.222C160.919 39.472 161.055 39.7945 161.055 40.1892ZM159.469 41.0247C159.803 41.0247 160.048 40.9523 160.206 40.8075C160.364 40.6628 160.443 40.4567 160.443 40.1892C160.443 39.6234 160.118 39.3405 159.469 39.3405H158.588V41.0247H159.469ZM163.371 43.4917C163.034 43.4917 162.727 43.4151 162.45 43.2616C162.178 43.1081 161.963 42.8909 161.805 42.6101C161.652 42.3251 161.575 41.9962 161.575 41.6234C161.575 41.255 161.654 40.9304 161.812 40.6497C161.974 40.3646 162.194 40.1475 162.47 39.9984C162.746 39.8449 163.055 39.7681 163.398 39.7681C163.74 39.7681 164.049 39.8449 164.325 39.9984C164.602 40.1475 164.819 40.3624 164.977 40.6431C165.139 40.9238 165.22 41.2506 165.22 41.6234C165.22 41.9962 165.137 42.3251 164.97 42.6101C164.808 42.8909 164.586 43.1081 164.305 43.2616C164.025 43.4151 163.713 43.4917 163.371 43.4917ZM163.371 42.9655C163.586 42.9655 163.788 42.9151 163.977 42.8142C164.165 42.7133 164.316 42.5619 164.43 42.3601C164.549 42.1584 164.608 41.9129 164.608 41.6234C164.608 41.3339 164.551 41.0883 164.437 40.8866C164.323 40.6848 164.174 40.5357 163.99 40.4392C163.805 40.3383 163.606 40.2878 163.391 40.2878C163.172 40.2878 162.97 40.3383 162.786 40.4392C162.606 40.5357 162.461 40.6848 162.352 40.8866C162.242 41.0883 162.187 41.3339 162.187 41.6234C162.187 41.9173 162.24 42.165 162.345 42.3667C162.455 42.5685 162.599 42.7199 162.779 42.8208C162.959 42.9173 163.156 42.9655 163.371 42.9655ZM170.81 39.8274L169.685 43.4325H169.066L168.198 40.5708L167.329 43.4325H166.711L165.579 39.8274H166.191L167.02 42.8536L167.915 39.8274H168.527L169.402 42.8601L170.218 39.8274H170.81ZM174.693 41.4917C174.693 41.6058 174.687 41.7264 174.674 41.8536H171.792C171.814 42.2088 171.935 42.4874 172.154 42.6892C172.378 42.8866 172.647 42.9851 172.963 42.9851C173.222 42.9851 173.437 42.9259 173.608 42.8075C173.783 42.6847 173.906 42.5225 173.976 42.3208H174.621C174.524 42.6673 174.332 42.9501 174.042 43.1694C173.753 43.3843 173.393 43.4917 172.963 43.4917C172.621 43.4917 172.314 43.4151 172.042 43.2616C171.774 43.1081 171.564 42.8909 171.41 42.6101C171.257 42.3251 171.18 41.9962 171.18 41.6234C171.18 41.2506 171.255 40.9238 171.404 40.6431C171.553 40.3624 171.761 40.1475 172.029 39.9984C172.301 39.8449 172.612 39.7681 172.963 39.7681C173.305 39.7681 173.608 39.8426 173.871 39.9917C174.134 40.1409 174.336 40.347 174.476 40.6101C174.621 40.8689 174.693 41.1628 174.693 41.4917ZM174.075 41.3667C174.075 41.1387 174.024 40.9436 173.924 40.7812C173.823 40.6146 173.685 40.4896 173.509 40.4062C173.338 40.3185 173.147 40.2747 172.937 40.2747C172.634 40.2747 172.375 40.3712 172.16 40.5642C171.95 40.7572 171.829 41.0246 171.799 41.3667H174.075ZM176.082 40.4128C176.188 40.2066 176.337 40.0466 176.53 39.9325C176.727 39.8185 176.966 39.7616 177.247 39.7616V40.38H177.089C176.418 40.38 176.082 40.7439 176.082 41.472V43.4325H175.484V39.8274H176.082V40.4128ZM179.405 40.3208H178.648V43.4325H178.05V40.3208H177.583V39.8274H178.05V39.5708C178.05 39.1673 178.153 38.8734 178.359 38.6892C178.569 38.5006 178.905 38.4062 179.365 38.4062V38.9062C179.102 38.9062 178.916 38.9589 178.806 39.0642C178.701 39.1651 178.648 39.3339 178.648 39.5708V39.8274H179.405V40.3208ZM183.3 39.8274V43.4325H182.702V42.8997C182.588 43.0839 182.428 43.2287 182.221 43.3339C182.02 43.4348 181.796 43.4851 181.55 43.4851C181.27 43.4851 181.017 43.4282 180.794 43.3142C180.57 43.1958 180.392 43.0202 180.261 42.7878C180.134 42.5553 180.07 42.2725 180.07 41.9392V39.8274H180.662V41.8601C180.662 42.2154 180.752 42.4895 180.932 42.6825C181.112 42.8711 181.357 42.9655 181.669 42.9655C181.989 42.9655 182.241 42.8667 182.425 42.6694C182.61 42.472 182.702 42.1847 182.702 41.8075V39.8274H183.3ZM184.91 38.5642V43.4325H184.311V38.5642H184.91ZM187.461 41.6167C187.461 41.2483 187.535 40.926 187.684 40.6497C187.833 40.369 188.037 40.1519 188.296 39.9984C188.559 39.8449 188.851 39.7681 189.171 39.7681C189.487 39.7681 189.761 39.836 189.993 39.972C190.226 40.108 190.399 40.279 190.513 40.4851V39.8274H191.118V43.4325H190.513V42.7616C190.395 42.9721 190.217 43.1474 189.98 43.2878C189.748 43.4237 189.476 43.4917 189.164 43.4917C188.844 43.4917 188.555 43.4129 188.296 43.255C188.037 43.0971 187.833 42.8756 187.684 42.5905C187.535 42.3054 187.461 41.9808 187.461 41.6167ZM190.513 41.6234C190.513 41.3515 190.458 41.1145 190.349 40.9128C190.239 40.711 190.09 40.5576 189.901 40.4524C189.717 40.3427 189.513 40.2878 189.289 40.2878C189.066 40.2878 188.862 40.3405 188.678 40.4458C188.493 40.551 188.346 40.7044 188.237 40.9062C188.127 41.1081 188.072 41.3448 188.072 41.6167C188.072 41.893 188.127 42.1344 188.237 42.3405C188.346 42.5423 188.493 42.6979 188.678 42.8075C188.862 42.9128 189.066 42.9655 189.289 42.9655C189.513 42.9655 189.717 42.9128 189.901 42.8075C190.09 42.6979 190.239 42.5423 190.349 42.3405C190.458 42.1344 190.513 41.8953 190.513 41.6234ZM191.906 41.6234C191.906 41.2506 191.981 40.926 192.13 40.6497C192.279 40.369 192.485 40.1519 192.749 39.9984C193.016 39.8449 193.321 39.7681 193.663 39.7681C194.106 39.7681 194.47 39.8756 194.755 40.0905C195.045 40.3054 195.235 40.6036 195.328 40.9851H194.683C194.621 40.7659 194.501 40.5927 194.321 40.4655C194.145 40.3383 193.926 40.2747 193.663 40.2747C193.321 40.2747 193.045 40.3931 192.834 40.63C192.624 40.8624 192.518 41.1936 192.518 41.6234C192.518 42.0576 192.624 42.3931 192.834 42.63C193.045 42.8668 193.321 42.9851 193.663 42.9851C193.926 42.9851 194.145 42.9237 194.321 42.8009C194.496 42.6781 194.617 42.5028 194.683 42.2747H195.328C195.231 42.6431 195.038 42.9391 194.749 43.1628C194.459 43.3821 194.097 43.4917 193.663 43.4917C193.321 43.4917 193.016 43.4151 192.749 43.2616C192.485 43.1081 192.279 42.8909 192.13 42.6101C191.981 42.3294 191.906 42.0006 191.906 41.6234ZM196.857 40.3208V42.4458C196.857 42.6212 196.894 42.7462 196.968 42.8208C197.043 42.891 197.172 42.9259 197.357 42.9259H197.797V43.4325H197.258C196.925 43.4325 196.675 43.3559 196.508 43.2024C196.341 43.0488 196.258 42.7967 196.258 42.4458V40.3208H195.791V39.8274H196.258V38.9194H196.857V39.8274H197.797V40.3208H196.857ZM198.832 39.2417C198.718 39.2417 198.621 39.2024 198.542 39.1234C198.464 39.0445 198.424 38.948 198.424 38.8339C198.424 38.7199 198.464 38.6233 198.542 38.5444C198.621 38.4654 198.718 38.4259 198.832 38.4259C198.942 38.4259 199.034 38.4654 199.108 38.5444C199.187 38.6233 199.227 38.7199 199.227 38.8339C199.227 38.948 199.187 39.0445 199.108 39.1234C199.034 39.2024 198.942 39.2417 198.832 39.2417ZM199.121 39.8274V43.4325H198.523V39.8274H199.121ZM201.714 43.4917C201.376 43.4917 201.069 43.4151 200.793 43.2616C200.521 43.1081 200.306 42.8909 200.148 42.6101C199.995 42.3251 199.918 41.9962 199.918 41.6234C199.918 41.255 199.997 40.9304 200.155 40.6497C200.317 40.3646 200.537 40.1475 200.813 39.9984C201.089 39.8449 201.398 39.7681 201.74 39.7681C202.083 39.7681 202.392 39.8449 202.668 39.9984C202.944 40.1475 203.162 40.3624 203.319 40.6431C203.482 40.9238 203.563 41.2506 203.563 41.6234C203.563 41.9962 203.48 42.3251 203.313 42.6101C203.151 42.8909 202.929 43.1081 202.648 43.2616C202.368 43.4151 202.056 43.4917 201.714 43.4917ZM201.714 42.9655C201.929 42.9655 202.131 42.9151 202.319 42.8142C202.508 42.7133 202.659 42.5619 202.773 42.3601C202.892 42.1584 202.951 41.9129 202.951 41.6234C202.951 41.3339 202.894 41.0883 202.78 40.8866C202.666 40.6848 202.517 40.5357 202.333 40.4392C202.148 40.3383 201.949 40.2878 201.734 40.2878C201.515 40.2878 201.313 40.3383 201.129 40.4392C200.949 40.5357 200.804 40.6848 200.694 40.8866C200.585 41.0883 200.53 41.3339 200.53 41.6234C200.53 41.9173 200.583 42.165 200.688 42.3667C200.798 42.5685 200.942 42.7199 201.122 42.8208C201.302 42.9173 201.499 42.9655 201.714 42.9655ZM206.107 39.7616C206.545 39.7616 206.9 39.8952 207.172 40.1628C207.444 40.4259 207.58 40.8075 207.58 41.3075V43.4325H206.988V41.3931C206.988 41.0335 206.898 40.7594 206.718 40.5708C206.539 40.3778 206.293 40.2812 205.982 40.2812C205.666 40.2812 205.414 40.38 205.225 40.5774C205.041 40.7747 204.949 41.062 204.949 41.4392V43.4325H204.35V39.8274H204.949V40.3405C205.067 40.1563 205.227 40.0137 205.429 39.9128C205.635 39.8119 205.861 39.7616 206.107 39.7616ZM209.835 43.4917C209.558 43.4917 209.31 43.4457 209.091 43.3536C208.872 43.2571 208.699 43.1256 208.571 42.9589C208.444 42.7879 208.374 42.5927 208.361 42.3734H208.979C208.997 42.5532 209.08 42.7002 209.229 42.8142C209.383 42.9282 209.582 42.9851 209.828 42.9851C210.056 42.9851 210.236 42.9348 210.367 42.8339C210.499 42.7331 210.565 42.6059 210.565 42.4524C210.565 42.2945 210.495 42.1781 210.354 42.1036C210.214 42.0246 209.997 41.948 209.703 41.8734C209.435 41.8032 209.216 41.733 209.045 41.6628C208.878 41.5882 208.734 41.4809 208.611 41.3405C208.492 41.1958 208.433 41.0072 208.433 40.7747C208.433 40.5905 208.488 40.4217 208.598 40.2681C208.707 40.1146 208.863 39.994 209.065 39.9062C209.267 39.8141 209.497 39.7681 209.756 39.7681C210.155 39.7681 210.477 39.869 210.723 40.0708C210.968 40.2725 211.1 40.5488 211.117 40.8997H210.519C210.506 40.7111 210.429 40.5598 210.288 40.4458C210.153 40.3317 209.968 40.2747 209.736 40.2747C209.521 40.2747 209.35 40.3207 209.223 40.4128C209.096 40.5049 209.032 40.6256 209.032 40.7747C209.032 40.8931 209.069 40.9918 209.144 41.0708C209.223 41.1453 209.319 41.2067 209.433 41.255C209.552 41.2988 209.714 41.3493 209.92 41.4062C210.179 41.4764 210.389 41.5466 210.552 41.6167C210.714 41.6825 210.852 41.7834 210.966 41.9194C211.085 42.0553 211.146 42.2331 211.15 42.4524C211.15 42.6497 211.096 42.8273 210.986 42.9851C210.876 43.143 210.721 43.268 210.519 43.3601C210.321 43.4479 210.093 43.4917 209.835 43.4917ZM212.186 43.472C212.072 43.472 211.976 43.4325 211.897 43.3536C211.818 43.2746 211.778 43.1782 211.778 43.0642C211.778 42.9502 211.818 42.8537 211.897 42.7747C211.976 42.6958 212.072 42.6562 212.186 42.6562C212.296 42.6562 212.388 42.6958 212.463 42.7747C212.542 42.8537 212.581 42.9502 212.581 43.0642C212.581 43.1782 212.542 43.2746 212.463 43.3536C212.388 43.4325 212.296 43.472 212.186 43.472Z" fill="#616161"/>
<path d="M88.5244 32.1621H214.024" stroke="#616161"/>
</svg>
