<svg width="24" height="25" viewBox="0 0 24 25" fill="none" xmlns="http://www.w3.org/2000/svg">
<g clip-path="url(#clip0_191_385)">
<g filter="url(#filter0_d_191_385)">
<path d="M13 9.5H17.5L17 11.5H13V20.5H11V11.5H7V9.5H11V7.628C11 5.845 11.186 5.198 11.534 4.546C11.8753 3.90199 12.402 3.37526 13.046 3.034C13.698 2.686 14.345 2.5 16.128 2.5C16.6507 2.5 17.108 2.55 17.5 2.65V4.5H16.128C14.804 4.5 14.401 4.578 13.989 4.798C13.6933 4.95251 13.4521 5.19405 13.298 5.49C13.078 5.901 13 6.304 13 7.628V9.5Z" fill="white"/>
</g>
</g>
<defs>
<filter id="filter0_d_191_385" x="3" y="2.5" width="18.5" height="26" filterUnits="userSpaceOnUse" color-interpolation-filters="sRGB">
<feFlood flood-opacity="0" result="BackgroundImageFix"/>
<feColorMatrix in="SourceAlpha" type="matrix" values="0 0 0 0 0 0 0 0 0 0 0 0 0 0 0 0 0 0 127 0" result="hardAlpha"/>
<feOffset dy="4"/>
<feGaussianBlur stdDeviation="2"/>
<feComposite in2="hardAlpha" operator="out"/>
<feColorMatrix type="matrix" values="0 0 0 0 0 0 0 0 0 0 0 0 0 0 0 0 0 0 0.25 0"/>
<feBlend mode="normal" in2="BackgroundImageFix" result="effect1_dropShadow_191_385"/>
<feBlend mode="normal" in="SourceGraphic" in2="effect1_dropShadow_191_385" result="shape"/>
</filter>
<clipPath id="clip0_191_385">
<rect width="24" height="24" fill="white" transform="translate(0 0.5)"/>
</clipPath>
</defs>
</svg>
