<svg width="383" height="305" viewBox="0 0 383 305" fill="none" xmlns="http://www.w3.org/2000/svg">
<rect width="382.932" height="304.036" rx="19.2428" fill="#5292F4"/>
<path d="M48.568 89.296C48.952 83.344 51.224 78.704 55.384 75.376C59.608 72.048 64.984 70.384 71.512 70.384C75.992 70.384 79.864 71.184 83.128 72.784C86.392 74.384 88.856 76.56 90.52 79.312C92.184 82.064 93.016 85.168 93.016 88.624C93.016 92.592 91.96 95.984 89.848 98.8C87.736 101.616 85.208 103.504 82.264 104.464V104.848C86.04 106 88.984 108.112 91.096 111.184C93.208 114.192 94.264 118.064 94.264 122.8C94.264 126.576 93.4 129.936 91.672 132.88C89.944 135.824 87.384 138.16 83.992 139.888C80.6 141.552 76.536 142.384 71.8 142.384C64.888 142.384 59.192 140.624 54.712 137.104C50.296 133.52 47.928 128.4 47.608 121.744H58.168C58.424 125.136 59.736 127.92 62.104 130.096C64.472 132.208 67.672 133.264 71.704 133.264C75.608 133.264 78.616 132.208 80.728 130.096C82.84 127.92 83.896 125.136 83.896 121.744C83.896 117.264 82.456 114.096 79.576 112.24C76.76 110.32 72.408 109.36 66.52 109.36H64.024V100.336H66.616C71.8 100.272 75.736 99.408 78.424 97.744C81.176 96.08 82.552 93.456 82.552 89.872C82.552 86.8 81.56 84.368 79.576 82.576C77.592 80.72 74.776 79.792 71.128 79.792C67.544 79.792 64.76 80.72 62.776 82.576C60.792 84.368 59.608 86.608 59.224 89.296H48.568ZM103.456 127.408V119.152L135.712 72.88H148.96V117.904H157.888V127.408H148.96V142H138.208V127.408H103.456ZM138.688 84.016L116.032 117.904H138.688V84.016ZM165.996 106.096C165.996 95.024 167.852 86.384 171.564 80.176C175.34 73.904 181.804 70.768 190.956 70.768C200.108 70.768 206.54 73.904 210.252 80.176C214.028 86.384 215.916 95.024 215.916 106.096C215.916 117.296 214.028 126.064 210.252 132.4C206.54 138.672 200.108 141.808 190.956 141.808C181.804 141.808 175.34 138.672 171.564 132.4C167.852 126.064 165.996 117.296 165.996 106.096ZM205.164 106.096C205.164 100.912 204.812 96.528 204.108 92.944C203.468 89.36 202.124 86.448 200.076 84.208C198.028 81.904 194.988 80.752 190.956 80.752C186.924 80.752 183.884 81.904 181.836 84.208C179.788 86.448 178.412 89.36 177.708 92.944C177.068 96.528 176.748 100.912 176.748 106.096C176.748 111.472 177.068 115.984 177.708 119.632C178.348 123.28 179.692 126.224 181.74 128.464C183.852 130.704 186.924 131.824 190.956 131.824C194.988 131.824 198.028 130.704 200.076 128.464C202.188 126.224 203.564 123.28 204.204 119.632C204.844 115.984 205.164 111.472 205.164 106.096Z" fill="white"/>
<path d="M240.68 97.344L234.152 124.2H231.464L237.968 97.344H240.68ZM243.432 116.352V114.288L251.496 102.72H254.808V113.976H257.04V116.352H254.808V120H252.12V116.352H243.432ZM252.24 105.504L246.576 113.976H252.24V105.504ZM259.307 111.024C259.307 108.256 259.771 106.096 260.699 104.544C261.643 102.976 263.259 102.192 265.547 102.192C267.835 102.192 269.443 102.976 270.371 104.544C271.315 106.096 271.787 108.256 271.787 111.024C271.787 113.824 271.315 116.016 270.371 117.6C269.443 119.168 267.835 119.952 265.547 119.952C263.259 119.952 261.643 119.168 260.699 117.6C259.771 116.016 259.307 113.824 259.307 111.024ZM269.099 111.024C269.099 109.728 269.011 108.632 268.835 107.736C268.675 106.84 268.339 106.112 267.827 105.552C267.315 104.976 266.555 104.688 265.547 104.688C264.539 104.688 263.779 104.976 263.267 105.552C262.755 106.112 262.411 106.84 262.235 107.736C262.075 108.632 261.995 109.728 261.995 111.024C261.995 112.368 262.075 113.496 262.235 114.408C262.395 115.32 262.731 116.056 263.243 116.616C263.771 117.176 264.539 117.456 265.547 117.456C266.555 117.456 267.315 117.176 267.827 116.616C268.355 116.056 268.699 115.32 268.859 114.408C269.019 113.496 269.099 112.368 269.099 111.024ZM274.682 111.024C274.682 108.256 275.146 106.096 276.074 104.544C277.018 102.976 278.634 102.192 280.922 102.192C283.21 102.192 284.818 102.976 285.746 104.544C286.69 106.096 287.162 108.256 287.162 111.024C287.162 113.824 286.69 116.016 285.746 117.6C284.818 119.168 283.21 119.952 280.922 119.952C278.634 119.952 277.018 119.168 276.074 117.6C275.146 116.016 274.682 113.824 274.682 111.024ZM284.474 111.024C284.474 109.728 284.386 108.632 284.21 107.736C284.05 106.84 283.714 106.112 283.202 105.552C282.69 104.976 281.93 104.688 280.922 104.688C279.914 104.688 279.154 104.976 278.642 105.552C278.13 106.112 277.786 106.84 277.61 107.736C277.45 108.632 277.37 109.728 277.37 111.024C277.37 112.368 277.45 113.496 277.61 114.408C277.77 115.32 278.106 116.056 278.618 116.616C279.146 117.176 279.914 117.456 280.922 117.456C281.93 117.456 282.69 117.176 283.202 116.616C283.73 116.056 284.074 115.32 284.234 114.408C284.394 113.496 284.474 112.368 284.474 111.024Z" fill="white"/>
<rect x="35.6064" y="145.297" width="192.679" height="44.2385" rx="15.5791" transform="rotate(-4 35.6064 145.297)" fill="#030712"/>
<path d="M69.3035 159.981L70.0792 171.074L68.2597 171.201L67.7284 163.604L64.8759 171.438L63.615 171.526L59.6841 164.166L60.2153 171.764L58.3958 171.891L57.6201 160.798L59.5833 160.661L64.086 169.087L67.3563 160.117L69.3035 159.981ZM71.554 166.512C71.4922 165.629 71.6184 164.834 71.9326 164.128C72.2574 163.421 72.7207 162.859 73.3224 162.443C73.9341 162.015 74.623 161.774 75.3891 161.721C76.0807 161.672 76.6916 161.769 77.2217 162.01C77.7617 162.239 78.2001 162.545 78.537 162.928L78.4477 161.651L80.2832 161.523L80.8982 170.317L79.0627 170.446L78.9712 169.137C78.6916 169.574 78.2955 169.949 77.7828 170.263C77.2701 170.577 76.6732 170.757 75.9922 170.805C75.2368 170.858 74.5317 170.715 73.8771 170.375C73.2218 170.026 72.6837 169.518 72.263 168.852C71.8521 168.175 71.6157 167.395 71.554 166.512ZM78.7546 166.041C78.7122 165.434 78.5477 164.916 78.2611 164.487C77.9851 164.057 77.6367 163.74 77.216 163.534C76.7953 163.328 76.3509 163.241 75.8827 163.274C75.4145 163.307 74.9864 163.454 74.5984 163.717C74.2097 163.969 73.9033 164.327 73.6791 164.792C73.4649 165.245 73.379 165.775 73.4214 166.381C73.4638 166.988 73.6234 167.511 73.9001 167.952C74.1875 168.392 74.5419 168.72 74.9634 168.936C75.3947 169.141 75.8392 169.228 76.2967 169.196C76.7649 169.163 77.193 169.015 77.581 168.753C77.969 168.491 78.2697 168.127 78.4832 167.663C78.7066 167.188 78.797 166.647 78.7546 166.041ZM86.4904 170.071C85.7987 170.119 85.1677 170.04 84.5972 169.834C84.0367 169.617 83.582 169.306 83.233 168.903C82.8832 168.489 82.6791 168.017 82.6207 167.486L84.5041 167.355C84.562 167.725 84.7595 168.027 85.0966 168.26C85.4436 168.481 85.8618 168.575 86.3513 168.541C86.862 168.505 87.2491 168.382 87.5123 168.171C87.7855 167.949 87.9113 167.683 87.8897 167.375C87.8666 167.045 87.6899 166.811 87.3595 166.674C87.0398 166.536 86.5327 166.395 85.8383 166.251C85.1659 166.116 84.6163 165.978 84.1894 165.837C83.7625 165.696 83.3825 165.46 83.0494 165.131C82.7269 164.8 82.5455 164.348 82.5054 163.773C82.4726 163.305 82.5812 162.87 82.8311 162.468C83.0802 162.054 83.4523 161.718 83.9475 161.459C84.4532 161.199 85.0413 161.046 85.7116 160.999C86.7119 160.929 87.5331 161.128 88.1753 161.597C88.8275 162.054 89.2053 162.717 89.3089 163.586L87.4893 163.714C87.4299 163.322 87.2483 163.019 86.9447 162.805C86.641 162.591 86.2444 162.501 85.7549 162.536C85.2761 162.569 84.9153 162.685 84.6726 162.884C84.4299 163.083 84.3189 163.331 84.3398 163.629C84.3561 163.863 84.455 164.054 84.6364 164.202C84.8179 164.35 85.0343 164.463 85.2857 164.541C85.5364 164.609 85.906 164.696 86.3945 164.801C87.0448 164.926 87.5785 165.065 87.9955 165.218C88.4224 165.359 88.7967 165.59 89.1185 165.909C89.4402 166.229 89.6261 166.67 89.6762 167.234C89.7112 167.734 89.6041 168.19 89.355 168.603C89.1058 169.016 88.7337 169.353 88.2386 169.612C87.7541 169.87 87.1714 170.023 86.4904 170.071ZM93.4258 162.096L93.7662 166.964C93.7893 167.294 93.8805 167.528 94.0399 167.666C94.2092 167.793 94.48 167.844 94.8525 167.818L95.9697 167.74L96.0758 169.256L94.6393 169.357C93.8199 169.414 93.1787 169.266 92.7157 168.914C92.2526 168.561 91.991 167.954 91.9307 167.092L91.5903 162.224L90.5528 162.296L90.449 160.812L91.4865 160.74L91.3336 158.553L93.1691 158.425L93.322 160.611L95.4608 160.462L95.5646 161.946L93.4258 162.096ZM105.491 163.963C105.514 164.292 105.513 164.592 105.489 164.861L98.7696 165.331C98.8719 166.029 99.1721 166.575 99.67 166.968C100.168 167.361 100.757 167.533 101.438 167.486C102.417 167.417 103.08 166.959 103.427 166.112L105.391 165.974C105.181 166.802 104.744 167.501 104.078 168.071C103.422 168.63 102.578 168.946 101.546 169.018C100.705 169.077 99.9365 168.943 99.2401 168.618C98.5536 168.281 97.995 167.785 97.5643 167.131C97.1435 166.466 96.9015 165.68 96.8382 164.776C96.775 163.872 96.9004 163.066 97.2146 162.36C97.5387 161.642 98.0175 161.074 98.6512 160.656C99.2955 160.236 100.049 159.996 100.911 159.936C101.741 159.878 102.493 160.007 103.167 160.324C103.841 160.64 104.383 161.116 104.791 161.75C105.198 162.374 105.431 163.111 105.491 163.963ZM103.551 163.521C103.493 162.851 103.217 162.33 102.72 161.959C102.224 161.587 101.63 161.426 100.938 161.474C100.31 161.518 99.7869 161.758 99.3682 162.193C98.9488 162.618 98.7204 163.174 98.6829 163.861L103.551 163.521ZM108.898 160.805C109.132 160.34 109.459 159.969 109.878 159.694C110.308 159.407 110.825 159.243 111.432 159.2L111.564 161.084L111.101 161.116C110.388 161.166 109.858 161.385 109.511 161.773C109.174 162.16 109.037 162.8 109.1 163.694L109.423 168.323L107.604 168.45L106.989 159.656L108.808 159.528L108.898 160.805ZM125.177 158.384L120.686 171.689L118.803 171.821L120.292 167.418L116.223 159.01L118.25 158.868L121.193 165.399L123.294 158.515L125.177 158.384ZM130.99 166.959C130.16 167.017 129.397 166.883 128.701 166.558C128.003 166.222 127.439 165.726 127.009 165.072C126.577 164.407 126.33 163.623 126.267 162.718C126.204 161.824 126.346 161.018 126.691 160.299C127.036 159.58 127.536 159.01 128.191 158.59C128.846 158.17 129.594 157.93 130.435 157.872C131.275 157.813 132.049 157.946 132.756 158.271C133.463 158.595 134.038 159.09 134.48 159.754C134.922 160.418 135.174 161.197 135.237 162.091C135.299 162.985 135.153 163.792 134.797 164.512C134.441 165.231 133.925 165.808 133.249 166.24C132.584 166.66 131.831 166.9 130.99 166.959ZM130.88 165.379C131.348 165.346 131.776 165.204 132.165 164.952C132.564 164.7 132.876 164.341 133.1 163.876C133.324 163.412 133.414 162.86 133.369 162.222C133.325 161.583 133.165 161.054 132.89 160.635C132.614 160.205 132.266 159.893 131.846 159.698C131.426 159.502 130.982 159.421 130.513 159.454C130.045 159.487 129.617 159.629 129.228 159.881C128.85 160.132 128.559 160.489 128.357 160.952C128.153 161.405 128.074 161.95 128.118 162.589C128.184 163.536 128.475 164.253 128.99 164.741C129.516 165.218 130.145 165.43 130.88 165.379ZM144.693 157.019L145.308 165.813L143.489 165.941L143.416 164.903C143.154 165.285 142.796 165.599 142.343 165.844C141.9 166.079 141.417 166.214 140.896 166.25C140.204 166.299 139.572 166.199 138.998 165.95C138.436 165.701 137.975 165.305 137.616 164.763C137.268 164.221 137.066 163.551 137.01 162.753L136.649 157.581L138.452 157.455L138.795 162.355C138.85 163.143 139.089 163.736 139.513 164.134C139.936 164.521 140.487 164.691 141.168 164.643C141.849 164.596 142.372 164.351 142.737 163.908C143.112 163.454 143.271 162.834 143.216 162.046L142.874 157.146L144.693 157.019ZM149.003 158.001C149.238 157.535 149.565 157.165 149.984 156.89C150.413 156.603 150.931 156.438 151.537 156.396L151.669 158.279L151.206 158.312C150.493 158.362 149.963 158.58 149.616 158.968C149.279 159.355 149.142 159.996 149.205 160.89L149.528 165.518L147.709 165.646L147.094 156.851L148.914 156.724L149.003 158.001ZM159.127 155.176L159.355 158.432L163.186 158.164L163.289 159.648L159.459 159.916L159.696 163.316L164.006 163.014L164.11 164.499L157.981 164.927L157.204 153.818L163.333 153.39L163.437 154.874L159.127 155.176ZM169.806 159.625L172.959 163.88L170.9 164.024L168.792 161.172L167.213 164.282L165.313 164.415L167.852 159.89L164.698 155.62L166.757 155.476L168.866 158.328L170.444 155.218L172.344 155.085L169.806 159.625ZM173.399 159.39C173.337 158.507 173.463 157.712 173.778 157.006C174.102 156.299 174.566 155.737 175.167 155.321C175.779 154.893 176.468 154.653 177.234 154.599C177.926 154.551 178.537 154.647 179.067 154.888C179.607 155.118 180.045 155.424 180.382 155.806L180.293 154.53L182.128 154.401L182.743 163.196L180.908 163.324L180.816 162.015C180.537 162.452 180.141 162.827 179.628 163.141C179.115 163.455 178.518 163.636 177.837 163.683C177.082 163.736 176.377 163.593 175.722 163.254C175.067 162.904 174.529 162.396 174.108 161.731C173.697 161.054 173.461 160.273 173.399 159.39ZM180.6 158.919C180.557 158.312 180.393 157.795 180.106 157.366C179.83 156.936 179.482 156.618 179.061 156.412C178.64 156.206 178.196 156.12 177.728 156.152C177.26 156.185 176.831 156.333 176.443 156.595C176.055 156.847 175.748 157.205 175.524 157.67C175.31 158.123 175.224 158.653 175.266 159.26C175.309 159.866 175.468 160.39 175.745 160.83C176.033 161.27 176.387 161.598 176.808 161.814C177.24 162.019 177.684 162.106 178.142 162.074C178.61 162.041 179.038 161.894 179.426 161.631C179.814 161.369 180.115 161.006 180.328 160.542C180.552 160.066 180.642 159.525 180.6 158.919ZM195.154 153.346C195.846 153.298 196.473 153.398 197.036 153.648C197.609 153.896 198.07 154.292 198.418 154.834C198.777 155.376 198.984 156.045 199.04 156.844L199.402 162.031L197.599 162.157L197.255 157.241C197.2 156.454 196.961 155.866 196.538 155.479C196.115 155.081 195.563 154.905 194.882 154.953C194.201 155.001 193.673 155.251 193.298 155.705C192.934 156.148 192.779 156.763 192.834 157.55L193.178 162.466L191.374 162.592L191.03 157.676C190.975 156.889 190.736 156.301 190.313 155.914C189.89 155.516 189.338 155.341 188.657 155.388C187.976 155.436 187.448 155.687 187.073 156.141C186.709 156.583 186.554 157.198 186.609 157.985L186.953 162.901L185.133 163.029L184.518 154.234L186.338 154.107L186.408 155.112C186.681 154.73 187.039 154.421 187.482 154.187C187.926 153.953 188.408 153.818 188.929 153.781C189.632 153.732 190.27 153.837 190.844 154.097C191.418 154.356 191.874 154.757 192.211 155.3C192.44 154.749 192.826 154.3 193.368 153.952C193.91 153.593 194.505 153.391 195.154 153.346ZM204.92 161.789C204.228 161.838 203.597 161.759 203.027 161.553C202.466 161.335 202.012 161.025 201.663 160.622C201.313 160.208 201.109 159.736 201.05 159.205L202.934 159.073C202.992 159.444 203.189 159.745 203.526 159.978C203.873 160.2 204.291 160.294 204.781 160.259C205.292 160.224 205.679 160.1 205.942 159.889C206.215 159.667 206.341 159.402 206.319 159.093C206.296 158.763 206.119 158.53 205.789 158.392C205.469 158.254 204.962 158.113 204.268 157.97C203.596 157.835 203.046 157.697 202.619 157.556C202.192 157.414 201.812 157.179 201.479 156.849C201.156 156.519 200.975 156.067 200.935 155.492C200.902 155.024 201.011 154.589 201.261 154.186C201.51 153.773 201.882 153.437 202.377 153.178C202.883 152.918 203.471 152.764 204.141 152.718C205.141 152.648 205.963 152.847 206.605 153.315C207.257 153.772 207.635 154.435 207.738 155.305L205.919 155.432C205.859 155.041 205.678 154.738 205.374 154.524C205.071 154.31 204.674 154.22 204.185 154.254C203.706 154.288 203.345 154.404 203.102 154.603C202.859 154.801 202.748 155.05 202.769 155.348C202.786 155.582 202.885 155.773 203.066 155.92C203.247 156.068 203.464 156.181 203.715 156.26C203.966 156.328 204.336 156.414 204.824 156.519C205.474 156.645 206.008 156.784 206.425 156.937C206.852 157.078 207.226 157.308 207.548 157.628C207.87 157.948 208.056 158.389 208.106 158.952C208.141 159.452 208.034 159.909 207.785 160.322C207.535 160.735 207.163 161.071 206.668 161.33C206.184 161.589 205.601 161.742 204.92 161.789Z" fill="white"/>
<path d="M45.616 234.242C45.616 235.698 44.426 237.098 42.256 237.098C40.31 237.098 38.812 236.034 38.812 234.312H40.52C40.59 235.11 41.15 235.754 42.256 235.754C43.376 235.754 44.006 235.152 44.006 234.326C44.006 231.974 38.84 233.5 38.84 229.916C38.84 228.208 40.198 227.144 42.186 227.144C44.048 227.144 45.364 228.124 45.504 229.79H43.74C43.684 229.132 43.11 228.53 42.102 228.502C41.178 228.474 40.464 228.922 40.464 229.86C40.464 232.058 45.616 230.686 45.616 234.242ZM47.4992 237V229.286H49.0952V237H47.4992ZM48.3112 228.264C47.7372 228.264 47.2892 227.816 47.2892 227.242C47.2892 226.668 47.7372 226.22 48.3112 226.22C48.8712 226.22 49.3192 226.668 49.3192 227.242C49.3192 227.816 48.8712 228.264 48.3112 228.264ZM62.1246 237V232.688C62.1246 231.274 61.3546 230.546 60.1926 230.546C59.0166 230.546 58.2466 231.274 58.2466 232.688V237H56.6646V232.688C56.6646 231.274 55.8946 230.546 54.7326 230.546C53.5566 230.546 52.7866 231.274 52.7866 232.688V237H51.1906V229.286H52.7866V230.168C53.3046 229.538 54.1446 229.16 55.0686 229.16C56.2866 229.16 57.3086 229.678 57.8406 230.686C58.3166 229.748 59.4086 229.16 60.5286 229.16C62.3346 229.16 63.7066 230.294 63.7066 232.45V237H62.1246ZM72.7235 229.286V237H71.1275V236.076C70.6235 236.734 69.7555 237.112 68.8455 237.112C67.0395 237.112 65.6675 235.978 65.6675 233.822V229.286H67.2495V233.584C67.2495 234.998 68.0195 235.726 69.1815 235.726C70.3575 235.726 71.1275 234.998 71.1275 233.584V229.286H72.7235ZM74.8293 237V226.64H76.4253V237H74.8293ZM77.9887 233.108C77.9887 230.728 79.5987 229.16 81.6287 229.16C82.9307 229.16 83.8267 229.776 84.3027 230.406V229.286H85.9127V237H84.3027V235.852C83.8127 236.51 82.8887 237.126 81.6007 237.126C79.5987 237.126 77.9887 235.488 77.9887 233.108ZM84.3027 233.136C84.3027 231.484 83.1687 230.546 81.9647 230.546C80.7747 230.546 79.6267 231.442 79.6267 233.108C79.6267 234.774 80.7747 235.74 81.9647 235.74C83.1687 235.74 84.3027 234.802 84.3027 233.136ZM88.261 234.858V230.588H87.351V229.286H88.261V227.368H89.871V229.286H91.747V230.588H89.871V234.858C89.871 235.432 90.095 235.67 90.767 235.67H91.747V237H90.487C89.115 237 88.261 236.426 88.261 234.858ZM96.466 230.504C95.388 230.504 94.52 231.232 94.352 232.45H98.622C98.594 231.26 97.656 230.504 96.466 230.504ZM100.078 234.704C99.644 236.048 98.426 237.126 96.536 237.126C94.324 237.126 92.686 235.558 92.686 233.136C92.686 230.714 94.254 229.16 96.536 229.16C98.734 229.16 100.288 230.686 100.288 232.954C100.288 233.22 100.274 233.472 100.232 233.738H94.338C94.45 235.012 95.36 235.782 96.536 235.782C97.516 235.782 98.062 235.306 98.356 234.704H100.078ZM107.091 232.94V237H105.495V229.286H107.091V230.406C107.539 229.636 108.309 229.16 109.401 229.16V230.812H108.995C107.819 230.812 107.091 231.302 107.091 232.94ZM114.116 230.504C113.038 230.504 112.17 231.232 112.002 232.45H116.272C116.244 231.26 115.306 230.504 114.116 230.504ZM117.728 234.704C117.294 236.048 116.076 237.126 114.186 237.126C111.974 237.126 110.336 235.558 110.336 233.136C110.336 230.714 111.904 229.16 114.186 229.16C116.384 229.16 117.938 230.686 117.938 232.954C117.938 233.22 117.924 233.472 117.882 233.738H111.988C112.1 235.012 113.01 235.782 114.186 235.782C115.166 235.782 115.712 235.306 116.006 234.704H117.728ZM118.977 233.108C118.977 230.728 120.587 229.16 122.617 229.16C123.919 229.16 124.815 229.776 125.291 230.406V229.286H126.901V237H125.291V235.852C124.801 236.51 123.877 237.126 122.589 237.126C120.587 237.126 118.977 235.488 118.977 233.108ZM125.291 233.136C125.291 231.484 124.157 230.546 122.953 230.546C121.763 230.546 120.615 231.442 120.615 233.108C120.615 234.774 121.763 235.74 122.953 235.74C124.157 235.74 125.291 234.802 125.291 233.136ZM128.997 237V226.64H130.593V237H128.997ZM139.573 230.504C138.495 230.504 137.627 231.232 137.459 232.45H141.729C141.701 231.26 140.763 230.504 139.573 230.504ZM143.185 234.704C142.751 236.048 141.533 237.126 139.643 237.126C137.431 237.126 135.793 235.558 135.793 233.136C135.793 230.714 137.361 229.16 139.643 229.16C141.841 229.16 143.395 230.686 143.395 232.954C143.395 233.22 143.381 233.472 143.339 233.738H137.445C137.557 235.012 138.467 235.782 139.643 235.782C140.623 235.782 141.169 235.306 141.463 234.704H143.185ZM148.956 237L147.29 234.382L145.722 237H144.056L146.548 233.206L144.056 229.286H145.862L147.528 231.904L149.096 229.286H150.762L148.27 233.094L150.762 237H148.956ZM151.42 233.108C151.42 230.728 153.03 229.16 155.06 229.16C156.362 229.16 157.258 229.776 157.734 230.406V229.286H159.344V237H157.734V235.852C157.244 236.51 156.32 237.126 155.032 237.126C153.03 237.126 151.42 235.488 151.42 233.108ZM157.734 233.136C157.734 231.484 156.6 230.546 155.396 230.546C154.206 230.546 153.058 231.442 153.058 233.108C153.058 234.774 154.206 235.74 155.396 235.74C156.6 235.74 157.734 234.802 157.734 233.136ZM172.375 237V232.688C172.375 231.274 171.605 230.546 170.443 230.546C169.267 230.546 168.497 231.274 168.497 232.688V237H166.915V232.688C166.915 231.274 166.145 230.546 164.983 230.546C163.807 230.546 163.037 231.274 163.037 232.688V237H161.441V229.286H163.037V230.168C163.555 229.538 164.395 229.16 165.319 229.16C166.537 229.16 167.559 229.678 168.091 230.686C168.567 229.748 169.659 229.16 170.779 229.16C172.585 229.16 173.957 230.294 173.957 232.45V237H172.375ZM179.092 233.136C179.092 230.728 180.66 229.16 182.872 229.16C184.762 229.16 185.994 230.098 186.428 231.722H184.706C184.44 230.98 183.824 230.504 182.872 230.504C181.584 230.504 180.73 231.456 180.73 233.136C180.73 234.83 181.584 235.782 182.872 235.782C183.824 235.782 184.412 235.362 184.706 234.564H186.428C185.994 236.076 184.762 237.126 182.872 237.126C180.66 237.126 179.092 235.558 179.092 233.136ZM195.369 233.136C195.369 235.558 193.577 237.126 191.365 237.126C189.167 237.126 187.501 235.558 187.501 233.136C187.501 230.714 189.237 229.16 191.435 229.16C193.633 229.16 195.369 230.714 195.369 233.136ZM189.125 233.136C189.125 234.886 190.161 235.74 191.365 235.74C192.555 235.74 193.731 234.886 193.731 233.136C193.731 231.386 192.597 230.546 191.407 230.546C190.203 230.546 189.125 231.386 189.125 233.136ZM202.42 237V232.688C202.42 231.274 201.65 230.546 200.488 230.546C199.312 230.546 198.542 231.274 198.542 232.688V237H196.946V229.286H198.542V230.168C199.06 229.538 199.914 229.16 200.838 229.16C202.644 229.16 204.002 230.294 204.002 232.45V237H202.42ZM205.506 233.108C205.506 230.728 207.116 229.16 209.16 229.16C210.168 229.16 211.232 229.636 211.82 230.364V226.64H213.43V237H211.82V235.838C211.33 236.538 210.406 237.126 209.146 237.126C207.116 237.126 205.506 235.488 205.506 233.108ZM211.82 233.136C211.82 231.484 210.686 230.546 209.482 230.546C208.292 230.546 207.144 231.442 207.144 233.108C207.144 234.774 208.292 235.74 209.482 235.74C210.686 235.74 211.82 234.802 211.82 233.136ZM215.527 237V229.286H217.123V237H215.527ZM216.339 228.264C215.765 228.264 215.317 227.816 215.317 227.242C215.317 226.668 215.765 226.22 216.339 226.22C216.899 226.22 217.347 226.668 217.347 227.242C217.347 227.816 216.899 228.264 216.339 228.264ZM219.47 234.858V230.588H218.56V229.286H219.47V227.368H221.08V229.286H222.956V230.588H221.08V234.858C221.08 235.432 221.304 235.67 221.976 235.67H222.956V237H221.696C220.324 237 219.47 236.426 219.47 234.858ZM224.427 237V229.286H226.023V237H224.427ZM225.239 228.264C224.665 228.264 224.217 227.816 224.217 227.242C224.217 226.668 224.665 226.22 225.239 226.22C225.799 226.22 226.247 226.668 226.247 227.242C226.247 227.816 225.799 228.264 225.239 228.264ZM235.468 233.136C235.468 235.558 233.676 237.126 231.464 237.126C229.266 237.126 227.6 235.558 227.6 233.136C227.6 230.714 229.336 229.16 231.534 229.16C233.732 229.16 235.468 230.714 235.468 233.136ZM229.224 233.136C229.224 234.886 230.26 235.74 231.464 235.74C232.654 235.74 233.83 234.886 233.83 233.136C233.83 231.386 232.696 230.546 231.506 230.546C230.302 230.546 229.224 231.386 229.224 233.136ZM242.52 237V232.688C242.52 231.274 241.75 230.546 240.588 230.546C239.412 230.546 238.642 231.274 238.642 232.688V237H237.046V229.286H238.642V230.168C239.16 229.538 240.014 229.16 240.938 229.16C242.744 229.16 244.102 230.294 244.102 232.45V237H242.52ZM251.892 234.844C251.892 236.146 250.758 237.126 248.938 237.126C247.09 237.126 245.788 236.034 245.718 234.634H247.37C247.426 235.264 248.028 235.782 248.91 235.782C249.834 235.782 250.324 235.39 250.324 234.858C250.324 233.346 245.844 234.214 245.844 231.386C245.844 230.154 246.992 229.16 248.812 229.16C250.562 229.16 251.71 230.098 251.794 231.638H250.198C250.142 230.966 249.624 230.504 248.756 230.504C247.902 230.504 247.454 230.854 247.454 231.372C247.454 232.926 251.808 232.058 251.892 234.844ZM257.505 234.858V230.588H256.595V229.286H257.505V227.368H259.115V229.286H260.991V230.588H259.115V234.858C259.115 235.432 259.339 235.67 260.011 235.67H260.991V237H259.731C258.359 237 257.505 236.426 257.505 234.858ZM269.812 233.136C269.812 235.558 268.02 237.126 265.808 237.126C263.61 237.126 261.944 235.558 261.944 233.136C261.944 230.714 263.68 229.16 265.878 229.16C268.076 229.16 269.812 230.714 269.812 233.136ZM263.568 233.136C263.568 234.886 264.604 235.74 265.808 235.74C266.998 235.74 268.174 234.886 268.174 233.136C268.174 231.386 267.04 230.546 265.85 230.546C264.646 230.546 263.568 231.386 263.568 233.136ZM276.623 230.434C277.127 229.734 278.093 229.16 279.311 229.16C281.355 229.16 282.937 230.728 282.937 233.108C282.937 235.488 281.341 237.126 279.311 237.126C278.037 237.126 277.127 236.552 276.623 235.88V237H275.027V226.64H276.623V230.434ZM281.313 233.108C281.313 231.442 280.165 230.546 278.961 230.546C277.771 230.546 276.623 231.484 276.623 233.136C276.623 234.802 277.771 235.74 278.961 235.74C280.165 235.74 281.313 234.774 281.313 233.108ZM291.865 233.136C291.865 235.558 290.073 237.126 287.861 237.126C285.663 237.126 283.997 235.558 283.997 233.136C283.997 230.714 285.733 229.16 287.931 229.16C290.129 229.16 291.865 230.714 291.865 233.136ZM285.621 233.136C285.621 234.886 286.657 235.74 287.861 235.74C289.051 235.74 290.227 234.886 290.227 233.136C290.227 231.386 289.093 230.546 287.903 230.546C286.699 230.546 285.621 231.386 285.621 233.136ZM300.793 233.136C300.793 235.558 299.001 237.126 296.789 237.126C294.591 237.126 292.925 235.558 292.925 233.136C292.925 230.714 294.661 229.16 296.859 229.16C299.057 229.16 300.793 230.714 300.793 233.136ZM294.549 233.136C294.549 234.886 295.585 235.74 296.789 235.74C297.979 235.74 299.155 234.886 299.155 233.136C299.155 231.386 298.021 230.546 296.831 230.546C295.627 230.546 294.549 231.386 294.549 233.136ZM308.124 234.844C308.124 236.146 306.99 237.126 305.17 237.126C303.322 237.126 302.02 236.034 301.95 234.634H303.602C303.658 235.264 304.26 235.782 305.142 235.782C306.066 235.782 306.556 235.39 306.556 234.858C306.556 233.346 302.076 234.214 302.076 231.386C302.076 230.154 303.224 229.16 305.044 229.16C306.794 229.16 307.942 230.098 308.026 231.638H306.43C306.374 230.966 305.856 230.504 304.988 230.504C304.134 230.504 303.686 230.854 303.686 231.372C303.686 232.926 308.04 232.058 308.124 234.844ZM310.101 234.858V230.588H309.191V229.286H310.101V227.368H311.711V229.286H313.587V230.588H311.711V234.858C311.711 235.432 311.935 235.67 312.607 235.67H313.587V237H312.327C310.955 237 310.101 236.426 310.101 234.858ZM38.518 253.136C38.518 250.728 40.086 249.16 42.298 249.16C44.188 249.16 45.42 250.098 45.854 251.722H44.132C43.866 250.98 43.25 250.504 42.298 250.504C41.01 250.504 40.156 251.456 40.156 253.136C40.156 254.83 41.01 255.782 42.298 255.782C43.25 255.782 43.838 255.362 44.132 254.564H45.854C45.42 256.076 44.188 257.126 42.298 257.126C40.086 257.126 38.518 255.558 38.518 253.136ZM54.7945 253.136C54.7945 255.558 53.0025 257.126 50.7905 257.126C48.5925 257.126 46.9265 255.558 46.9265 253.136C46.9265 250.714 48.6625 249.16 50.8605 249.16C53.0585 249.16 54.7945 250.714 54.7945 253.136ZM48.5505 253.136C48.5505 254.886 49.5865 255.74 50.7905 255.74C51.9805 255.74 53.1565 254.886 53.1565 253.136C53.1565 251.386 52.0225 250.546 50.8325 250.546C49.6285 250.546 48.5505 251.386 48.5505 253.136ZM61.8463 257V252.688C61.8463 251.274 61.0763 250.546 59.9143 250.546C58.7383 250.546 57.9683 251.274 57.9683 252.688V257H56.3723V249.286H57.9683V250.168C58.4863 249.538 59.3403 249.16 60.2643 249.16C62.0703 249.16 63.4283 250.294 63.4283 252.45V257H61.8463ZM65.6601 257V250.588H64.7501V249.286H65.6601V248.74C65.6601 246.962 66.5701 246.192 68.5861 246.192V247.522C67.6061 247.522 67.2701 247.858 67.2701 248.74V249.286H68.6981V250.588H67.2701V257H65.6601ZM70.1125 257V249.286H71.7085V257H70.1125ZM70.9245 248.264C70.3505 248.264 69.9025 247.816 69.9025 247.242C69.9025 246.668 70.3505 246.22 70.9245 246.22C71.4845 246.22 71.9325 246.668 71.9325 247.242C71.9325 247.816 71.4845 248.264 70.9245 248.264ZM73.2719 253.108C73.2719 250.728 74.8819 249.16 76.9259 249.16C77.9339 249.16 78.9979 249.636 79.5859 250.364V246.64H81.1959V257H79.5859V255.838C79.0959 256.538 78.1719 257.126 76.9119 257.126C74.8819 257.126 73.2719 255.488 73.2719 253.108ZM79.5859 253.136C79.5859 251.484 78.4519 250.546 77.2479 250.546C76.0579 250.546 74.9099 251.442 74.9099 253.108C74.9099 254.774 76.0579 255.74 77.2479 255.74C78.4519 255.74 79.5859 254.802 79.5859 253.136ZM86.5402 250.504C85.4622 250.504 84.5942 251.232 84.4262 252.45H88.6962C88.6682 251.26 87.7302 250.504 86.5402 250.504ZM90.1522 254.704C89.7182 256.048 88.5002 257.126 86.6102 257.126C84.3982 257.126 82.7602 255.558 82.7602 253.136C82.7602 250.714 84.3282 249.16 86.6102 249.16C88.8082 249.16 90.3622 250.686 90.3622 252.954C90.3622 253.22 90.3482 253.472 90.3062 253.738H84.4122C84.5242 255.012 85.4342 255.782 86.6102 255.782C87.5902 255.782 88.1362 255.306 88.4302 254.704H90.1522ZM97.4068 257V252.688C97.4068 251.274 96.6368 250.546 95.4748 250.546C94.2988 250.546 93.5288 251.274 93.5288 252.688V257H91.9328V249.286H93.5288V250.168C94.0468 249.538 94.9008 249.16 95.8248 249.16C97.6308 249.16 98.9888 250.294 98.9888 252.45V257H97.4068ZM100.493 253.136C100.493 250.728 102.061 249.16 104.273 249.16C106.163 249.16 107.395 250.098 107.829 251.722H106.107C105.841 250.98 105.225 250.504 104.273 250.504C102.985 250.504 102.131 251.456 102.131 253.136C102.131 254.83 102.985 255.782 104.273 255.782C105.225 255.782 105.813 255.362 106.107 254.564H107.829C107.395 256.076 106.163 257.126 104.273 257.126C102.061 257.126 100.493 255.558 100.493 253.136ZM112.667 250.504C111.589 250.504 110.721 251.232 110.553 252.45H114.823C114.795 251.26 113.857 250.504 112.667 250.504ZM116.279 254.704C115.845 256.048 114.627 257.126 112.737 257.126C110.525 257.126 108.887 255.558 108.887 253.136C108.887 250.714 110.455 249.16 112.737 249.16C114.935 249.16 116.489 250.686 116.489 252.954C116.489 253.22 116.475 253.472 116.433 253.738H110.539C110.651 255.012 111.561 255.782 112.737 255.782C113.717 255.782 114.263 255.306 114.557 254.704H116.279ZM119.712 256.076C119.712 256.65 119.264 257.098 118.704 257.098C118.13 257.098 117.682 256.65 117.682 256.076C117.682 255.502 118.13 255.054 118.704 255.054C119.264 255.054 119.712 255.502 119.712 256.076Z" fill="#E9E9E9"/>
</svg>
