<svg width="24" height="25" viewBox="0 0 24 25" fill="none" xmlns="http://www.w3.org/2000/svg">
<path d="M16 7.5C16 7.23478 16.1054 6.98043 16.2929 6.79289C16.4804 6.60536 16.7348 6.5 17 6.5C17.2652 6.5 17.5196 6.60536 17.7071 6.79289C17.8946 6.98043 18 7.23478 18 7.5C18 7.76522 17.8946 8.01957 17.7071 8.20711C17.5196 8.39464 17.2652 8.5 17 8.5C16.7348 8.5 16.4804 8.39464 16.2929 8.20711C16.1054 8.01957 16 7.76522 16 7.5Z" fill="white"/>
<path fill-rule="evenodd" clip-rule="evenodd" d="M12 7.75C10.7402 7.75 9.53204 8.25045 8.64124 9.14124C7.75045 10.032 7.25 11.2402 7.25 12.5C7.25 13.7598 7.75045 14.968 8.64124 15.8588C9.53204 16.7496 10.7402 17.25 12 17.25C13.2598 17.25 14.468 16.7496 15.3588 15.8588C16.2496 14.968 16.75 13.7598 16.75 12.5C16.75 11.2402 16.2496 10.032 15.3588 9.14124C14.468 8.25045 13.2598 7.75 12 7.75ZM8.75 12.5C8.75 11.638 9.09241 10.8114 9.7019 10.2019C10.3114 9.59241 11.138 9.25 12 9.25C12.862 9.25 13.6886 9.59241 14.2981 10.2019C14.9076 10.8114 15.25 11.638 15.25 12.5C15.25 13.362 14.9076 14.1886 14.2981 14.7981C13.6886 15.4076 12.862 15.75 12 15.75C11.138 15.75 10.3114 15.4076 9.7019 14.7981C9.09241 14.1886 8.75 13.362 8.75 12.5Z" fill="white"/>
<path fill-rule="evenodd" clip-rule="evenodd" d="M17.258 3.33316C13.7634 2.94559 10.2366 2.94559 6.74201 3.33316C4.73001 3.55816 3.10501 5.14316 2.86901 7.16516C2.45512 10.7098 2.45512 14.2905 2.86901 17.8352C3.10501 19.8572 4.72901 21.4422 6.74201 21.6672C10.2367 22.0539 13.7633 22.0539 17.258 21.6672C19.27 21.4422 20.895 19.8572 21.131 17.8352C21.5449 14.2905 21.5449 10.7098 21.131 7.16516C20.895 5.14316 19.271 3.55816 17.258 3.33316ZM6.90801 4.82316C10.2923 4.44787 13.7077 4.44787 17.092 4.82316C18.422 4.97316 19.487 6.02216 19.642 7.34016C20.0432 10.7685 20.0432 14.2319 19.642 17.6602C19.5618 18.3052 19.2666 18.9044 18.8039 19.3609C18.3412 19.8174 17.7381 20.1047 17.092 20.1762C13.7077 20.5515 10.2923 20.5515 6.90801 20.1762C6.26195 20.1047 5.65886 19.8174 5.19617 19.3609C4.73347 18.9044 4.43819 18.3052 4.35801 17.6602C3.95687 14.2319 3.95687 10.7685 4.35801 7.34016C4.43819 6.69512 4.73347 6.09594 5.19617 5.63941C5.65886 5.18289 6.26195 4.89467 6.90801 4.82316Z" fill="white"/>
</svg>
