<svg width="24" height="25" viewBox="0 0 24 25" fill="none" xmlns="http://www.w3.org/2000/svg">
<path d="M12.001 10.05C12.918 9.113 14.112 8.5 15.501 8.5C16.9597 8.5 18.3586 9.07946 19.3901 10.1109C20.4215 11.1424 21.001 12.5413 21.001 14V21.5H19.001V14C19.001 13.0717 18.6322 12.1815 17.9759 11.5251C17.3195 10.8687 16.4292 10.5 15.501 10.5C14.5727 10.5 13.6825 10.8687 13.0261 11.5251C12.3697 12.1815 12.001 13.0717 12.001 14V21.5H10.001V9H12.001V10.05ZM5.00098 7C4.60315 7 4.22162 6.84196 3.94032 6.56066C3.65901 6.27936 3.50098 5.89782 3.50098 5.5C3.50098 5.10218 3.65901 4.72064 3.94032 4.43934C4.22162 4.15804 4.60315 4 5.00098 4C5.3988 4 5.78033 4.15804 6.06164 4.43934C6.34294 4.72064 6.50098 5.10218 6.50098 5.5C6.50098 5.89782 6.34294 6.27936 6.06164 6.56066C5.78033 6.84196 5.3988 7 5.00098 7ZM4.00098 9H6.00098V21.5H4.00098V9Z" fill="white"/>
</svg>
