<svg width="28" height="28" viewBox="0 0 28 28" fill="none" xmlns="http://www.w3.org/2000/svg">
<path d="M8.16699 9.91699L11.5993 11.947C13.6002 13.13 14.3993 13.13 16.4013 11.947L19.8337 9.91699" stroke="white" stroke-width="2" stroke-linecap="round" stroke-linejoin="round"/>
<path d="M2.35211 15.7222C2.42794 19.298 2.46644 21.0865 3.78594 22.4107C5.10544 23.736 6.94177 23.7815 10.6156 23.8737C12.8789 23.932 15.1213 23.932 17.3846 23.8737C21.0584 23.7815 22.8948 23.736 24.2143 22.4107C25.5338 21.0865 25.5723 19.298 25.6493 15.7222C25.6726 14.5718 25.6726 13.4285 25.6493 12.2782C25.5723 8.70235 25.5338 6.91385 24.2143 5.58968C22.8948 4.26435 21.0584 4.21885 17.3846 4.12668C15.1286 4.06975 12.8716 4.06975 10.6156 4.12668C6.94177 4.21885 5.10544 4.26435 3.78594 5.58968C2.46644 6.91385 2.42794 8.70235 2.35094 12.2782C2.32638 13.426 2.32755 14.5743 2.35211 15.7222Z" stroke="white" stroke-width="2" stroke-linecap="round" stroke-linejoin="round"/>
</svg>
