<svg width="297" height="74" viewBox="0 0 297 74" fill="none" xmlns="http://www.w3.org/2000/svg">
<g filter="url(#filter0_d_191_453)">
<rect width="296.784" height="73.4123" rx="15.3278" fill="white"/>
<path d="M54.4651 29.102C58.1939 22.963 54.2177 18.9876 48.0792 22.7164C46.3751 15.7391 40.7522 15.7391 39.0477 22.7164C32.9088 18.9876 28.9329 22.9639 32.6618 29.102C25.6844 30.8064 25.6844 36.4289 32.6618 38.1339C28.9329 44.2728 32.9092 48.2482 39.0477 44.5194C40.7517 51.4968 46.3743 51.4968 48.0792 44.5194C54.2181 48.2482 58.1939 44.2719 54.4651 38.1339C61.4421 36.4294 61.4421 30.8069 54.4651 29.102Z" fill="#FFC0A8"/>
<path d="M78.9048 32.1348V20.8728H81.4702L85.0521 29.2467L88.6339 20.8728H91.1832V32.1348H88.9244V24.8097L85.9072 32.1348H84.1969L81.1636 24.8097V32.1348H78.9048ZM102.048 27.6655C102.048 30.4729 99.9832 32.28 97.3855 32.28C94.804 32.28 92.8517 30.4729 92.8517 27.6655C92.8517 24.8419 94.8686 23.051 97.4501 23.051C100.032 23.051 102.048 24.8419 102.048 27.6655ZM95.1428 27.6655C95.1428 29.4403 96.1755 30.3116 97.3855 30.3116C98.5795 30.3116 99.7251 29.4403 99.7251 27.6655C99.7251 25.8746 98.6118 25.0194 97.4178 25.0194C96.2239 25.0194 95.1428 25.8746 95.1428 27.6655ZM103.125 27.6655C103.125 24.8581 104.964 23.051 107.545 23.051C109.772 23.051 111.272 24.2127 111.757 26.2134H109.32C109.062 25.4551 108.465 24.971 107.529 24.971C106.271 24.971 105.432 25.923 105.432 27.6655C105.432 29.408 106.271 30.3438 107.529 30.3438C108.465 30.3438 109.046 29.9243 109.32 29.1176H111.757C111.272 31.0215 109.772 32.28 107.545 32.28C104.964 32.28 103.125 30.4729 103.125 27.6655ZM113.411 32.1348V20.1952H115.67V26.9878L118.671 23.1962H121.608L117.671 27.6816L121.64 32.1348H118.703L115.67 28.327V32.1348H113.411ZM126.081 22.696V20.8728H134.342V22.696H131.341V32.1348H129.082V22.696H126.081ZM139.83 24.9065C138.749 24.9065 137.894 25.6003 137.717 26.8265H141.96C141.928 25.6487 140.992 24.9065 139.83 24.9065ZM144.074 29.3274C143.59 30.9731 142.105 32.28 139.895 32.28C137.297 32.28 135.409 30.4729 135.409 27.6655C135.409 24.8419 137.249 23.051 139.895 23.051C142.476 23.051 144.3 24.8097 144.3 27.4719C144.3 27.7623 144.283 28.0527 144.235 28.3431H137.701C137.813 29.6662 138.717 30.4084 139.846 30.4084C140.815 30.4084 141.347 29.9243 141.637 29.3274H144.074ZM152.886 29.5855C152.886 31.1183 151.547 32.28 149.369 32.28C147.126 32.28 145.561 30.9731 145.464 29.3112H147.739C147.82 29.9889 148.449 30.5052 149.353 30.5052C150.24 30.5052 150.724 30.1018 150.724 29.5855C150.724 27.9882 145.674 29.0047 145.674 25.7293C145.674 24.245 146.997 23.051 149.208 23.051C151.37 23.051 152.676 24.2288 152.806 26.0036H150.643C150.579 25.3098 150.03 24.8419 149.143 24.8419C148.304 24.8419 147.868 25.1808 147.868 25.6971C147.868 27.3267 152.822 26.3102 152.886 29.5855ZM155.095 29.3596V25.0517H154.03V23.1962H155.095V20.9858H157.37V23.1962H159.371V25.0517H157.37V29.3758C157.37 29.9727 157.612 30.2309 158.322 30.2309H159.371V32.1348H157.951C156.241 32.1348 155.095 31.4087 155.095 29.3596Z" fill="#0A0A0A"/>
<path d="M78.9366 46.9583C78.9366 48.4782 79.9047 49.4463 81.2407 49.4463C82.5766 49.4463 83.5447 48.4782 83.5447 46.9583C83.5447 45.4385 82.5766 44.4897 81.2407 44.4897C79.9047 44.4897 78.9366 45.4385 78.9366 46.9583ZM84.6773 46.9583C84.6773 48.2265 84.0868 49.2527 83.1671 49.8432L84.7838 51.5567H83.3801L82.199 50.2788C81.8989 50.366 81.5795 50.4047 81.2407 50.4047C79.3432 50.4047 77.804 48.9816 77.804 46.9583C77.804 44.9447 79.3432 43.5217 81.2407 43.5217C83.1574 43.5217 84.6773 44.9447 84.6773 46.9583ZM90.6223 45.0028V50.3369H89.5187V49.698C89.1702 50.153 88.57 50.4144 87.9408 50.4144C86.692 50.4144 85.7433 49.6302 85.7433 48.1394V45.0028H86.8372V47.9748C86.8372 48.9526 87.3696 49.456 88.1731 49.456C88.9863 49.456 89.5187 48.9526 89.5187 47.9748V45.0028H90.6223ZM94.3244 45.8451C93.579 45.8451 92.9788 46.3484 92.8626 47.1907H95.8152C95.7959 46.3678 95.1473 45.8451 94.3244 45.8451ZM96.822 48.7493C96.5219 49.6786 95.6797 50.424 94.3728 50.424C92.8432 50.424 91.7106 49.3398 91.7106 47.665C91.7106 45.9903 92.7948 44.9157 94.3728 44.9157C95.8927 44.9157 96.9672 45.9709 96.9672 47.5392C96.9672 47.7231 96.9576 47.8974 96.9285 48.0813H92.8529C92.9304 48.9622 93.5596 49.4947 94.3728 49.4947C95.0505 49.4947 95.428 49.1655 95.6313 48.7493H96.822ZM102.032 48.8461C102.032 49.7464 101.248 50.424 99.9894 50.424C98.7116 50.424 97.8113 49.6689 97.7629 48.7009H98.9052C98.9439 49.1365 99.3602 49.4947 99.9701 49.4947C100.609 49.4947 100.948 49.2236 100.948 48.8558C100.948 47.8102 97.85 48.4104 97.85 46.4549C97.85 45.603 98.6438 44.9157 99.9023 44.9157C101.112 44.9157 101.906 45.5643 101.964 46.6292H100.861C100.822 46.1645 100.464 45.8451 99.8636 45.8451C99.2731 45.8451 98.9633 46.0871 98.9633 46.4453C98.9633 47.5198 101.974 46.9196 102.032 48.8461ZM103.399 48.8558V45.9031H102.77V45.0028H103.399V43.6766H104.512V45.0028H105.809V45.9031H104.512V48.8558C104.512 49.2527 104.667 49.4172 105.132 49.4172H105.809V50.3369H104.938C103.989 50.3369 103.399 49.94 103.399 48.8558ZM106.826 50.3369V45.0028H107.93V50.3369H106.826ZM107.388 44.2961C106.991 44.2961 106.681 43.9863 106.681 43.5894C106.681 43.1925 106.991 42.8827 107.388 42.8827C107.775 42.8827 108.085 43.1925 108.085 43.5894C108.085 43.9863 107.775 44.2961 107.388 44.2961ZM114.461 47.665C114.461 49.3398 113.222 50.424 111.693 50.424C110.173 50.424 109.021 49.3398 109.021 47.665C109.021 45.9903 110.221 44.9157 111.741 44.9157C113.261 44.9157 114.461 45.9903 114.461 47.665ZM110.144 47.665C110.144 48.8751 110.86 49.4656 111.693 49.4656C112.516 49.4656 113.329 48.8751 113.329 47.665C113.329 46.4549 112.545 45.8741 111.722 45.8741C110.889 45.8741 110.144 46.4549 110.144 47.665ZM119.338 50.3369V47.3552C119.338 46.3775 118.805 45.8741 118.002 45.8741C117.188 45.8741 116.656 46.3775 116.656 47.3552V50.3369H115.552V45.0028H116.656V45.6127C117.014 45.1771 117.605 44.9157 118.244 44.9157C119.492 44.9157 120.431 45.6998 120.431 47.1907V50.3369H119.338ZM128.149 48.4104C128.149 47.7425 127.645 47.3359 126.91 47.3359H125.457V49.4366H126.948C127.694 49.4366 128.149 49.0591 128.149 48.4104ZM127.974 45.4772C127.974 44.8673 127.539 44.5091 126.822 44.5091H125.457V46.4356H126.822C127.539 46.4356 127.974 46.0968 127.974 45.4772ZM129.252 48.5266C129.252 49.5528 128.42 50.3369 127.045 50.3369H124.354V43.6088H126.919C128.342 43.6088 129.097 44.3929 129.097 45.3417C129.097 46.1548 128.604 46.6486 127.955 46.8809C128.672 47.0067 129.252 47.7231 129.252 48.5266ZM130.084 47.6457C130.084 45.9999 131.197 44.9157 132.601 44.9157C133.501 44.9157 134.121 45.3417 134.45 45.7773V45.0028H135.563V50.3369H134.45V49.5431C134.111 49.9981 133.472 50.424 132.581 50.424C131.197 50.424 130.084 49.2914 130.084 47.6457ZM134.45 47.665C134.45 46.5227 133.666 45.8741 132.833 45.8741C132.01 45.8741 131.216 46.4937 131.216 47.6457C131.216 48.7977 132.01 49.4656 132.833 49.4656C133.666 49.4656 134.45 48.817 134.45 47.665ZM140.798 50.3369V47.3552C140.798 46.3775 140.265 45.8741 139.462 45.8741C138.649 45.8741 138.116 46.3775 138.116 47.3552V50.3369H137.013V45.0028H138.116V45.6127C138.474 45.1771 139.065 44.9157 139.704 44.9157C140.953 44.9157 141.892 45.6998 141.892 47.1907V50.3369H140.798ZM143.299 50.3369V43.1732H144.403V47.3359L146.339 45.0028H147.869L145.41 47.6747L147.869 50.3369H146.378L144.403 48.0426V50.3369H143.299Z" fill="#6D6D6D"/>
</g>
<defs>
<filter id="filter0_d_191_453" x="-20.8176" y="-21.486" width="338.419" height="115.047" filterUnits="userSpaceOnUse" color-interpolation-filters="sRGB">
<feFlood flood-opacity="0" result="BackgroundImageFix"/>
<feColorMatrix in="SourceAlpha" type="matrix" values="0 0 0 0 0 0 0 0 0 0 0 0 0 0 0 0 0 0 127 0" result="hardAlpha"/>
<feMorphology radius="13.8784" operator="erode" in="SourceAlpha" result="effect1_dropShadow_191_453"/>
<feOffset dy="-0.668432"/>
<feGaussianBlur stdDeviation="17.348"/>
<feComposite in2="hardAlpha" operator="out"/>
<feColorMatrix type="matrix" values="0 0 0 0 0.1125 0 0 0 0 0.1125 0 0 0 0 0.1125 0 0 0 0.17 0"/>
<feBlend mode="normal" in2="BackgroundImageFix" result="effect1_dropShadow_191_453"/>
<feBlend mode="normal" in="SourceGraphic" in2="effect1_dropShadow_191_453" result="shape"/>
</filter>
</defs>
</svg>
