<svg width="170" height="175" viewBox="0 0 170 175" fill="none" xmlns="http://www.w3.org/2000/svg">
<path d="M52.3314 82.9386C48.1271 82.1202 44.35 82.713 40.7507 84.3195C32.5357 87.9688 26.6654 94.3619 22.6012 102.713C19.5901 108.866 17.6759 115.391 16.8565 122.295C16.5251 125.113 16.1278 127.913 15.9603 130.75C15.8798 131.789 15.6893 132.798 15.3921 133.784C14.784 135.917 13.1454 137.106 11.2258 136.919C9.20614 136.719 7.76669 135.361 7.37138 133.243C7.10109 131.779 7.34085 130.332 7.43877 128.872C7.87313 122.585 8.70005 116.358 10.4278 110.339C13.683 99.0075 18.9162 89.0101 27.9208 81.7107C34.9932 75.982 42.7616 72.5275 51.8838 73.501C53.411 73.6676 54.9013 74.0144 56.3537 74.5461C57.761 75.0506 58.7251 74.7402 59.7891 73.631C63.9991 69.2721 68.8375 65.9582 74.3067 63.7001C76.9699 62.5668 79.7198 61.8072 82.5654 61.4236C85.4121 61.0353 88.2577 61.037 91.1078 61.4252C92.6229 61.6235 94.1673 61.6547 95.6317 62.1546C96.7429 62.5242 97.2063 61.9937 97.643 60.9906C99.5796 56.5191 101.999 52.3878 105.198 48.807C110.561 42.8077 116.683 38.0834 124.287 35.8705C129.928 34.2242 135.689 34.0864 141.509 34.5448C146.361 34.9272 150.733 36.7616 154.96 39.1872C156.95 40.3244 158.976 41.3909 160.926 42.6022C162.496 43.576 163.412 45.0989 163.326 47.0923C163.248 48.8926 162.335 50.1976 160.796 50.8535C159.411 51.4506 158.007 51.3774 156.624 50.5441C154.236 49.1046 151.779 47.8016 149.374 46.3927C145.421 44.076 141.114 43.5449 136.751 43.4945C122.715 43.3426 112.785 50.4576 106.207 63.3947C105.368 65.0451 105.385 65.1748 107.074 65.9803C111.622 68.1673 115.675 71.1016 119.045 75.0373C126.2 83.3915 129.137 93.3651 128.679 104.52C128.424 110.576 125.956 115.57 121.859 119.684C117.172 124.389 112.389 124.601 106.968 120.707C100.829 116.295 96.9397 110.033 94.7261 102.581C92.6669 95.6557 92.5546 88.4951 92.7897 81.3281C92.8552 78.5687 93.1571 75.838 93.6943 73.1408C94.0769 71.2975 93.9731 71.1194 92.152 70.8085C86.1896 69.7913 80.4309 70.3851 75.0399 73.4399C72.2023 75.0466 69.4377 76.803 66.9657 79.0336C66.1238 79.7874 66.167 80.2894 66.9124 81.0908C74.6429 89.4449 78.6241 99.6101 79.2858 111.222C79.7377 119.14 78.1954 126.545 72.8512 132.419C69.0725 136.569 64.3811 138.697 58.8864 137.861C54.4198 137.187 50.9956 134.422 48.4518 130.534C41.9962 120.662 41.4343 110.078 45.1387 99.0077C46.0583 96.2534 46.9349 93.4825 48.2254 90.9033C49.517 88.3193 50.8549 85.7979 52.3314 82.9386ZM60.3652 87.1563C56.3162 93.2099 53.5815 99.5428 52.061 106.508C50.6262 113.082 51.6421 119.16 55.111 124.794C58.2066 129.817 63.0768 130.199 66.8877 125.787C69.291 123.003 70.3284 119.595 70.6342 115.935C71.2289 108.87 69.6805 102.222 66.6736 95.9626C65.1298 92.7442 63.2546 89.7267 60.3652 87.1563ZM101.792 76.7153C101.297 80.4695 101.124 84.2408 101.279 88.0305C101.471 93.5663 102.022 99.0487 104.507 104.082C106.298 107.727 108.556 110.953 111.862 113.175C113.75 114.45 114.805 114.334 116.354 112.621C118.233 110.55 119.795 108.134 119.998 105.222C120.715 95.2525 118.187 86.4497 111.122 79.486C109.087 77.4863 106.743 75.9585 104.258 74.6932C102.718 73.9127 102.417 74.1065 101.973 75.9485C101.93 76.1169 101.892 76.2818 101.792 76.7153Z" fill="#C87062"/>
</svg>
