<svg width="51" height="55" viewBox="0 0 51 55" fill="none" xmlns="http://www.w3.org/2000/svg">
<path d="M40.7676 24.7047C41.6614 24.0846 42.4919 23.311 43.1036 22.3743C47.3567 15.8617 47.8472 7.43311 41.7732 2.87296C35.6998 -1.68665 28.4865 1.73004 24.2268 8.20231C23.6152 9.13965 23.2152 10.2005 22.9835 11.3536C22.4045 10.3947 21.6836 9.50483 20.8099 8.8483C14.7425 4.32845 6.88083 3.80267 2.62171 10.2748C-1.63137 16.7874 1.55575 24.5207 7.5922 29.0879C8.46584 29.7438 9.456 30.1733 10.5307 30.4212C9.63698 31.0419 8.80653 31.8155 8.1948 32.7522C3.94161 39.2641 3.45124 47.6934 9.52527 52.2535C15.5986 56.8131 22.8119 53.3964 27.0716 46.9242C27.6832 45.9868 28.0832 44.9259 28.315 43.7729C28.894 44.7318 29.6148 45.6216 30.4885 46.2782C36.5625 50.8377 44.4241 51.3634 48.6767 44.8516C52.9298 38.3391 49.7426 30.6051 43.7062 26.0385C42.7956 25.3896 41.8054 24.9602 40.7676 24.7047ZM26.1298 27.9238C26.1298 27.9238 26.0427 28.5569 25.9767 29.5546C25.5965 28.6412 25.3126 28.0783 25.3126 28.0783C25.3126 28.0783 24.7597 27.9777 23.7916 27.9141C24.6441 27.5069 25.1686 27.2027 25.1686 27.2027C25.1686 27.2027 25.2558 26.5696 25.3217 25.5718C25.702 26.4852 25.9858 27.0482 25.9858 27.0482C25.9858 27.0482 26.5757 27.1418 27.5068 27.2117C26.6173 27.6265 26.1298 27.9238 26.1298 27.9238Z" fill="#FFB499"/>
</svg>
