<svg width="289" height="97" viewBox="0 0 289 97" fill="none" xmlns="http://www.w3.org/2000/svg">
<g filter="url(#filter0_d_215_73)">
<rect width="289" height="96.0285" rx="14.0182" fill="white"/>
<path d="M60.4748 16.9468H38.6112C36.4892 16.9468 34.7529 18.6931 34.7529 20.8274V69.9826C34.7529 72.117 36.4892 73.8633 38.6112 73.8633H72.0497C74.1717 73.8633 75.908 72.117 75.908 69.9826V32.4695L66.9053 26.0017L60.4748 16.9468Z" fill="#4285F4"/>
<path d="M61.6035 31.3342L75.9081 45.7186V32.4693L61.6035 31.3342Z" fill="url(#paint0_linear_215_73)"/>
<path d="M45.042 58.3406H65.6195V55.7535H45.042V58.3406ZM45.042 63.5148H60.4751V60.9277H45.042V63.5148ZM45.042 45.405V47.9921H65.6195V45.405H45.042ZM45.042 53.1664H65.6195V50.5793H45.042V53.1664Z" fill="#F1F1F1"/>
<path d="M60.4746 16.9468V28.5888C60.4746 30.7329 62.2012 32.4695 64.3329 32.4695H75.9077L60.4746 16.9468Z" fill="#A1C2FA"/>
<path d="M38.6112 16.9468C36.4892 16.9468 34.7529 18.6931 34.7529 20.8274V21.1508C34.7529 19.0165 36.4892 17.2702 38.6112 17.2702H60.4748V16.9468H38.6112Z" fill="white" fill-opacity="0.2"/>
<path d="M72.0497 73.5399H38.6112C36.4892 73.5399 34.7529 71.7935 34.7529 69.6592V69.9826C34.7529 72.1169 36.4892 73.8632 38.6112 73.8632H72.0497C74.1717 73.8632 75.908 72.1169 75.908 69.9826V69.6592C75.908 71.7935 74.1717 73.5399 72.0497 73.5399Z" fill="#1A237E" fill-opacity="0.2"/>
<path d="M64.3334 32.4693C62.2017 32.4693 60.4751 30.7327 60.4751 28.5886V28.912C60.4751 31.0561 62.2017 32.7927 64.3334 32.7927H75.9082V32.4693H64.3334Z" fill="#1A237E" fill-opacity="0.1"/>
<path d="M60.4748 16.9468H38.6112C36.4892 16.9468 34.7529 18.6931 34.7529 20.8274V69.9826C34.7529 72.117 36.4892 73.8633 38.6112 73.8633H72.0497C74.1717 73.8633 75.908 72.117 75.908 69.9826V32.4695L60.4748 16.9468Z" fill="url(#paint1_radial_215_73)"/>
<path d="M112.618 39.8274C112.618 41.8394 111.009 43.6503 108.1 43.6503C105.448 43.6503 103.4 42.2601 103.363 39.8457H106.107C106.18 40.87 106.857 41.5468 108.046 41.5468C109.253 41.5468 109.966 40.9066 109.966 39.992C109.966 37.2301 103.381 38.8946 103.4 34.2669C103.4 31.9622 105.265 30.5721 107.899 30.5721C110.515 30.5721 112.307 31.9073 112.472 34.212H109.655C109.6 33.3706 108.924 32.7122 107.826 32.6939C106.82 32.6573 106.07 33.1511 106.07 34.1937C106.07 36.7545 112.618 35.3278 112.618 39.8274ZM115.241 40.3761V35.4924H114.034V33.3889H115.241V30.883H117.82V33.3889H120.088V35.4924H117.82V40.3944C117.82 41.0712 118.094 41.3639 118.899 41.3639H120.088V43.5222H118.478C116.54 43.5222 115.241 42.6991 115.241 40.3761ZM131.496 33.3889V43.5222H128.917V42.2418C128.277 43.1015 127.161 43.6503 125.899 43.6503C123.539 43.6503 121.838 42.1138 121.838 39.3335V33.3889H124.399V38.9677C124.399 40.5956 125.295 41.4736 126.649 41.4736C128.039 41.4736 128.917 40.5956 128.917 38.9677V33.3889H131.496ZM133.364 38.419C133.364 35.2546 135.413 33.2243 138.01 33.2243C139.345 33.2243 140.626 33.8462 141.321 34.7973V29.9868H143.918V43.5222H141.321V42.0223C140.717 42.9552 139.583 43.6868 137.992 43.6868C135.413 43.6868 133.364 41.5834 133.364 38.419ZM141.339 38.4556C141.339 36.535 140.059 35.4741 138.65 35.4741C137.279 35.4741 135.98 36.4984 135.98 38.419C135.98 40.3396 137.279 41.437 138.65 41.437C140.059 41.437 141.339 40.3761 141.339 38.4556ZM150.736 40.4676L153.388 33.3889H156.114L149.84 48.3145H147.114L149.309 43.2661L145.249 33.3889H148.12L150.736 40.4676ZM170.211 30.7367H172.772V43.5222H170.211L164.413 34.7608V43.5222H161.852V30.7367H164.413L170.211 39.5165V30.7367ZM185.089 38.4556C185.089 41.6382 182.747 43.6868 179.802 43.6868C176.876 43.6868 174.663 41.6382 174.663 38.4556C174.663 35.2546 176.949 33.2243 179.876 33.2243C182.802 33.2243 185.089 35.2546 185.089 38.4556ZM177.26 38.4556C177.26 40.4676 178.431 41.4553 179.802 41.4553C181.156 41.4553 182.455 40.4676 182.455 38.4556C182.455 36.4253 181.193 35.4558 179.839 35.4558C178.485 35.4558 177.26 36.4253 177.26 38.4556ZM187.369 40.3761V35.4924H186.162V33.3889H187.369V30.883H189.948V33.3889H192.217V35.4924H189.948V40.3944C189.948 41.0712 190.223 41.3639 191.028 41.3639H192.217V43.5222H190.607C188.668 43.5222 187.369 42.6991 187.369 40.3761ZM198.412 35.3278C197.186 35.3278 196.217 36.1143 196.016 37.5044H200.826C200.789 36.1692 199.729 35.3278 198.412 35.3278ZM203.222 40.3396C202.673 42.2053 200.991 43.6868 198.485 43.6868C195.54 43.6868 193.4 41.6382 193.4 38.4556C193.4 35.2546 195.485 33.2243 198.485 33.2243C201.411 33.2243 203.478 35.218 203.478 38.2361C203.478 38.5653 203.46 38.8946 203.405 39.2238H195.997C196.125 40.7237 197.15 41.5651 198.43 41.5651C199.527 41.5651 200.131 41.0163 200.46 40.3396H203.222Z" fill="#0A0A0A"/>
<path d="M107.215 64.1804L105.459 61.1295H104.504V64.1804H103.253V56.553H105.887C106.473 56.553 106.966 56.6554 107.369 56.8603C107.779 57.0652 108.082 57.3395 108.28 57.6834C108.485 58.0273 108.587 58.4114 108.587 58.8357C108.587 59.3333 108.441 59.7869 108.148 60.1966C107.863 60.599 107.42 60.8734 106.82 61.0197L108.708 64.1804H107.215ZM104.504 60.1308H105.887C106.355 60.1308 106.707 60.0137 106.941 59.7796C107.182 59.5454 107.303 59.2308 107.303 58.8357C107.303 58.4407 107.186 58.1334 106.952 57.9139C106.718 57.6871 106.363 57.5737 105.887 57.5737H104.504V60.1308ZM115.73 61.0087C115.73 61.2355 115.715 61.4404 115.686 61.6233H111.065C111.102 62.1062 111.281 62.494 111.603 62.7866C111.925 63.0793 112.32 63.2256 112.788 63.2256C113.462 63.2256 113.937 62.9439 114.215 62.3806H115.565C115.382 62.9366 115.049 63.3939 114.566 63.7524C114.091 64.1036 113.498 64.2792 112.788 64.2792C112.21 64.2792 111.691 64.1512 111.23 63.8951C110.776 63.6317 110.418 63.2659 110.155 62.7976C109.898 62.322 109.77 61.7733 109.77 61.1514C109.77 60.5295 109.895 59.9844 110.144 59.5162C110.4 59.0406 110.755 58.6748 111.208 58.4187C111.669 58.1626 112.196 58.0346 112.788 58.0346C113.359 58.0346 113.868 58.159 114.314 58.4077C114.76 58.6565 115.108 59.0077 115.357 59.4613C115.605 59.9076 115.73 60.4234 115.73 61.0087ZM114.424 60.6136C114.416 60.1527 114.252 59.7832 113.93 59.5052C113.608 59.2272 113.209 59.0882 112.734 59.0882C112.302 59.0882 111.932 59.2272 111.625 59.5052C111.318 59.7759 111.135 60.1454 111.076 60.6136H114.424ZM116.544 61.1295C116.544 60.5222 116.668 59.9844 116.917 59.5162C117.173 59.0479 117.517 58.6858 117.949 58.4297C118.388 58.1663 118.871 58.0346 119.397 58.0346C119.873 58.0346 120.286 58.1297 120.637 58.3199C120.996 58.5029 121.281 58.7333 121.493 59.0113V58.1334H122.756V64.1804H121.493V63.2805C121.281 63.5658 120.992 63.8036 120.626 63.9939C120.261 64.1841 119.844 64.2792 119.375 64.2792C118.856 64.2792 118.38 64.1475 117.949 63.8841C117.517 63.6134 117.173 63.2403 116.917 62.7647C116.668 62.2818 116.544 61.7367 116.544 61.1295ZM121.493 61.1514C121.493 60.7344 121.406 60.3722 121.23 60.0649C121.062 59.7576 120.839 59.5235 120.561 59.3625C120.283 59.2016 119.983 59.1211 119.661 59.1211C119.339 59.1211 119.039 59.2016 118.761 59.3625C118.483 59.5162 118.256 59.7466 118.08 60.0539C117.912 60.3539 117.828 60.7124 117.828 61.1295C117.828 61.5465 117.912 61.9123 118.08 62.2269C118.256 62.5415 118.483 62.783 118.761 62.9513C119.046 63.1122 119.346 63.1927 119.661 63.1927C119.983 63.1927 120.283 63.1122 120.561 62.9513C120.839 62.7903 121.062 62.5562 121.23 62.2489C121.406 61.9343 121.493 61.5684 121.493 61.1514ZM123.982 61.1295C123.982 60.5222 124.106 59.9844 124.355 59.5162C124.611 59.0479 124.955 58.6858 125.387 58.4297C125.826 58.1663 126.312 58.0346 126.846 58.0346C127.241 58.0346 127.629 58.1224 128.01 58.298C128.397 58.4663 128.705 58.6931 128.931 58.9784V56.0592H130.193V64.1804H128.931V63.2695C128.727 63.5622 128.441 63.8036 128.075 63.9939C127.717 64.1841 127.303 64.2792 126.835 64.2792C126.308 64.2792 125.826 64.1475 125.387 63.8841C124.955 63.6134 124.611 63.2403 124.355 62.7647C124.106 62.2818 123.982 61.7367 123.982 61.1295ZM128.931 61.1514C128.931 60.7344 128.844 60.3722 128.668 60.0649C128.5 59.7576 128.277 59.5235 127.999 59.3625C127.721 59.2016 127.421 59.1211 127.099 59.1211C126.777 59.1211 126.477 59.2016 126.199 59.3625C125.921 59.5162 125.694 59.7466 125.518 60.0539C125.35 60.3539 125.266 60.7124 125.266 61.1295C125.266 61.5465 125.35 61.9123 125.518 62.2269C125.694 62.5415 125.921 62.783 126.199 62.9513C126.484 63.1122 126.784 63.1927 127.099 63.1927C127.421 63.1927 127.721 63.1122 127.999 62.9513C128.277 62.7903 128.5 62.5562 128.668 62.2489C128.844 61.9343 128.931 61.5684 128.931 61.1514ZM138.167 64.2572C137.457 64.2572 136.802 64.0926 136.202 63.7634C135.609 63.4268 135.138 62.9622 134.786 62.3696C134.443 61.7696 134.271 61.0965 134.271 60.3503C134.271 59.604 134.443 58.9345 134.786 58.3419C135.138 57.7493 135.609 57.2883 136.202 56.9591C136.802 56.6225 137.457 56.4542 138.167 56.4542C138.884 56.4542 139.538 56.6225 140.131 56.9591C140.731 57.2883 141.203 57.7493 141.547 58.3419C141.891 58.9345 142.063 59.604 142.063 60.3503C142.063 61.0965 141.891 61.7696 141.547 62.3696C141.203 62.9622 140.731 63.4268 140.131 63.7634C139.538 64.0926 138.884 64.2572 138.167 64.2572ZM138.167 63.1707C138.671 63.1707 139.121 63.0573 139.516 62.8305C139.912 62.5964 140.219 62.2672 140.438 61.8428C140.665 61.4111 140.779 60.9136 140.779 60.3503C140.779 59.7869 140.665 59.293 140.438 58.8687C140.219 58.4443 139.912 58.1187 139.516 57.8919C139.121 57.6651 138.671 57.5517 138.167 57.5517C137.662 57.5517 137.212 57.6651 136.817 57.8919C136.422 58.1187 136.111 58.4443 135.884 58.8687C135.664 59.293 135.555 59.7869 135.555 60.3503C135.555 60.9136 135.664 61.4111 135.884 61.8428C136.111 62.2672 136.422 62.5964 136.817 62.8305C137.212 63.0573 137.662 63.1707 138.167 63.1707ZM146.345 58.0346C146.82 58.0346 147.245 58.1334 147.618 58.3309C147.998 58.5285 148.295 58.8211 148.507 59.2089C148.719 59.5967 148.825 60.0649 148.825 60.6136V64.1804H147.585V60.8002C147.585 60.2588 147.449 59.8454 147.179 59.5601C146.908 59.2674 146.539 59.1211 146.07 59.1211C145.602 59.1211 145.229 59.2674 144.951 59.5601C144.68 59.8454 144.545 60.2588 144.545 60.8002V64.1804H143.294V58.1334H144.545V58.8248C144.75 58.576 145.009 58.3821 145.324 58.2431C145.646 58.1041 145.986 58.0346 146.345 58.0346ZM151.672 56.0592V64.1804H150.421V56.0592H151.672ZM158.758 58.1334L155.049 67.0229H153.754L154.983 64.0816L152.601 58.1334H153.995L155.696 62.7427L157.463 58.1334H158.758Z" fill="#6D6D6D"/>
</g>
<defs>
<filter id="filter0_d_215_73" x="-19.0389" y="-19.6502" width="327.078" height="134.106" filterUnits="userSpaceOnUse" color-interpolation-filters="sRGB">
<feFlood flood-opacity="0" result="BackgroundImageFix"/>
<feColorMatrix in="SourceAlpha" type="matrix" values="0 0 0 0 0 0 0 0 0 0 0 0 0 0 0 0 0 0 127 0" result="hardAlpha"/>
<feMorphology radius="12.6926" operator="erode" in="SourceAlpha" result="effect1_dropShadow_215_73"/>
<feOffset dy="-0.611319"/>
<feGaussianBlur stdDeviation="15.8657"/>
<feComposite in2="hardAlpha" operator="out"/>
<feColorMatrix type="matrix" values="0 0 0 0 0.1125 0 0 0 0 0.1125 0 0 0 0 0.1125 0 0 0 0.17 0"/>
<feBlend mode="normal" in2="BackgroundImageFix" result="effect1_dropShadow_215_73"/>
<feBlend mode="normal" in="SourceGraphic" in2="effect1_dropShadow_215_73" result="shape"/>
</filter>
<linearGradient id="paint0_linear_215_73" x1="776.91" y1="154.84" x2="776.91" y2="1469.97" gradientUnits="userSpaceOnUse">
<stop stop-color="#1A237E" stop-opacity="0.2"/>
<stop offset="1" stop-color="#1A237E" stop-opacity="0.02"/>
</linearGradient>
<radialGradient id="paint1_radial_215_73" cx="0" cy="0" r="1" gradientUnits="userSpaceOnUse" gradientTransform="translate(165.134 128.79) scale(6636.19 6636.19)">
<stop stop-color="white" stop-opacity="0.1"/>
<stop offset="1" stop-color="white" stop-opacity="0"/>
</radialGradient>
</defs>
</svg>
