<svg width="24" height="25" viewBox="0 0 24 25" fill="none" xmlns="http://www.w3.org/2000/svg">
<g clip-path="url(#clip0_447_79)">
<path fill-rule="evenodd" clip-rule="evenodd" d="M14.4002 0.5H16.0002V2.1C16.0002 3.79739 16.6745 5.42525 17.8747 6.62548C19.0749 7.82572 20.7028 8.5 22.4002 8.5V10.1C21.1582 10.1 19.9333 9.81084 18.8225 9.25542C17.7116 8.7 16.7454 7.89357 16.0002 6.9V18.1C16.0002 19.3658 15.6248 20.6032 14.9216 21.6556C14.2184 22.7081 13.2188 23.5284 12.0494 24.0128C10.8799 24.4972 9.5931 24.624 8.35162 24.377C7.11014 24.1301 5.96977 23.5205 5.07471 22.6255C4.17966 21.7304 3.57012 20.5901 3.32317 19.3486C3.07623 18.1071 3.20297 16.8203 3.68737 15.6508C4.17177 14.4814 4.99207 13.4818 6.04455 12.7786C7.09702 12.0754 8.3344 11.7 9.6002 11.7V13.3C8.65085 13.3 7.72282 13.5815 6.93346 14.1089C6.1441 14.6364 5.52888 15.386 5.16558 16.2631C4.80228 17.1402 4.70722 18.1053 4.89243 19.0364C5.07764 19.9675 5.53479 20.8228 6.20609 21.4941C6.87738 22.1654 7.73266 22.6226 8.66376 22.8078C9.59487 22.993 10.56 22.8979 11.4371 22.5346C12.3142 22.1713 13.0638 21.5561 13.5913 20.7667C14.1187 19.9774 14.4002 19.0494 14.4002 18.1V0.5Z" fill="white"/>
</g>
<defs>
<clipPath id="clip0_447_79">
<rect width="24" height="24" fill="white" transform="translate(0 0.5)"/>
</clipPath>
</defs>
</svg>
