<svg width="28" height="34" viewBox="0 0 28 34" fill="none" xmlns="http://www.w3.org/2000/svg">
<path d="M4.14095 23.098C3.65779 14.4532 3.94773 4.65572 12.836 3.88729C21.7243 3.11886 24.4293 10.1307 23.9464 14.9335C23.4635 19.7362 13.8021 25.9795 13.8021 23.098C13.8021 20.2165 13.8021 12.5322 13.8021 12.5322" stroke="black" stroke-width="7" stroke-linecap="round"/>
<path d="M22.5004 25.8291C23.3338 25.2039 24.0805 24.3761 24.7403 23.5628C25.7225 22.3524 27.2946 22.8103 27.3982 24.3656C27.9912 33.2651 24.2377 32.7766 22.0004 32.3291C19.5005 31.8291 20.5008 27.3291 22.5004 25.8291Z" fill="black" stroke="black"/>
<path d="M2.06226 32.8291C1.52721 32.4719 1.23467 31.4003 1.09829 30.1922C0.912348 28.5451 2.53329 27.7227 4.18983 27.6643C5.70316 27.6109 7.42206 28.2156 7.21605 29.7158C6.81978 32.6014 4.75519 34.6269 2.06226 32.8291Z" fill="#FF895D" stroke="#FF895D" stroke-linejoin="round"/>
</svg>
